<?xml version="1.0" encoding="UTF-8"?>
<svg width="184px" height="44px" viewBox="0 0 184 44" version="1.1" xmlns="http://www.w3.org/2000/svg" xmlns:xlink="http://www.w3.org/1999/xlink">
    <!-- Generator: Sketch 51.2 (57519) - http://www.bohemiancoding.com/sketch -->
    <title>Logo</title>
    <desc>Created with Sketch.</desc>
    <defs></defs>
    <g id="04_Landing" stroke="none" stroke-width="1" fill="none" fill-rule="evenodd">
        <g id="Landing-0002-Envio-datos-ok" transform="translate(-116.000000, -44.000000)">
            <g id="Section-1-Premiamos-el-contenido-de-calidad" transform="translate(120.000000, 48.000000)">
                <g id="Logo">
                    <path d="M7.608578,14.5327387 C7.81017026,14.2206813 7.94429848,13.856712 8.01096266,13.4408307 C8.3044856,5.96806368 14.4552848,5.68434189e-14 22,5.68434189e-14 C29.7319865,5.68434189e-14 36,6.2680135 36,14 C36,21.3566686 30.3257282,27.38804 23.1150559,27.9562429 C22.1407424,28.3665078 21.4033704,29.0477601 20.9029402,30 L20.8197026,29.9624158 C19.0058997,33.5445113 15.2897049,36 11,36 C4.92486775,36 0,31.0751322 0,25 C0,20.1082903 3.19304064,15.9623553 7.608578,14.5327387 Z" id="Combined-Shape" stroke="#FFFFFF" stroke-width="6.4"></path>
                    <path d="M63,8 L63,12.0115274 L50.982684,12.0115274 L50.982684,19.9654179 L63,19.9654179 L63,24.0115274 L50.982684,24.0115274 L50.982684,32 L47,32 L47,8 L63,8 Z M69,8 L72.982684,8 L72.982684,27.9884726 L85,27.9884726 L85,32 L69,32 L69,8 Z M90,8 L94,8 L94,32 L90,32 L90,8 Z M104,12 L104,20 L112.023055,20 C113.106634,20 114.040342,19.6075075 114.824207,18.8225108 C115.608073,18.0375141 116,17.1024585 116,16.017316 C116,14.9090854 115.608073,13.9624859 114.824207,13.1774892 C114.040342,12.3924925 113.106634,12 112.023055,12 L104,12 Z M103.979239,24.0115274 L103.979239,32 L100,32 L100,8 L112.00692,8 C114.198396,8 116.078424,8.78385383 117.647059,10.351585 C119.215694,11.9193162 120,13.8097872 120,16.0230548 C120,18.2132674 119.215694,20.1037384 117.647059,21.6945245 C116.078424,23.2392008 114.198396,24.0115274 112.00692,24.0115274 L103.979239,24.0115274 Z M129,12 L129,20 L137.023055,20 C138.106634,20 139.040342,19.6075075 139.824207,18.8225108 C140.608073,18.0375141 141,17.1024585 141,16.017316 C141,14.9090854 140.608073,13.9624859 139.824207,13.1774892 C139.040342,12.3924925 138.106634,12 137.023055,12 L129,12 Z M128.979239,24.0115274 L128.979239,32 L125,32 L125,8 L137.00692,8 C139.198396,8 141.078424,8.78385383 142.647059,10.351585 C144.215694,11.9193162 145,13.8097872 145,16.0230548 C145,18.2132674 144.215694,20.1037384 142.647059,21.6945245 C141.078424,23.2392008 139.198396,24.0115274 137.00692,24.0115274 L128.979239,24.0115274 Z M150,8 L154,8 L154,32 L150,32 L150,8 Z M160,8 L180,8 L180,12.0115274 L172.020725,12.0115274 L172.020725,32 L168.013817,32 L168.013817,12.0115274 L160,12.0115274 L160,8 Z" id="FLIPPIT" fill="#FFFFFF"></path>
                </g>
            </g>
        </g>
    </g>
</svg>