<?xml version="1.0" encoding="UTF-8"?>
<svg width="24px" height="24px" viewBox="0 0 24 24" version="1.1" xmlns="http://www.w3.org/2000/svg" xmlns:xlink="http://www.w3.org/1999/xlink">
    <!-- Generator: Sketch 51.2 (57519) - http://www.bohemiancoding.com/sketch -->
    <title></title>
    <desc>Created with Sketch.</desc>
    <defs></defs>
    <g id="04_Landing" stroke="none" stroke-width="1" fill="none" fill-rule="evenodd">
        <g id="Landing-0001-Copy" transform="translate(-95.000000, -4437.000000)" fill="#FFFFFF">
            <g id="Footer" transform="translate(-18.000000, 3998.000000)">
                <g id="RRSS" transform="translate(113.000000, 388.000000)">
                    <g transform="translate(0.000000, 51.000000)" id="">
                        <path d="M19.5,0 C21.984375,0 24,2.015625 24,4.5 L24,19.5 C24,21.984375 21.984375,24 19.5,24 L16.5625,24 L16.5625,14.703125 L19.671875,14.703125 L20.140625,11.078125 L16.5625,11.078125 L16.5625,8.765625 C16.5625,7.71875 16.84375,7.015625 18.359375,7.015625 L20.265625,7 L20.265625,3.765625 C19.9375,3.71875 18.796875,3.625 17.484375,3.625 C14.71875,3.625 12.8125,5.3125 12.8125,8.40625 L12.8125,11.078125 L9.6875,11.078125 L9.6875,14.703125 L12.8125,14.703125 L12.8125,24 L4.5,24 C2.015625,24 0,21.984375 0,19.5 L0,4.5 C0,2.015625 2.015625,0 4.5,0 L19.5,0 Z"></path>
                    </g>
                </g>
            </g>
        </g>
    </g>
</svg>