<?xml version="1.0" encoding="UTF-8"?>
<svg width="441px" height="432px" viewBox="0 0 441 432" version="1.1" xmlns="http://www.w3.org/2000/svg" xmlns:xlink="http://www.w3.org/1999/xlink">
    <!-- Generator: Sketch 51.2 (57519) - http://www.bohemiancoding.com/sketch -->
    <title>ilustración</title>
    <desc>Created with Sketch.</desc>
    <defs>
        <linearGradient x1="50%" y1="100%" x2="50%" y2="0%" id="linearGradient-1">
            <stop stop-color="#808080" stop-opacity="0.25" offset="0%"></stop>
            <stop stop-color="#808080" stop-opacity="0.12" offset="54%"></stop>
            <stop stop-color="#808080" stop-opacity="0.1" offset="100%"></stop>
        </linearGradient>
        <linearGradient x1="50.002554%" y1="100%" x2="50.002554%" y2="-0.0063934531%" id="linearGradient-2">
            <stop stop-color="#808080" stop-opacity="0.25" offset="0%"></stop>
            <stop stop-color="#808080" stop-opacity="0.12" offset="54%"></stop>
            <stop stop-color="#808080" stop-opacity="0.1" offset="100%"></stop>
        </linearGradient>
        <linearGradient x1="49.9985323%" y1="100%" x2="49.9985323%" y2="0.00663724156%" id="linearGradient-3">
            <stop stop-color="#808080" stop-opacity="0.25" offset="0%"></stop>
            <stop stop-color="#808080" stop-opacity="0.12" offset="54%"></stop>
            <stop stop-color="#808080" stop-opacity="0.1" offset="100%"></stop>
        </linearGradient>
        <linearGradient x1="49.9869589%" y1="100%" x2="49.9869589%" y2="-0.0133994372%" id="linearGradient-4">
            <stop stop-color="#808080" stop-opacity="0.25" offset="0%"></stop>
            <stop stop-color="#808080" stop-opacity="0.12" offset="54%"></stop>
            <stop stop-color="#808080" stop-opacity="0.1" offset="100%"></stop>
        </linearGradient>
        <linearGradient x1="94.2456963%" y1="78.7597085%" x2="4.52906957%" y2="22.0141366%" id="linearGradient-5">
            <stop stop-color="#808080" stop-opacity="0.25" offset="0%"></stop>
            <stop stop-color="#808080" stop-opacity="0.12" offset="54%"></stop>
            <stop stop-color="#808080" stop-opacity="0.1" offset="100%"></stop>
        </linearGradient>
    </defs>
    <g id="04_Landing" stroke="none" stroke-width="1" fill="none" fill-rule="evenodd">
        <g id="Landing-0001" transform="translate(-839.000000, -66.000000)">
            <g id="ilustración" transform="translate(839.000000, 66.000000)">
                <ellipse id="Oval" fill="url(#linearGradient-1)" fill-rule="nonzero" cx="223.014925" cy="213.6" rx="187.844113" ry="188"></ellipse>
                <ellipse id="Oval" fill="#3572FF" fill-rule="nonzero" cx="222.215589" cy="214.4" rx="183.048093" ry="183.2"></ellipse>
                <path d="M180.534161,202.238025 C182.439394,200.847625 183.68745,198.949248 184.278329,196.542897 C185.773411,168.156394 209.244867,145.6 237.980284,145.6 C267.680829,145.6 291.757877,169.69703 291.757877,199.422222 C291.757877,227.750789 269.890177,250.967643 242.127529,253.086774 C239.04687,254.159125 236.532963,255.912123 234.585809,258.34577 C228.130412,273.431264 213.161643,284 195.72646,284 C172.390318,284 153.472637,265.06662 153.472637,241.711111 C153.472637,223.715235 164.704072,208.344778 180.534161,202.238025 Z" id="Combined-Shape" stroke="#FFFFFF" stroke-width="24.576"></path>
                <path d="M296.068728,268.8 C273.002235,268.8 248.44908,267.692142 223.350042,265.464766 C167.55956,260.520222 115.55542,250.648629 76.9254331,237.675034 C38.0166968,224.596484 17.2266556,209.821162 18.4345686,196.072067 C19.0443324,189.110057 25.1535847,182.894393 36.5823001,177.6 L37.1630275,178.911937 C26.2337377,183.973096 20.4090418,189.786433 19.8457362,196.200345 C19.2824306,202.614257 24.1140827,209.517959 34.2187396,216.503293 C44.1491782,223.366179 58.6615562,230.024986 77.3609787,236.328112 C115.892242,249.272553 167.774429,259.114993 223.46038,264.047874 C279.146331,268.980756 331.946067,268.415165 372.126596,262.450227 C391.627423,259.534812 407.080579,255.546525 418.056327,250.537843 C429.229522,245.441698 435.181978,239.564222 435.751091,233.074509 C436.401506,225.686849 429.752177,217.587827 416.529014,209.657899 L417.266538,208.415932 C431.203996,216.771511 437.899783,225.109597 437.185488,233.202788 C435.977575,246.957714 412.945926,257.849703 372.341466,263.872949 C350.233173,267.144044 324.234007,268.794169 296.068728,268.8 Z" id="Shape" fill="url(#linearGradient-2)" fill-rule="nonzero"></path>
                <path d="M416.828104,207.498157 C430.010699,215.392301 437.092498,223.594765 436.390123,231.541265 C433.957931,259.156226 338.603245,273.280753 223.407911,263.088755 C108.212577,252.896758 16.7993178,222.250957 19.2315095,194.635996 C19.8119849,187.812244 26.1101425,181.837825 36.9534221,176.8" id="Shape" stroke="#BDBDBD" stroke-width="2.4" opacity="0.5"></path>
                <path d="M246.425505,296 C229.793214,288.825248 212.818048,280.819062 195.976545,272.196569 C146.073859,246.660498 101.529305,218.00219 70.5486104,191.489331 C39.329648,164.778787 25.5914448,143.318488 31.8561584,131.05629 C35.0291952,124.8467 43.0199013,121.398865 55.59582,120.8 L55.665557,122.236113 C43.6359121,122.817536 36.057817,125.992102 33.1346714,131.707483 C30.2115258,137.422865 32.111861,145.620921 38.876357,155.871397 C45.5188131,165.941632 56.490779,177.558451 71.4842495,190.384628 C102.377772,216.839346 146.823533,245.433697 196.627425,270.917439 C213.445682,279.52249 230.385979,287.517048 246.995025,294.680171 L246.425505,296 Z" id="Shape" fill="url(#linearGradient-3)" fill-rule="nonzero"></path>
                <path d="M249.393035,295.2 C233.053529,288.168204 216.126522,280.224772 198.937757,271.450995 C95.7644499,218.779302 22.3617347,156.102833 34.9842794,131.471225 C38.1021061,125.385905 46.1816981,122.18066 58.141123,121.6" id="Shape" stroke="#BDBDBD" stroke-width="2.4"></path>
                <path d="M380.540684,336.8 C365.519998,336.8 344.335053,331.879727 315.737977,322.004449 L316.205929,320.649926 C370.777238,339.48589 397.774033,340.24998 406.474477,323.20268 C409.819468,316.650033 406.699787,306.711081 397.456288,294.462495 L398.611725,293.6 C408.352062,306.496905 411.431303,316.678976 407.762789,323.856787 C403.343241,332.475948 394.631243,336.794211 380.540684,336.8 Z" id="Shape" fill="url(#linearGradient-4)" fill-rule="nonzero"></path>
                <path d="M399.451155,292 C408.791586,304.073721 412.294248,314.173303 408.633966,321.182928 C400.233416,337.279315 375.59219,338.92157 316.537313,319.008514" id="Shape" stroke="#BDBDBD" stroke-width="2.4"></path>
                <g id="Group" opacity="0.5" transform="translate(49.558872, 383.200000)" fill="#47E6B1" fill-rule="nonzero">
                    <rect id="Rectangle-path" x="5.02383085" y="0.412631579" width="1.93039801" height="10.7461053"></rect>
                    <rect id="Rectangle-path" transform="translate(5.986032, 5.788632) rotate(90.000000) translate(-5.986032, -5.788632) " x="5.02083333" y="0.415578947" width="1.93039801" height="10.7461053"></rect>
                </g>
                <g id="Group" opacity="0.5" transform="translate(430.842454, 1.600000)" fill="#47E6B1" fill-rule="nonzero">
                    <rect id="Rectangle-path" x="4.45861569" y="0.129684211" width="1.89653138" height="10.7461053"></rect>
                    <rect id="Rectangle-path" transform="translate(5.403936, 5.505684) rotate(90.000000) translate(-5.403936, -5.505684) " x="4.45567077" y="0.132631579" width="1.89653138" height="10.7461053"></rect>
                </g>
                <g id="Group" opacity="0.5" transform="translate(56.752902, 27.200000)" fill="#47E6B1" fill-rule="nonzero">
                    <rect id="Rectangle-path" x="4.77077769" y="0.112" width="1.89653138" height="10.7461053"></rect>
                    <rect id="Rectangle-path" transform="translate(5.721988, 5.488000) rotate(90.000000) translate(-5.721988, -5.488000) " x="4.77372261" y="0.114947368" width="1.89653138" height="10.7461053"></rect>
                </g>
                <path d="M116.870554,420.867351 C115.840928,420.419781 115.310263,419.270661 115.636813,418.195767 C115.663384,418.11575 115.680327,418.032847 115.687284,417.948814 C115.698487,417.469243 115.403959,417.035546 114.954294,416.869476 C114.504629,416.703405 113.999214,416.841667 113.696473,417.213567 C113.646828,417.28138 113.605412,417.354859 113.573099,417.432458 C113.125901,418.462938 111.977734,418.994044 110.903731,418.667223 C110.82378,418.64063 110.740946,418.623673 110.656983,418.61671 C110.177809,418.605497 109.744472,418.90027 109.578539,419.350308 C109.412606,419.800347 109.550754,420.30618 109.922345,420.609173 C109.990102,420.65886 110.06352,420.700309 110.141054,420.732649 C111.17068,421.180219 111.701346,422.329339 111.374796,423.404233 C111.348225,423.48425 111.331282,423.567153 111.324325,423.651186 C111.313121,424.130757 111.60765,424.564454 112.057315,424.730524 C112.50698,424.896595 113.012394,424.758333 113.315135,424.386433 C113.364781,424.31862 113.406196,424.245141 113.438509,424.167542 C113.885708,423.137062 115.033875,422.605956 116.107878,422.932777 C116.187829,422.95937 116.270663,422.976327 116.354626,422.98329 C116.833799,422.994503 117.267137,422.69973 117.433069,422.249692 C117.599002,421.799653 117.460855,421.29382 117.089263,420.990827 C117.021507,420.94114 116.948089,420.899691 116.870554,420.867351 Z" id="Shape" fill="#4D8AF0" fill-rule="nonzero" opacity="0.5"></path>
                <path d="M229.577022,428.067351 C228.547396,427.619781 228.01673,426.470661 228.34328,425.395767 C228.369851,425.31575 228.386795,425.232847 228.393752,425.148814 C228.404955,424.669243 228.110427,424.235546 227.660761,424.069476 C227.211096,423.903405 226.705682,424.041667 226.402941,424.413567 C226.353295,424.48138 226.31188,424.554859 226.279567,424.632458 C225.832368,425.662938 224.684201,426.194044 223.610199,425.867223 C223.530247,425.84063 223.447413,425.823673 223.36345,425.81671 C222.884277,425.805497 222.45094,426.10027 222.285007,426.550308 C222.119074,427.000347 222.257222,427.50618 222.628813,427.809173 C222.69657,427.85886 222.769988,427.900309 222.847522,427.932649 C223.877148,428.380219 224.407814,429.529339 224.081264,430.604233 C224.054693,430.68425 224.037749,430.767153 224.030792,430.851186 C224.019589,431.330757 224.314117,431.764454 224.763783,431.930524 C225.213448,432.096595 225.718862,431.958333 226.021603,431.586433 C226.071249,431.51862 226.112664,431.445141 226.144977,431.367542 C226.592176,430.337062 227.740343,429.805956 228.814345,430.132777 C228.894297,430.15937 228.977131,430.176327 229.061094,430.18329 C229.540267,430.194503 229.973604,429.89973 230.139537,429.449692 C230.30547,428.999653 230.167322,428.49382 229.795731,428.190827 C229.727974,428.14114 229.654556,428.099691 229.577022,428.067351 Z" id="Shape" fill="#4D8AF0" fill-rule="nonzero" opacity="0.5"></path>
                <path d="M12.1574533,292.067351 C11.1278271,291.619781 10.5971616,290.470661 10.9237115,289.395767 C10.9502825,289.31575 10.9672258,289.232847 10.9741828,289.148814 C10.985386,288.669243 10.6908577,288.235546 10.2411926,288.069476 C9.7915275,287.903405 9.28611326,288.041667 8.98337232,288.413567 C8.93372643,288.48138 8.89231112,288.554859 8.85999815,288.632458 C8.41279957,289.662938 7.26463243,290.194044 6.19062974,289.867223 C6.1106786,289.84063 6.02784448,289.823673 5.9438814,289.81671 C5.46470827,289.805497 5.03137084,290.10027 4.86543808,290.550308 C4.69950532,291.000347 4.83765269,291.50618 5.20924429,291.809173 C5.27700088,291.85886 5.35041892,291.900309 5.42795305,291.932649 C6.45757925,292.380219 6.98824473,293.529339 6.66169475,294.604233 C6.63512382,294.68425 6.61818048,294.767153 6.6112235,294.851186 C6.60002027,295.330757 6.89454857,295.764454 7.34421369,295.930524 C7.7938788,296.096595 8.29929305,295.958333 8.60203398,295.586433 C8.65167988,295.51862 8.69309518,295.445141 8.72540815,295.367542 C9.17260673,294.337062 10.3207739,293.805956 11.3947766,294.132777 C11.4747277,294.15937 11.5575618,294.176327 11.6415249,294.18329 C12.120698,294.194503 12.5540355,293.89973 12.7199682,293.449692 C12.885901,292.999653 12.7477536,292.49382 12.376162,292.190827 C12.3084054,292.14114 12.2349874,292.099691 12.1574533,292.067351 Z" id="Shape" fill="#4D8AF0" fill-rule="nonzero" opacity="0.5"></path>
                <ellipse id="Oval" fill="#F55F44" fill-rule="nonzero" opacity="0.5" cx="3.59701493" cy="138" rx="3.59701493" ry="3.6"></ellipse>
                <ellipse id="Oval" fill="#4D8AF0" fill-rule="nonzero" opacity="0.5" cx="308.144279" cy="13.2" rx="3.59701493" ry="3.6"></ellipse>
                <ellipse id="Oval" fill="#47E6B1" fill-rule="nonzero" opacity="0.5" cx="103.514096" cy="3.6" rx="3.59701493" ry="3.6"></ellipse>
                <ellipse id="Oval" fill="#F55F44" fill-rule="nonzero" opacity="0.5" cx="379.28524" cy="402" rx="3.59701493" ry="3.6"></ellipse>
                <path d="M290.626737,284.588076 C288.457664,283.463449 285.787167,284.308156 284.660281,286.475332 L284.207132,287.346373 L283.173024,286.806328 L273.929955,282.009795 L271.919834,280.964545 C271.63884,280.819089 271.323529,280.752844 271.007727,280.772916 C262.159711,277.869446 255.060383,283.46153 250.48242,292.270659 C248.852524,295.284504 247.772513,298.564347 247.292952,301.956636 L247.188379,301.904374 C246.677134,305.533712 247.153521,308.936579 248.931258,311.816821 L249.082308,311.520667 C249.971602,312.982925 251.116918,314.273275 252.463493,315.330021 C252.554723,315.710651 252.807053,316.032807 253.154835,316.212676 L265.808138,322.780326 L264.843745,324.63274 C263.718603,326.800821 264.563697,329.470097 266.731864,330.596468 L269.735425,324.789527 L285.340003,332.89021 L286.362492,330.927464 L287.384982,328.964718 L288.912906,326.020599 L288.965192,326.020599 L285.421338,332.837947 L292.88667,336.763439 C301.97288,341.478675 308.915349,335.422036 313.958079,326.038019 L313.958079,325.985757 L314.265988,325.405063 L314.265988,325.3528 L314.527419,324.835983 C319.349385,315.283565 320.337017,306.131826 311.20433,301.39917 L303.762236,297.566589 L299.654851,305.475642 L299.602564,305.475642 L301.699829,301.439818 L302.664222,299.587404 L303.738998,297.514326 L288.13442,289.384609 L290.626737,284.588076 Z M266.807388,318.314788 L266.853865,318.355437 L266.801579,318.355437 L266.807388,318.314788 Z" id="Shape" fill="url(#linearGradient-5)" fill-rule="nonzero"></path>
                <rect id="Rectangle-path" fill="#4F617D" fill-rule="nonzero" transform="translate(287.361526, 309.600000) rotate(-62.550000) translate(-287.361526, -309.600000) " x="270.975124" y="301.6" width="32.7728027" height="16"></rect>
                <path d="M312.833068,325.159907 L312.833068,325.106588 C308.012039,334.466928 301.311924,340.657785 292.474349,336.030934 L285.363184,332.304571 L302.850425,298.4 L309.955718,302.126363 C318.793293,306.759138 317.654097,315.799567 312.833068,325.159907 Z" id="Shape" fill="#FF0079" fill-rule="nonzero"></path>
                <path d="M307.261756,332 C309.458957,329.717028 311.298289,327.12864 312.719928,324.319022 C314.035343,321.919355 315.048732,319.37284 315.737977,316.735054 L312.719928,315.2 L304.547264,330.607609 L307.261756,332 Z" id="Shape" fill="#4A5C81" fill-rule="nonzero"></path>
                <path d="M284.57574,314.4 L306.945274,314.4 L306.945274,315.182123 C306.945274,316.035557 306.674638,316.854037 306.192904,317.457506 C305.71117,318.060975 305.057798,318.4 304.376523,318.4 L287.132598,318.4 C285.713916,318.4 284.563847,316.959307 284.563847,315.182123 L284.563847,314.4 L284.57574,314.4 Z" id="Shape" fill="#4A5C81" fill-rule="nonzero" transform="translate(295.754561, 316.400000) rotate(-62.550000) translate(-295.754561, -316.400000) "></path>
                <path d="M273.234703,303.2 L274.172471,303.2 L274.172471,338.4 L269.376451,338.4 L269.376457,306.535041 C269.374678,305.651065 269.780386,304.802769 270.50414,304.177161 C271.227894,303.551552 272.210271,303.199999 273.234703,303.2 Z" id="Shape" fill="#FF0079" fill-rule="nonzero" transform="translate(271.774461, 320.800000) rotate(-62.550000) translate(-271.774461, -320.800000) "></path>
                <path d="M283.764511,273.6 L284.70228,273.6 C286.833133,273.6 288.560531,275.090561 288.560531,276.929261 L288.560531,308.8 L283.764511,308.8 L283.764511,273.6 Z" id="Shape" fill="#FF0079" fill-rule="nonzero" transform="translate(286.162521, 291.200000) rotate(-62.550000) translate(-286.162521, -291.200000) "></path>
                <path d="M282.965174,287.258409 L265.871548,320.8 L257.244213,316.246127 C247.73689,311.211665 247.788654,301.705381 252.504931,292.445253 C257.226959,283.185125 264.830516,277.675934 274.360846,282.704536 L282.965174,287.258409 Z" id="Shape" fill="#FF0079" fill-rule="nonzero"></path>
                <path d="M251.033962,311.2 L254.189055,304.325778 L249.566843,301.6 C249.114613,305.114819 249.524775,308.408468 251.033962,311.2 Z" id="Shape" fill="#FFF6D5" fill-rule="nonzero"></path>
                <path d="M266.978441,281.6 L263.411422,288 L258.185738,285.462261 C260.783717,283.197217 263.726508,281.783652 266.978441,281.6 Z" id="Shape" fill="#FFF6D5" fill-rule="nonzero"></path>
                <path d="M267.575723,323.2 L270.175788,323.2 L270.175788,328 L264.580431,328 L264.580449,327.07486 C264.577685,326.048418 264.892036,325.062795 265.454059,324.33573 C266.016082,323.608664 266.779522,323.199994 267.575723,323.2 Z" id="Shape" fill="#FF0079" fill-rule="nonzero" transform="translate(267.378109, 325.600000) rotate(-62.550000) translate(-267.378109, -325.600000) "></path>
                <path d="M283.769711,284.8 L289.359867,284.8 L289.359867,289.6 L286.759795,289.6 C285.105545,289.6 283.764511,287.871169 283.764511,285.738547 L283.764511,284.8 L283.769711,284.8 Z" id="Shape" fill="#FF0079" fill-rule="nonzero" transform="translate(286.562189, 287.200000) rotate(117.450000) translate(-286.562189, -287.200000) "></path>
                <path d="M286.162521,292.844003 L271.405027,320.8 L258.59462,309.528833 C256.544675,307.724125 255.997495,304.782656 257.264902,302.380695 L262.749988,291.997205 C264.022693,289.585149 266.799668,288.333509 269.487621,288.960414 L286.162521,292.844003 Z" id="Shape" fill="#53678B" fill-rule="nonzero"></path>
                <path d="M271.701014,319.2 C265.618723,315.997669 263.570133,307.778158 267.124869,300.834896 C270.679604,293.891635 278.487327,290.882497 284.563847,294.073119" id="Shape" fill="#658BC8" fill-rule="nonzero"></path>
                <polygon id="Shape" fill="#FF0079" fill-rule="nonzero" points="286.961857 292.663185 272.886335 320.8 270.175788 319.336815 272.085104 317.81463 283.648967 294.704564 284.251311 291.2"></polygon>
                <polygon id="Shape" fill="#FF0079" fill-rule="nonzero" opacity="0.05" points="272.886335 320.8 270.175788 319.336815 272.085104 317.81463 283.648967 294.704564 284.251311 291.2 286.961857 292.663185"></polygon>
                <rect id="Rectangle-path" fill="#53678B" fill-rule="nonzero" transform="translate(281.366501, 310.400000) rotate(-62.550000) translate(-281.366501, -310.400000) " x="278.968491" y="308" width="4.7960199" height="4.8"></rect>
                <ellipse id="Oval" fill="#53678B" fill-rule="nonzero" transform="translate(282.165837, 310.800000) rotate(-62.550000) translate(-282.165837, -310.800000) " cx="282.165837" cy="310.8" rx="3.99668325" ry="1.2"></ellipse>
                <path d="M292.557214,330.587819 C294.224294,331.854225 296.286836,332.294581 298.255286,331.804367 C300.223736,331.314154 301.92258,329.93708 302.94859,328" id="Shape" fill="#000000" fill-rule="nonzero" opacity="0.05"></path>
                <path d="M305.3466,304.8 C307.262775,305.496699 308.793992,306.922746 309.57781,308.740592 C310.361628,310.558439 310.328375,312.606501 309.485922,314.4" id="Shape" fill="#000000" fill-rule="nonzero" opacity="0.05"></path>
                <path d="M260.608529,305.6 C260.608529,305.6 259.831577,297.75173 266.978441,292" id="Shape" fill="#000000" fill-rule="nonzero" opacity="0.05"></path>
                <path d="M263.805876,307.2 C263.805876,307.2 263.028923,299.35173 270.175788,293.6" id="Shape" fill="#000000" fill-rule="nonzero" opacity="0.05"></path>
                <ellipse id="Oval" fill="#4A77BE" fill-rule="nonzero" transform="translate(270.575456, 309.200000) rotate(-62.550000) translate(-270.575456, -309.200000) " cx="270.575456" cy="309.2" rx="2.79767828" ry="2.8"></ellipse>
                <ellipse id="Oval" fill="#4A77BE" fill-rule="nonzero" transform="translate(275.771144, 299.200000) rotate(-62.550000) translate(-275.771144, -299.200000) " cx="275.771144" cy="299.2" rx="2.39800995" ry="2.4"></ellipse>
                <path d="M286.975229,300.800015 L287.755251,300.800015 C288.641456,300.800015 289.359867,301.375934 289.359867,302.086365 L289.359867,309.083873 C289.359867,309.432932 289.186897,309.767694 288.879007,310.014515 C288.571117,310.261337 288.153529,310.4 287.718107,310.4 L285.363184,310.4 L285.363184,302.062544 C285.379426,301.359109 286.097611,300.796637 286.975229,300.800015 Z" id="Shape" fill="#CDEFFF" fill-rule="nonzero" transform="translate(287.361526, 305.600000) rotate(-101.534621) translate(-287.361526, -305.600000) "></path>
                <path d="M287.761194,301.6 L291.757877,301.6 L291.757877,304.945387 C291.757877,306.190575 290.318379,307.2 288.542668,307.2 L287.761194,307.2 L287.761194,301.6 Z" id="Shape" fill="#000000" fill-rule="nonzero" opacity="0.05" transform="translate(289.759536, 304.400000) rotate(-101.450000) translate(-289.759536, -304.400000) "></path>
                <path d="M283.137396,317.6 L288.560531,317.6 L288.560531,323.2 L283.137396,323.2 C281.717986,323.2 280.567327,322.196667 280.567327,320.958993 L280.567327,319.866187 C280.559611,319.267484 280.826976,318.690985 281.309796,318.265253 C281.792616,317.839521 282.450738,317.599962 283.137396,317.6 Z" id="Shape" fill="#CDEFFF" fill-rule="nonzero" transform="translate(284.563847, 320.400000) rotate(-62.550000) translate(-284.563847, -320.400000) "></path>
                <path d="M286.961857,323.264039 L285.87917,325.42696 C284.705755,327.245395 281.862946,327.742359 279.413291,326.556423 L276.570481,325.178478 L278.112856,322.4 L286.961857,323.264039 Z" id="Shape" fill="#CDEFFF" fill-rule="nonzero"></path>
                <path d="M274.182571,319.2 L274.961708,319.2 C275.850209,319.2 276.570481,319.704609 276.570481,320.327076 L276.570481,324.8 L272.573798,324.8 L272.573798,320.327076 C272.573798,319.704609 273.29407,319.2 274.182571,319.2 Z" id="Shape" fill="#CDEFFF" fill-rule="nonzero" transform="translate(274.572139, 322.000000) rotate(-62.550000) translate(-274.572139, -322.000000) "></path>
                <path d="M285.782836,320.138096 C286.596591,320.738856 287.528143,320.938332 288.430638,320.705076 L288.560531,320.343626 L283.764511,316.8 C284.10683,318.241787 284.830477,319.438622 285.782836,320.138096 Z" id="Shape" fill="#000000" fill-rule="nonzero" opacity="0.05"></path>
                <path d="M289.537754,304.8 L294.955224,304.8 L294.955224,310.4 L289.531979,310.4 C288.85034,310.4 288.19662,310.163042 287.714629,309.741255 C287.232637,309.319467 286.961857,308.7474 286.961857,308.150903 L286.961857,307.054152 C286.961857,306.457654 287.232637,305.885587 287.714629,305.4638 C288.19662,305.042012 288.85034,304.805054 289.531979,304.805054 L289.537754,304.8 Z" id="Shape" fill="#CDEFFF" fill-rule="nonzero" transform="translate(290.958541, 307.600000) rotate(117.450000) translate(-290.958541, -307.600000) "></path>
                <path d="M289.95329,310.305899 C290.747945,310.939813 291.382945,311.964284 291.757877,313.217314 L291.63141,313.6 L286.961857,309.848177 C287.959924,309.399445 289.031811,309.563456 289.95329,310.305899 Z" id="Shape" fill="#000000" fill-rule="nonzero" opacity="0.05"></path>
                <ellipse id="Oval" fill="#CDEFFF" fill-rule="nonzero" transform="translate(287.761194, 314.400000) rotate(-62.550000) translate(-287.761194, -314.400000) " cx="287.761194" cy="314.4" rx="4.7960199" ry="4.8"></ellipse>
                <ellipse id="Oval" fill="#CDEFFF" fill-rule="nonzero" transform="translate(287.761194, 314.400000) rotate(-62.550000) translate(-287.761194, -314.400000) " cx="287.761194" cy="314.4" rx="4.7960199" ry="4.8"></ellipse>
                <path d="M283.451584,312.116614 C282.74008,313.602739 282.813357,315.38855 283.643757,316.8 C285.181582,316.723018 286.56525,315.761997 287.275045,314.277903 C287.984839,312.793809 287.913295,311.011338 287.087285,309.6 C285.548596,309.673061 284.16267,310.632392 283.451584,312.116614 Z" id="Shape" fill="#658BC8" fill-rule="nonzero"></path>
            </g>
        </g>
    </g>
</svg>