<?xml version="1.0" encoding="UTF-8"?>
<svg width="355px" height="264px" viewBox="0 0 355 264" version="1.1" xmlns="http://www.w3.org/2000/svg" xmlns:xlink="http://www.w3.org/1999/xlink">
    <!-- Generator: Sketch 51.2 (57519) - http://www.bohemiancoding.com/sketch -->
    <title>ilustracion</title>
    <desc>Created with Sketch.</desc>
    <defs>
        <linearGradient x1="50.0011437%" y1="99.9899263%" x2="50.0011437%" y2="-0.0315573264%" id="linearGradient-1">
            <stop stop-color="#808080" stop-opacity="0.25" offset="0%"></stop>
            <stop stop-color="#808080" stop-opacity="0.12" offset="54%"></stop>
            <stop stop-color="#808080" stop-opacity="0.1" offset="100%"></stop>
        </linearGradient>
        <linearGradient x1="49.9801635%" y1="100%" x2="49.9801635%" y2="-0.0021679488%" id="linearGradient-2">
            <stop stop-color="#808080" stop-opacity="0.25" offset="0%"></stop>
            <stop stop-color="#808080" stop-opacity="0.12" offset="54%"></stop>
            <stop stop-color="#808080" stop-opacity="0.1" offset="100%"></stop>
        </linearGradient>
        <linearGradient x1="50%" y1="83%" x2="50%" y2="0%" id="linearGradient-3">
            <stop stop-color="#808080" stop-opacity="0.25" offset="0%"></stop>
            <stop stop-color="#808080" stop-opacity="0.12" offset="54%"></stop>
            <stop stop-color="#808080" stop-opacity="0.1" offset="100%"></stop>
        </linearGradient>
        <linearGradient x1="50%" y1="103.875969%" x2="50%" y2="4.65116279%" id="linearGradient-4">
            <stop stop-color="#808080" stop-opacity="0.25" offset="0%"></stop>
            <stop stop-color="#808080" stop-opacity="0.12" offset="54%"></stop>
            <stop stop-color="#808080" stop-opacity="0.1" offset="100%"></stop>
        </linearGradient>
    </defs>
    <g id="04_Landing" stroke="none" stroke-width="1" fill="none" fill-rule="evenodd">
        <g id="Landing-0001" transform="translate(-92.000000, -2711.000000)">
            <g id="Section-4-¿Qué-son-los-flips?" transform="translate(92.000000, 2644.000000)">
                <g id="ilustracion" transform="translate(0.000000, 67.000000)">
                    <path d="M8.98011162,215.759528 C8.98011162,215.759528 17.2858398,214.430176 22.2692767,220.301484 C22.2692767,220.301484 18.6147563,223.181748 10.7520003,219.19369 L8.98011162,215.759528 Z" id="Shape" fill="#6C63FF" fill-rule="nonzero"></path>
                    <ellipse id="Oval" fill="rgb(53,114,241)" fill-rule="nonzero" opacity="0.1" cx="177.424234" cy="235.707733" rx="176.785446" ry="16.2687459"></ellipse>
                    <ellipse id="Oval" fill="rgb(53,114,241)" fill-rule="nonzero" cx="167.105355" cy="122.878916" rx="122.015102" ry="122.055158"></ellipse>
                    <path d="M107.149863,32.0160709 C107.149863,32.0160709 70.3950386,55.5250418 70.6956269,92.2800635 C70.9962151,129.035085 107.149863,32.0160709 107.149863,32.0160709 Z" id="Shape" fill="#000000" fill-rule="nonzero" opacity="0.05"></path>
                    <path d="M331.341241,233.191458 C330.708424,230.671227 329.173842,230.627706 329.173842,230.627706 L329.150111,230.374496 L328.584531,224.151068 C328.562938,224.182948 328.536208,224.211024 328.505429,224.234152 L328.473788,223.442871 C328.468636,223.293244 328.455434,223.144003 328.434237,222.995797 C329.337433,222.338721 330.004613,221.407693 330.336644,220.341048 C330.103292,220.044317 330.277317,220.103663 330.277317,220.103663 C330.277317,220.103663 326.436907,216.170995 326.820552,214.121576 C327.204198,212.072157 323.929368,209.8447 323.929368,209.8447 C323.929368,209.8447 322.742835,206.181067 322.742835,205.069317 C322.742835,203.957566 318.257742,196.657995 318.257742,196.657995 C318.257742,196.657995 314.302633,187.372308 310.830048,183.384249 C307.357463,179.396191 307.665961,177.224124 307.665961,177.224124 C307.362366,176.802665 307.103865,176.350473 306.894715,175.874989 C306.741742,175.54602 306.609643,175.207737 306.499204,174.862149 C307.211124,174.771151 307.685737,174.755326 307.685737,174.755326 C307.685737,174.755326 310.52946,174.268687 310.656023,173.683139 C310.813202,173.022601 311.14834,172.417785 311.625025,171.934407 C312.166875,171.352815 310.082532,160.274876 311.189963,157.410437 C312.297393,154.545998 309.770079,141.402814 309.770079,141.402814 C309.89324,140.597104 310.347901,139.879738 311.023848,139.42461 L312.700814,138.76389 L313.551163,138.558157 L313.665861,138.530462 L313.839886,138.486942 L314.235397,138.388032 L314.350095,138.35638 L314.595311,138.289121 L314.686279,138.265383 L315.08179,138.142734 L315.212308,138.099214 L315.398199,138.035911 L315.540582,137.980522 L315.730428,137.90535 L315.940048,137.80644 L316.062657,137.743137 L316.193175,137.667966 L316.296008,137.600707 C316.349874,137.563005 316.401387,137.522046 316.450257,137.478058 L316.52936,137.39893 C316.561743,137.366522 316.592122,137.332169 316.620327,137.296063 C316.639733,137.271233 316.656937,137.244756 316.671743,137.216935 L316.695474,137.185284 C316.835911,136.897628 316.803855,136.555581 316.612417,136.299049 C316.197529,135.706175 315.690077,135.183862 315.109476,134.752094 L314.195845,133.347569 C314.193662,133.338467 314.193662,133.328977 314.195845,133.319874 C314.195845,133.248659 314.223531,133.169531 314.243307,133.090403 C314.309283,132.794419 314.323999,132.489304 314.286813,132.188342 C314.288923,132.171262 314.288923,132.153988 314.286813,132.136908 C314.2993,132.042456 314.305905,131.947319 314.306589,131.852047 L314.306589,131.729399 C314.306589,131.638401 314.306589,131.547404 314.286813,131.456406 C314.267037,131.365409 314.286813,131.365409 314.286813,131.317932 C314.286813,131.270455 314.255172,131.14385 314.235397,131.056809 C314.215621,130.969768 314.211666,130.953943 314.195845,130.902509 C314.180025,130.851076 314.152339,130.740297 314.124654,130.657212 L314.065327,130.495 C314.037641,130.419828 314.006,130.3407 313.974359,130.265528 C313.942719,130.190356 313.926898,130.150792 313.899212,130.095402 C313.871527,130.040013 313.835931,129.952972 313.800335,129.881756 C313.764739,129.810541 313.741008,129.767021 313.713322,129.711631 C313.685636,129.656241 313.64213,129.577113 313.602579,129.509854 L313.507657,129.343685 L313.396914,129.16169 L313.290126,128.995521 L313.183338,128.833309 L313.07655,128.679009 C313.040954,128.631532 313.005358,128.580098 312.969762,128.536578 L312.866929,128.394147 L312.772006,128.271499 L312.673129,128.144894 L312.590071,128.042027 L312.503059,127.935204 L312.435822,127.860032 L312.36463,127.776948 L312.317169,127.721558 L312.265752,127.666168 L312.238067,127.634517 L312.210381,127.606822 L312.210381,127.559345 C312.210381,127.535607 312.210381,127.507912 312.210381,127.472305 L312.210381,127.43274 C312.210381,127.397133 312.210381,127.357569 312.210381,127.310092 L312.210381,127.266571 C312.210381,127.211182 312.210381,127.147879 312.18665,127.08062 L312.18665,127.056882 C312.13236,126.646079 312.099356,126.232741 312.087773,125.818526 C312.098811,125.38701 312.195615,124.962009 312.37254,124.568302 C312.481157,124.372596 312.470451,124.132405 312.344855,123.947146 C312.356416,123.918707 312.369622,123.890965 312.384406,123.864061 C312.657308,123.337859 312.139189,122.886829 311.490551,122.550534 C311.490551,121.585171 311.09504,119.626749 307.899313,119.274629 C307.899313,119.274629 306.028546,118.012535 307.836031,115.745514 C309.643515,113.478493 306.772107,107.6784 306.772107,107.6784 C306.772107,107.6784 305.858476,105.304556 306.34891,104.323367 C306.839343,103.342178 305.779374,94.6143437 305.779374,94.6143437 C305.779374,94.6143437 305.779374,86.5630553 303.999575,83.1407632 C302.219777,79.7184711 301.005558,73.5741709 298.952857,72.6641972 C296.900155,71.7542236 295.274606,69.5544613 295.274606,69.5544613 L294.317469,69.863061 C294.151355,69.6177638 293.98524,69.3724666 293.827036,69.1271693 C293.903944,69.1061125 293.979277,69.0796713 294.052477,69.0480412 C294.492928,68.8498921 294.85576,68.5119718 295.084761,68.0866343 C295.151039,67.9672832 295.207902,67.8429379 295.25483,67.714732 C295.416103,67.2493696 295.493766,66.759127 295.484226,66.266687 C295.449182,65.775878 295.463758,65.2827837 295.527733,64.7949036 C295.689892,64.0036222 296.235697,63.370597 296.714265,62.709877 C297.674169,61.3950587 298.285153,59.8582507 298.490109,58.2430934 C298.684327,56.6196155 298.283873,54.980731 297.362903,53.6299228 C296.8962,52.9731592 296.291069,52.3915674 295.998391,51.6517193 C295.863917,51.3114682 295.80459,50.9474788 295.701757,50.599315 C295.060765,48.6211496 293.309192,47.2107322 291.240395,47.0068973 C289.559474,46.8525975 287.902283,47.4935354 286.217407,47.4737534 C284.263583,47.4500149 282.262298,46.5558669 280.431083,47.236369 C279.611425,47.5905554 278.886568,48.1326821 278.3151,48.8189318 C277.8707,49.3093794 277.455993,49.8259517 277.073196,50.365887 C276.847755,50.6823995 276.634179,51.0028685 276.432468,51.3352067 L276.432468,51.3629015 C276.226803,51.6991961 276.036957,52.0434036 275.855022,52.3955238 C275.812481,52.475738 275.802562,52.5692906 275.827337,52.6566466 C275.877204,52.757589 275.961311,52.8375172 276.064643,52.8821619 C276.386443,52.9944733 276.684286,53.1662593 276.942677,53.388582 C277.041458,53.5018994 277.148542,53.6076964 277.263041,53.7050945 C277.207669,53.7723534 277.148343,53.835656 277.092971,53.9068713 C275.190998,56.3314991 274.510599,59.4969466 275.248212,62.4893147 C275.985824,65.4816828 278.059335,67.9678511 280.8701,69.2300359 L281.071811,69.6731535 C281.453069,70.5135974 281.771665,71.381098 282.024992,72.2685565 L281.162778,72.3476847 C281.141297,72.9056555 280.699633,73.356027 280.14236,73.3882197 C279.133807,73.4950427 275.926214,74.6819649 275.926214,74.6819649 C275.926214,74.6819649 271.104937,77.1388937 268.197932,77.9183058 C265.290927,78.697718 264.001562,78.0330417 264.001562,78.0330417 C264.001562,78.0330417 263.673288,80.145763 260.382637,78.9825794 C257.091987,77.8193957 256.656925,79.0458819 256.656925,79.0458819 C256.656925,79.0458819 247.38615,78.7926718 240.63478,79.6947326 C233.883409,80.5967934 230.940809,79.9637683 230.940809,79.9637683 C230.940809,79.9637683 230.909168,80.3198449 230.873572,80.8974804 L230.189338,80.5018397 C225.704245,78.104257 217.434113,74.3852343 216.25549,78.9192768 C214.610165,85.2218333 229.058177,87.9003209 229.058177,87.9003209 L230.126056,87.7855851 L230.82611,87.7104134 C230.960584,89.4591453 231.269083,90.875539 231.913765,91.0298389 C232.147117,91.089185 239.060647,91.0733594 240.879997,91.9239869 C242.699347,92.7746144 246.618859,91.5283462 246.618859,91.5283462 C246.618859,91.5283462 247.627412,91.3067874 249.150129,92.2088482 C250.672846,93.110909 258.946933,93.1148654 258.946933,93.1148654 C258.946933,93.1148654 259.536244,93.2414705 261.652227,93.8626264 C263.76821,94.4837823 267.501833,93.9457109 267.501833,93.9457109 L276.230758,95.0732869 C276.230758,95.0732869 276.85171,101.193849 276.167476,103.417349 C275.483242,105.64085 276.033002,116.580316 276.033002,116.580316 C276.033002,116.580316 278.010557,129.893626 277.468707,131.472232 C277.041555,132.694762 280.830549,131.333758 282.562887,130.657212 C282.653854,131.017245 282.768552,131.448494 282.899071,131.935132 C282.899071,131.978652 282.958397,132.006347 283.025634,132.022173 L283.168018,132.117126 C283.2313,132.378249 283.294582,132.631459 283.353908,132.868844 L282.88325,132.995449 L283.504202,133.410872 C283.573178,133.662011 283.656369,133.909026 283.753374,134.15072 C284.267538,135.337642 280.51414,137.509709 280.51414,137.509709 C280.51414,137.509709 270.147801,143.179241 267.03513,145.818164 C267.03513,145.818164 264.602738,146.609446 264.412893,147.365119 C264.223048,148.120793 262.039828,147.85967 262.039828,147.85967 C262.039828,147.85967 261.731329,148.678646 261.482158,149.501579 C261.232986,150.324512 259.900114,151.594518 259.900114,151.594518 C259.900114,151.594518 256.819084,152.0772 256.384022,153.715153 C256.074009,154.98228 255.837625,156.266306 255.676058,157.56078 L252.215338,163.85938 C252.215338,163.85938 242.778449,170.893872 241.789672,173.584229 L235.109493,178.062882 C235.109493,178.062882 234.009973,180.515854 232.060104,180.602895 C230.110236,180.689936 226.744438,184.163662 226.744438,184.163662 C226.744438,184.163662 227.733215,184.559302 229.18474,185.231891 C229.097728,185.366409 229.014671,185.500927 228.943479,185.627532 C228.675163,186.135162 228.476919,186.676852 228.354168,187.23779 C228.354168,187.23779 224.003548,189.88067 220.768269,188.772876 C218.941009,188.147763 215.337905,187.067664 212.731488,186.937103 C210.726248,186.838193 209.302409,187.301092 209.717696,188.96674 C210.42566,191.843048 217.564631,199.083273 221.084678,202.517434 C221.642358,203.060792 222.232774,203.569483 222.852611,204.040651 C223.672221,204.670533 224.544207,205.229105 225.459028,205.710255 C225.994146,205.991396 226.543307,206.244938 227.104353,206.469885 C227.707412,206.713637 228.327354,206.9133 228.959299,207.067302 C230.201203,207.35612 231.332364,207.344251 231.969137,206.671661 C234.009973,204.582678 233.155669,203.110895 233.155669,203.110895 L233.385066,202.94077 L239.00923,198.731152 L240.282775,197.64314 L240.63478,197.342454 C240.443318,198.887752 239.778828,200.336015 238.732373,201.488768 C240.134227,200.672881 241.607703,199.986887 243.134409,199.439349 C245.111963,198.82215 246.330136,195.087301 246.330136,195.087301 C246.330136,195.087301 247.409881,193.98742 249.328109,192.01713 C251.246336,190.046839 251.602296,185.00242 251.602296,185.00242 C251.602296,185.00242 261.446562,178.735471 265.445176,171.507115 C265.445176,171.507115 266.168961,170.518014 267.422731,169.066012 C268.6765,167.614011 268.720006,165.204559 268.720006,165.204559 C268.720006,165.204559 268.905896,164.504275 270.586818,162.708066 C272.267739,160.911857 272.050208,159.788238 272.050208,159.788238 C272.050208,159.788238 272.84123,158.6844 275.78383,158.905959 C278.726431,159.127518 285.639961,155.637967 285.639961,155.637967 C285.639961,155.637967 285.639961,155.958435 285.703243,156.512332 C285.102066,157.897075 284.706555,158.858482 284.706555,158.858482 C284.706555,158.858482 290.734141,182.925306 288.31757,186.707631 C287.0638,188.685835 290.520565,187.1824 294.143445,185.295194 C294.329335,185.520709 294.538956,185.758094 294.768352,186.011304 C295.626416,186.936889 296.540445,187.808937 297.505287,188.622532 L297.62394,188.725399 C297.62394,188.725399 304.964622,200.056549 306.127424,201.385902 C307.290226,202.715254 306.522935,206.624185 306.522935,206.624185 C306.522935,206.624185 308.571681,220.285658 311.371898,222.679284 C311.955184,223.121776 312.60725,223.465293 313.301991,223.696081 C313.25453,225.397336 314.793067,226.793948 314.793067,226.793948 C314.793067,226.793948 314.761426,231.320078 312.396271,233.234979 C311.059444,234.32299 308.54004,236.530666 307.215079,238.433697 C306.198616,239.901524 305.882207,241.203182 307.345597,241.662126 C309.872912,242.481102 318.748176,240.502898 323.023648,239.462363 C325.128888,238.962977 327.11435,238.051274 328.865343,236.779919 C330.344554,235.691907 331.633919,234.374424 331.341241,233.191458 Z M233.978332,187.914335 C234.223549,188.076548 234.46481,188.242717 234.706072,188.412843 L234.310561,188.729355 L234.148402,188.85596 C234.148402,188.772876 234.124671,188.681878 234.108851,188.590881 C234.065344,188.373279 234.025793,188.147763 233.978332,187.914335 Z" id="Shape" fill="url(#linearGradient-1)" fill-rule="nonzero"></path>
                    <path d="M235.097628,88.3236565 L230.64022,88.7944689 L229.588161,88.9092047 C229.588161,88.9092047 215.34977,86.2544556 216.971365,80.0270708 C218.134167,75.5207232 226.289601,79.2080946 230.715367,81.6096337 C232.408154,82.5235637 233.55118,83.2436298 233.55118,83.2436298 L235.097628,88.3236565 Z" id="Shape" fill="#D17483" fill-rule="nonzero"></path>
                    <polygon id="Shape" fill="#DCE6F2" fill-rule="nonzero" points="245.570755 193.595736 240.690151 197.793484 239.432427 198.873583 236.505646 199.759818 229.255932 193.358352 234.64279 189.061694 234.800995 188.931132 239.159524 185.457407"></polygon>
                    <path d="M323.10275,219.181821 L316.212951,219.50229 L318.103493,227.92548 L320.686179,228.815672 L327.880521,228.214298 L327.686721,223.379569 C327.638523,222.213705 327.127654,221.115173 326.267257,220.327269 C325.40686,219.539365 324.267944,219.127115 323.10275,219.181821 Z" id="Shape" fill="#DCE6F2" fill-rule="nonzero"></path>
                    <path d="M234.595329,188.816396 C232.975151,187.712948 231.273513,186.734218 229.505104,185.888655 C229.957729,184.905241 230.829574,184.178465 231.878169,183.910451 C233.436482,183.58207 234.231459,186.600808 234.595329,188.816396 Z" id="Shape" fill="#000000" fill-rule="nonzero" opacity="0.1"></path>
                    <path d="M240.686196,197.793484 C240.982829,194.276238 238.032318,191.210023 234.800995,188.935088 L239.151614,185.457407 L245.55889,193.595736 L240.686196,197.793484 Z" id="Shape" fill="#000000" fill-rule="nonzero" opacity="0.1"></path>
                    <path d="M329.517936,220.301484 C327.496876,226.975943 313.594669,224.970044 310.834003,222.5962 C308.073337,220.222356 306.048322,206.667705 306.048322,206.667705 C306.048322,206.667705 306.807703,202.770644 305.652811,201.468986 C304.497919,200.167328 297.26798,188.927176 297.26798,188.927176 C297.26798,188.927176 297.188878,188.859917 297.149327,188.828265 C296.196619,188.020669 295.294469,187.15522 294.447988,186.236819 C292.221262,183.795716 292.173801,182.616706 292.173801,182.616706 C292.173801,182.616706 291.382779,177.995623 288.657709,171.720761 C286.680155,167.091765 285.861447,160.801078 285.580634,157.81399 C285.481757,156.749717 285.446161,156.104823 285.446161,156.104823 C285.446161,156.104823 278.635464,159.562722 275.724504,159.34512 C272.813544,159.127518 272.038342,160.223442 272.038342,160.223442 C272.038342,160.223442 272.255873,161.335193 270.598683,163.119532 C268.941492,164.903872 268.755602,165.596243 268.755602,165.596243 C268.755602,165.596243 268.720006,167.989869 267.474147,169.426045 C266.228288,170.862221 265.516368,171.847366 265.516368,171.847366 C261.56126,179.020332 251.855423,185.235848 251.855423,185.235848 C251.855423,185.235848 251.495508,190.244659 249.597056,192.199124 C247.698604,194.153589 246.638635,195.245558 246.638635,195.245558 C246.638635,195.245558 245.420461,198.960624 243.474548,199.573867 C241.964536,200.115545 240.508075,200.796333 239.123928,201.60746 C247.133023,191.989435 227.310019,184.408959 227.310019,184.408959 C227.310019,184.408959 230.6244,180.958972 232.550538,180.871931 C234.476676,180.78489 235.560375,178.3517 235.560375,178.3517 L242.149586,173.900742 C243.122543,171.230167 252.432869,164.255021 252.432869,164.255021 L255.846128,158.007854 C256.006692,156.73468 256.24043,155.471814 256.546182,154.225529 C256.973334,152.603402 260.014812,152.120721 260.014812,152.120721 C260.014812,152.120721 261.316043,150.85467 261.557305,150.043607 C261.798566,149.232543 262.107065,148.417524 262.107065,148.417524 C262.107065,148.417524 264.258644,148.686559 264.444534,147.926929 C264.630424,147.167299 267.031175,146.391843 267.031175,146.391843 C270.104294,143.75292 280.32825,138.130865 280.32825,138.130865 C280.32825,138.130865 284.030232,135.970667 283.523978,134.795614 C283.426171,134.556911 283.342961,134.312482 283.274806,134.063679 C283.274806,134.03994 283.274806,134.020158 283.274806,134.000376 C283.229982,133.850033 283.186475,133.691776 283.144288,133.525607 C282.677585,131.717529 282.163421,128.944088 282.163421,128.944088 C282.163421,128.944088 300.15521,118.479391 306.060187,121.13414 C307.784614,121.90564 308.789212,123.852192 309.315241,126.336816 C310.15768,130.313005 309.774034,135.662067 309.129351,139.768818 C308.880567,141.459169 308.519859,143.131132 308.049607,144.773673 C306.641588,149.303759 306.368685,156.001956 306.368685,156.001956 C306.368685,156.001956 306.182795,168.769282 305.727958,171.910669 C305.541744,173.372522 305.774936,174.857206 306.400326,176.191501 C306.607423,176.662682 306.863263,177.11088 307.163662,177.528767 C307.163662,177.528767 306.839343,179.681052 310.280288,183.641416 C313.721232,187.601779 317.605149,196.804382 317.605149,196.804382 C317.605149,196.804382 322.046736,204.040651 322.030916,205.152401 C322.015095,206.264151 323.185807,209.90009 323.185807,209.90009 C323.185807,209.90009 326.417131,212.099852 326.037441,214.137402 C325.65775,216.174951 329.446744,220.072012 329.446744,220.072012 C329.446744,220.072012 329.28854,220.004753 329.517936,220.301484 Z" id="Shape" fill="#BDD2E8" fill-rule="nonzero"></path>
                    <path d="M283.508158,138.05965 C283.508158,138.05965 287.384164,139.923118 287.700573,142.146618 C288.016981,144.370119 283.508158,138.05965 283.508158,138.05965 Z" id="Shape" fill="#000000" fill-rule="nonzero" opacity="0.1"></path>
                    <polygon id="Shape" fill="#000000" fill-rule="nonzero" opacity="0.1" points="268.692321 150.846758 270.812259 153.327425 269.712739 148.821077 267.38318 148.670734"></polygon>
                    <path d="M266.236198,156.116692 C266.465594,156.29473 269.064101,162.106692 269.7602,162.173951 C270.456299,162.24121 266.236198,156.116692 266.236198,156.116692 Z" id="Shape" fill="#000000" fill-rule="nonzero" opacity="0.1"></path>
                    <path d="M309.145172,139.756948 C308.896387,141.4473 308.535679,143.119262 308.065427,144.761803 C306.657408,149.29189 306.384506,155.990087 306.384506,155.990087 C306.384506,155.990087 306.198616,168.757412 305.743778,171.8988 C305.557564,173.360653 305.790756,174.845337 306.416147,176.179632 C305.229614,176.294368 303.026619,176.638575 301.523677,177.607895 C299.407694,178.976812 300.633778,182.727486 300.633778,182.727486 C300.633778,182.727486 297.584389,184.563259 294.459853,186.22495 C292.233127,183.783846 292.185666,182.604837 292.185666,182.604837 C292.185666,182.604837 291.394644,177.983754 288.669574,171.708892 C286.69202,167.079896 285.873313,160.789209 285.5925,157.802121 C286.779032,155.032636 288.736811,150.767629 290.053862,148.9279 C291.450016,146.977391 289.784915,141.074432 288.622113,137.620489 L288.301749,137.402886 L284.477159,134.835178 L283.314357,134.043897 L282.70527,133.648256 L283.168018,133.521651 L309.346882,126.336816 C310.1735,130.313005 309.789854,135.662067 309.145172,139.756948 Z" id="Shape" fill="#000000" fill-rule="nonzero" opacity="0.1"></path>
                    <path d="M282.713181,132.603764 L284.485069,133.790687 L288.305704,136.358395 L288.630023,136.575997 C289.792825,140.029941 291.457926,145.9329 290.057817,147.883409 C288.036757,150.71224 284.520665,159.293687 284.520665,159.293687 C284.520665,159.293687 290.453328,183.166647 288.080263,186.921277 C285.707198,190.675908 300.645643,181.694864 300.645643,181.694864 C300.645643,181.694864 299.423515,177.94419 301.539498,176.575273 C303.655481,175.206356 307.215079,175.083707 307.215079,175.083707 C307.215079,175.083707 310.019251,174.601026 310.145814,174.019434 C310.298672,173.36443 310.629974,172.764604 311.102951,172.286527 C311.632935,171.708892 309.580234,160.717993 310.671844,157.877293 C311.763454,155.036593 309.26778,141.996275 309.26778,141.996275 C309.385756,141.191705 309.836441,140.473818 310.509684,140.018071 C310.822315,139.802564 311.166575,139.637051 311.530102,139.527477 L311.755543,139.464174 C311.890017,139.42461 312.032401,139.389003 312.151054,139.361308 C313.851751,138.937972 315.710652,138.570026 316.106163,137.778745 L315.710652,137.177371 L313.62631,133.956856 C313.583543,133.642148 313.603709,133.322077 313.685636,133.015231 C313.685636,132.951928 313.709367,132.884669 313.717277,132.821367 C314.021821,130.767992 311.656666,128.275455 311.656666,128.275455 C311.551712,127.690026 311.490895,127.097534 311.474731,126.502985 L311.474731,126.483203 C311.425947,125.855003 311.512259,125.223638 311.727858,124.631604 L282.713181,132.603764 Z" id="Shape" fill="#653C5B" fill-rule="nonzero"></path>
                    <path d="M289.377539,137.153633 C289.171873,137.110112 302.136719,137.573012 306.143244,142.692603 C306.143244,142.704472 306.285628,140.841004 289.377539,137.153633 Z" id="Shape" fill="#000000" fill-rule="nonzero" opacity="0.1"></path>
                    <path d="M299.597539,145.691559 C299.597539,145.691559 302.184181,164.286672 301.61069,167.52697 C301.037199,170.767267 304.624483,168.678284 304.624483,168.678284 C304.624483,168.678284 308.282958,141.687675 299.597539,145.691559 Z" id="Shape" fill="#000000" fill-rule="nonzero" opacity="0.1"></path>
                    <path d="M316.133849,137.778745 C316.106145,137.714828 316.074442,137.652721 316.038926,137.592794 C315.164847,136.128923 313.361318,135.82428 313.665861,133.956856 C313.665861,133.881684 313.693547,133.798599 313.713322,133.715515 C313.779328,133.422214 313.794048,133.119693 313.756828,132.821367 C313.547208,130.938117 311.684351,128.975739 311.684351,128.975739 C311.539663,128.159914 311.482648,127.330945 311.514282,126.502985 C311.524906,126.075661 311.62036,125.654715 311.795095,125.264629 C311.904198,125.07182 311.893442,124.833574 311.767409,124.651386 C311.284886,123.83241 309.145172,123.302251 309.145172,123.302251 L294.649699,125.600924 C292.937137,126.186472 291.303677,126.787846 289.812601,127.361525 C285.339373,129.070693 282.167376,130.491043 282.167376,130.491043 L282.274164,130.914379 C282.369086,131.310019 282.527291,131.923262 282.721091,132.631459 C282.784373,132.876757 283.982771,132.587939 284.057918,132.849062 L284.50089,133.822338 L287.700573,134.708573 C287.700573,134.708573 287.96161,135.36138 288.321525,136.390046 C288.321525,136.449392 288.365031,136.512695 288.384806,136.575997 L288.645844,136.611605 C294.693205,137.355409 303.070125,138.538375 310.517594,140.045766 L316.133849,137.778745 Z" id="Shape" fill="#000000" fill-rule="nonzero" opacity="0.1"></path>
                    <path d="M311.755543,139.464174 L311.530102,139.527477 C303.734583,137.897437 294.720891,136.62743 288.384806,135.851975 C287.989296,134.716486 287.704528,133.988507 287.704528,133.988507 L282.934667,132.667067 L282.804148,132.208124 C282.574752,131.381235 282.384907,130.625561 282.274164,130.190356 L282.167376,129.767021 C282.167376,129.767021 285.331463,128.34667 289.812601,126.641459 C291.303677,126.06778 292.941092,125.454537 294.653654,124.876901 L309.145172,122.582185 C309.673911,122.718319 310.189974,122.899662 310.687664,123.124213 C311.427269,123.468421 312.099638,123.959015 311.795095,124.544563 C311.197873,125.699834 311.688307,128.271499 311.688307,128.271499 C311.688307,128.271499 314.211666,130.930204 313.717277,133.019187 C313.222889,135.10817 315.137161,135.373249 316.046836,136.900423 C316.956511,138.427596 314.093013,138.854888 311.755543,139.464174 Z" id="Shape" fill="#653C5B" fill-rule="nonzero"></path>
                    <path d="M298.446603,76.7669914 C298.446603,76.7669914 279.42253,78.2941645 281.60575,76.5770838 C282.69736,75.7185435 281.94589,73.1627045 280.917561,70.824468 C280.23574,69.3011034 279.463104,67.8200615 278.603823,66.3893356 C278.603823,66.3893356 293.0637,62.2113697 291.513297,64.585214 C291.054505,65.285498 291.469791,66.6346329 292.304319,68.1895008 C294.238367,71.9006107 298.446603,76.7669914 298.446603,76.7669914 Z" id="Shape" fill="#D17483" fill-rule="nonzero"></path>
                    <path d="M292.292454,68.2013701 C291.896943,68.6721825 290.87257,68.1103727 290.378181,68.4981006 C288.649799,69.8511918 287.012384,71.6434442 284.651184,71.6078366 C283.367185,71.5882176 282.099197,71.3194881 280.917561,70.8165551 C280.23574,69.2931906 279.463104,67.8121487 278.603823,66.3814228 C278.603823,66.3814228 293.0637,62.2113697 291.513297,64.585214 C291.054505,65.2973673 291.469791,66.6465021 292.292454,68.2013701 Z" id="Shape" fill="#000000" fill-rule="nonzero" opacity="0.1"></path>
                    <path d="M294.764397,61.4200883 C294.706377,65.4523879 292.22577,69.0526431 288.47936,70.5419412 C284.732951,72.0312394 280.458596,71.1162628 277.649562,68.2236941 C274.840528,65.3311253 274.050055,61.0306565 275.646765,57.3277319 C277.243475,53.6248073 280.912897,51.248719 284.943862,51.3075118 C287.589676,51.3365987 290.114498,52.4206504 291.958186,54.3191652 C293.801873,56.21768 294.811975,58.773674 294.764397,61.4200883 Z" id="Shape" fill="#D17483" fill-rule="nonzero"></path>
                    <path d="M310.861689,124.817555 C309.294788,124.837418 307.730994,124.672754 306.202571,124.326961 C303.762269,123.765151 301.693747,125.953044 301.693747,125.953044 C301.693747,125.953044 296.947617,127.808599 294.792082,127.428784 C292.636548,127.048969 283.183839,132.037998 283.183839,132.037998 L282.788328,132.192298 C282.558931,131.365409 282.369086,130.609735 282.258343,130.174531 L282.151555,129.751195 C282.151555,129.751195 285.315642,128.330845 289.79678,126.625633 C291.287856,126.051954 292.925271,125.438711 294.637833,124.861076 L309.129351,122.56636 C309.65809,122.702493 310.174154,122.883836 310.671844,123.108388 C310.885406,123.651218 310.950923,124.24107 310.861689,124.817555 Z" id="Shape" fill="#000000" fill-rule="nonzero" opacity="0.1"></path>
                    <path d="M235.097628,88.3236565 L230.64022,88.7944689 C230.509935,86.3938214 230.535037,83.9872571 230.715367,81.5898516 C232.408154,82.5037817 233.55118,83.2238477 233.55118,83.2238477 L235.097628,88.3236565 Z" id="Shape" fill="#000000" fill-rule="nonzero" opacity="0.1"></path>
                    <path d="M294.922601,70.650386 C294.922601,70.650386 292.110519,71.5405776 290.528475,72.1617335 C288.946432,72.7828895 281.008529,73.4792171 281.008529,73.4792171 C280.991231,74.0322932 280.556024,74.4813546 280.003931,74.5157958 C279.011199,74.6147059 275.847112,75.7937152 275.847112,75.7937152 C275.847112,75.7937152 271.100982,78.230862 268.221663,79.0063178 C265.342344,79.7817736 264.080664,79.1210536 264.080664,79.1210536 C264.080664,79.1210536 263.7603,81.2139929 260.521066,80.0587221 C257.281832,78.9034512 256.84677,80.1220246 256.84677,80.1220246 C256.84677,80.1220246 247.698604,79.8727709 241.026336,80.7669189 C234.354067,81.6610669 231.462883,81.0359546 231.462883,81.0359546 C231.462883,81.0359546 230.596714,91.5283462 232.412109,92.0110279 C232.641505,92.0743304 239.464068,92.0545483 241.255732,92.8972631 C243.047396,93.7399778 246.915492,92.5016223 246.915492,92.5016223 C246.915492,92.5016223 247.91218,92.28402 249.415121,93.1821244 C250.918062,94.0802288 259.077451,94.0802288 259.077451,94.0802288 C259.077451,94.0802288 259.658852,94.2028774 261.74715,94.8200769 C263.835447,95.4372764 267.513698,94.9031614 267.513698,94.9031614 L276.12397,96.0307375 C276.12397,96.0307375 276.737012,102.103822 276.064643,104.307541 C275.392275,106.51126 275.930169,117.363684 275.930169,117.363684 C275.930169,117.363684 277.907724,130.570171 277.350053,132.136908 C276.792383,133.703646 283.191749,130.997463 283.191749,130.997463 C283.191749,130.997463 292.652369,126.004477 294.799993,126.384293 C296.947617,126.764108 301.701657,124.912509 301.701657,124.912509 C301.701657,124.912509 303.774134,122.724616 306.214436,123.286426 C307.741942,123.628195 309.304573,123.787564 310.869599,123.761195 C310.869599,123.761195 311.557788,120.449682 307.369328,119.97887 C307.369328,119.97887 305.522292,118.728645 307.302091,116.481406 C309.08189,114.234166 306.261898,108.501333 306.261898,108.501333 C306.261898,108.501333 305.364088,106.155183 305.842656,105.170038 C306.321224,104.184892 305.284986,95.5440994 305.284986,95.5440994 C305.284986,95.5440994 305.284986,87.5561135 303.528917,84.1456906 C301.772849,80.7352677 300.574451,74.6503136 298.549436,73.7561656 C296.52442,72.8620176 294.922601,70.650386 294.922601,70.650386 Z" id="Shape" fill="#DCE6F2" fill-rule="nonzero"></path>
                    <path d="M284.33082,97.4233927 C284.33082,97.4233927 296.666804,102.910929 299.981185,107.334192 C303.295566,111.757456 284.33082,97.4233927 284.33082,97.4233927 Z" id="Shape" fill="#000000" fill-rule="nonzero" opacity="0.1"></path>
                    <path d="M289.207469,106.831729 C289.207469,106.831729 304.118229,115.504173 303.097811,117.703935 C302.077393,119.903698 289.207469,106.831729 289.207469,106.831729 Z" id="Shape" fill="#000000" fill-rule="nonzero" opacity="0.1"></path>
                    <path d="M291.643816,115.555606 C291.643816,115.555606 297.034629,117.735587 298.007586,118.973942 C298.980543,120.212298 291.643816,115.555606 291.643816,115.555606 Z" id="Shape" fill="#000000" fill-rule="nonzero" opacity="0.1"></path>
                    <path d="M266.956028,81.7283259 C266.956028,81.7283259 278.350696,87.8409748 276.392917,90.321642 C274.435138,92.8023093 266.956028,81.7283259 266.956028,81.7283259 Z" id="Shape" fill="#000000" fill-rule="nonzero" opacity="0.1"></path>
                    <path d="M262.407653,86.0368532 C262.407653,86.0368532 264.266554,90.388901 264.314015,91.1366619 C264.361477,91.8844228 260.880981,86.6540527 262.407653,86.0368532 Z" id="Shape" fill="#000000" fill-rule="nonzero" opacity="0.1"></path>
                    <path d="M254.766383,87.2079497 C254.766383,87.4413777 260.699046,91.0812722 258.250834,92.0387227 C255.802621,92.9961732 254.766383,87.2079497 254.766383,87.2079497 Z" id="Shape" fill="#000000" fill-rule="nonzero" opacity="0.1"></path>
                    <path d="M259.279162,160.563693 C259.453187,160.797121 260.070184,163.079968 261.968636,164.100721 C263.867088,165.121474 259.279162,160.563693 259.279162,160.563693 Z" id="Shape" fill="#000000" fill-rule="nonzero" opacity="0.1"></path>
                    <path d="M241.485128,177.853192 C241.457442,179.776006 241.133124,185.896568 242.699347,186.557288 C244.26557,187.218008 241.485128,177.853192 241.485128,177.853192 Z" id="Shape" fill="#000000" fill-rule="nonzero" opacity="0.1"></path>
                    <path d="M245.835748,183.277426 C245.835748,183.277426 249.419076,189.334686 248.181127,190.367308 C246.943178,191.39993 245.519339,188.927176 245.519339,188.927176 L245.835748,183.277426 Z" id="Shape" fill="#000000" fill-rule="nonzero" opacity="0.1"></path>
                    <path d="M309.643515,196.456218 C311.099826,196.738024 312.582775,196.857626 314.065327,196.812844 C316.466078,196.729631 309.643515,196.456218 309.643515,196.456218 Z" id="Shape" fill="#000000" fill-rule="nonzero" opacity="0.1"></path>
                    <path d="M307.764839,193.512651 C307.764839,193.512651 312.182695,194.335584 313.768694,193.484957 C315.354692,192.634329 307.764839,193.512651 307.764839,193.512651 Z" id="Shape" fill="#000000" fill-rule="nonzero" opacity="0.1"></path>
                    <path d="M306.024591,188.816396 C306.024591,188.816396 310.446402,189.172473 311.344212,187.669038 C312.242022,186.165604 306.024591,188.816396 306.024591,188.816396 Z" id="Shape" fill="#000000" fill-rule="nonzero" opacity="0.1"></path>
                    <path d="M304.778732,186.355511 C304.778732,186.355511 309.022563,187.059752 309.734483,186.078563 C310.446402,185.097374 304.778732,186.355511 304.778732,186.355511 Z" id="Shape" fill="#000000" fill-rule="nonzero" opacity="0.1"></path>
                    <path d="M300.645643,177.433813 C300.645643,177.433813 305.217749,179.597968 305.724003,180.832367 C306.230257,182.066766 300.645643,177.433813 300.645643,177.433813 Z" id="Shape" fill="#000000" fill-rule="nonzero" opacity="0.1"></path>
                    <path d="M294.764397,61.4200883 C294.724816,64.4395043 293.314534,67.2770087 290.931896,69.1311257 C290.904211,69.0796924 290.88048,69.0282591 290.856749,68.9768259 C290.421687,68.0470702 290.310944,66.9986223 289.907523,66.0728231 C289.789551,65.7198379 289.536342,65.4281257 289.203514,65.2617596 C288.562786,65.012506 287.926014,65.5980542 287.502817,66.1242563 C287.079621,66.6504585 286.450758,67.2439196 285.806076,67.0104915 C285.448653,66.8391299 285.166996,66.5418836 285.015054,66.1756896 C284.354551,64.9887675 283.670317,63.7345865 283.626811,62.3814952 C283.67424,61.7152358 283.682164,61.0467504 283.650541,60.3795533 C283.480472,59.2163696 282.606393,58.239137 281.601795,57.5823735 C280.552915,56.9783406 279.462523,56.4494925 278.338831,55.9998106 C277.830315,55.7854143 277.362151,55.4856912 276.954543,55.1135754 C279.597337,51.7545662 284.086594,50.4545325 288.114521,51.8817823 C292.142448,53.309032 294.81268,57.1459482 294.752531,61.4200883 L294.764397,61.4200883 Z" id="Shape" fill="#000000" fill-rule="nonzero" opacity="0.1"></path>
                    <path d="M275.728459,53.6338792 C275.487197,54.195689 276.404782,54.1442557 276.804248,54.6190246 C277.237292,55.0723348 277.761731,55.428369 278.342786,55.663516 C279.465385,56.1156707 280.555606,56.6444365 281.60575,57.2460789 C282.614303,57.9067988 283.484427,58.880075 283.654497,60.0472151 C283.685457,60.7130526 283.678855,61.3801069 283.634721,62.0452006 C283.678227,63.4022483 284.358506,64.6485165 285.019009,65.8433514 C285.174633,66.2071388 285.455208,66.5032426 285.810031,66.6781533 C286.458669,66.9076249 287.079621,66.3181203 287.506772,65.7919182 C287.933924,65.265716 288.570697,64.6801678 289.211424,64.925465 C289.542484,65.0929985 289.794063,65.3844706 289.911478,65.7365285 C290.306989,66.6741969 290.425643,67.714732 290.860704,68.6444877 C291.295766,69.5742433 292.229172,70.4130016 293.273321,70.2745274 C293.906357,70.1611988 294.451174,69.7608531 294.748576,69.1904718 C295.031283,68.6338186 295.16741,68.0142412 295.144087,67.3903066 C295.108977,66.9034536 295.123554,66.4142887 295.187593,65.9303924 C295.349753,65.139111 295.883692,64.5139987 296.342485,63.8611915 C297.285541,62.5579199 297.885381,61.0381006 298.086688,59.4418848 C298.276468,57.8333592 297.882035,56.2101765 296.975302,54.8682782 C296.51651,54.215471 295.915333,53.6378356 295.62661,52.8900747 C295.496092,52.5537801 295.436765,52.193747 295.333932,51.8455832 C294.706226,49.8877591 292.977104,48.4890886 290.931896,48.2848168 C289.278661,48.130517 287.641246,48.7674985 285.9801,48.7477165 C284.053963,48.7279344 282.064543,47.8377428 280.268924,48.5142884 C279.458656,48.8692395 278.744266,49.4116492 278.184581,50.0968513 C277.212828,51.1679174 276.390599,52.3657307 275.740324,53.6576176" id="Shape" fill="#653C5B" fill-rule="nonzero"></path>
                    <path d="M233.883409,203.059462 L233.654013,203.229587 C233.654013,203.229587 234.508317,204.701371 232.495166,206.790354 C231.549895,207.759673 229.552565,207.316556 227.697619,206.576708 C225.48152,205.672824 223.46547,204.34045 221.764957,202.655908 C218.296326,199.249442 211.252278,192.068563 210.552224,189.204124 C210.156713,187.550346 211.548911,187.091403 213.526465,187.190313 C216.097286,187.320874 219.648973,188.377235 221.436683,189.014217 C224.6245,190.110141 228.915793,187.491 228.915793,187.491 C229.039612,186.940326 229.235079,186.40827 229.497194,185.908437 C229.949819,184.925023 230.821663,184.198247 231.870259,183.930234 C233.412751,183.617677 234.207728,186.636416 234.575553,188.832222 C234.575553,188.919263 234.603239,189.01026 234.61906,189.097301 C234.793084,190.193226 234.860321,191.028028 234.860321,191.028028 C237.601212,190.83812 238.767969,194.818266 238.62163,196.855815 C238.475291,198.893365 239.412651,198.909191 239.412651,198.909191 L233.883409,203.059462 Z" id="Shape" fill="#FFD6DB" fill-rule="nonzero"></path>
                    <path d="M233.654013,203.217718 C233.654013,203.217718 234.508317,204.689501 232.495166,206.778484 C231.549895,207.747804 229.552565,207.308643 227.697619,206.564838 C225.480789,205.662342 223.464481,204.329798 221.764957,202.644039 C218.292371,199.237573 211.252278,192.056694 210.552224,189.192255 C210.156713,187.538477 211.548911,187.079534 213.526465,187.178444 C213.696535,188.848048 214.123687,191.134851 215.167835,192.349468 C216.947634,194.414712 222.029949,201.370076 228.385808,201.449204 C230.336879,201.421759 232.252451,201.972392 233.89132,203.031767 L233.654013,203.217718 Z" id="Shape" fill="#C8A9B4" fill-rule="nonzero"></path>
                    <path d="M222.152557,196.638213 C222.152557,196.638213 228.282976,191.945914 233.436482,194.062592 C233.436482,194.062592 228.896017,193.702559 222.152557,196.638213 Z" id="Shape" fill="#000000" fill-rule="nonzero" opacity="0.1"></path>
                    <path d="M229.101683,195.514593 C229.101683,195.514593 234.963154,197.350366 236.129911,197.366192 C237.296668,197.382018 230.102326,195.063563 229.101683,195.514593 Z" id="Shape" fill="#000000" fill-rule="nonzero" opacity="0.1"></path>
                    <path d="M314.698144,209.579621 C314.698144,209.579621 321.734283,209.726008 321.959724,211.324396 C322.185165,212.922785 319.333532,212.827831 319.333532,212.827831 L314.698144,209.579621 Z" id="Shape" fill="#000000" fill-rule="nonzero" opacity="0.1"></path>
                    <path d="M328.351179,230.243935 L328.37491,230.497145 C328.37491,230.497145 329.889717,230.544622 330.510669,233.041115 C330.803347,234.228037 329.529802,235.521782 328.090142,236.601881 C326.363971,237.861514 324.405387,238.766497 322.327549,239.264543 C318.111403,240.293209 309.354793,242.255587 306.863074,241.44848 C305.419459,240.977667 305.731913,239.699748 306.736511,238.24379 C308.041696,236.352627 310.525505,234.164734 311.846511,233.100461 C314.17607,231.201385 314.219576,226.710863 314.219576,226.710863 C314.219576,226.710863 312.151054,224.827614 312.90648,222.782151 C313.661906,220.736689 319.689491,223.850381 319.689491,223.850381 C320.836473,221.68227 324.400026,222.663459 325.875281,223.739602 C327.350537,224.815744 327.801419,224.111504 327.801419,224.111504 L328.351179,230.243935 Z" id="Shape" fill="#FFD6DB" fill-rule="nonzero"></path>
                    <path d="M328.37491,230.497145 C328.37491,230.497145 329.889717,230.544622 330.510669,233.041115 C330.803347,234.228037 329.529802,235.521782 328.090142,236.601881 C326.363971,237.861514 324.405387,238.766497 322.327549,239.264543 C318.111403,240.293209 309.354793,242.255587 306.863074,241.44848 C305.419459,240.977667 305.731913,239.699748 306.736511,238.24379 C308.081248,238.896597 310.011341,239.648314 311.427269,239.430712 C313.82802,239.035071 321.493021,238.465349 324.55032,233.689965 C325.451935,232.198054 326.77429,231.00603 328.351179,230.263717 L328.37491,230.497145 Z" id="Shape" fill="#C8A9B4" fill-rule="nonzero"></path>
                    <path d="M317.972974,236.131069 C317.972974,236.131069 317.300606,229.274615 321.330861,226.354787 C321.330861,226.354787 318.9222,229.634648 317.972974,236.131069 Z" id="Shape" fill="#000000" fill-rule="nonzero" opacity="0.1"></path>
                    <path d="M320.393501,230.327019 C320.393501,230.327019 324.538455,226.766253 325.10008,225.868149 C325.661705,224.970044 320.520064,229.3577 320.393501,230.327019 Z" id="Shape" fill="#000000" fill-rule="nonzero" opacity="0.1"></path>
                    <path d="M311.217649,128.318976 C311.217649,128.318976 305.874297,131.088461 301.986425,129.992536 C298.098553,128.896611 311.217649,128.318976 311.217649,128.318976 Z" id="Shape" fill="#000000" fill-rule="nonzero" opacity="0.1"></path>
                    <path d="M313.120056,133.88564 C313.120056,133.88564 312.281573,135.389075 307.041054,135.021129 C301.800535,134.653183 313.120056,133.88564 313.120056,133.88564 Z" id="Shape" fill="#000000" fill-rule="nonzero" opacity="0.1"></path>
                    <g id="Group" opacity="0.1" transform="translate(275.578165, 51.540940)" fill="#000000" fill-rule="nonzero">
                        <path d="M20.5349241,12.6486334 L20.7564102,12.3400337 C20.9185696,12.1066057 21.0728188,11.8652648 21.2152028,11.6199676 C20.9667113,11.947969 20.7394862,12.2915616 20.5349241,12.6486334 Z" id="Shape"></path>
                        <path d="M18.3200632,17.7919626 C17.2798697,17.9304369 16.3425089,17.0877222 15.907447,16.1619229 C15.472385,15.2361237 15.361642,14.1837194 14.9582209,13.2539637 C14.8408053,12.9019059 14.5892267,12.6104338 14.2581667,12.4429003 C13.6174391,12.197603 12.9806666,12.7831513 12.5535148,13.3093534 C12.1263631,13.8355556 11.505411,14.4250602 10.8567732,14.1955886 C10.5006692,14.0224218 10.2195658,13.7257603 10.0657515,13.3607867 C9.40129324,12.1738646 8.72101455,10.9196835 8.67750836,9.56659232 C8.71504361,8.89980649 8.71504361,8.23143616 8.67750836,7.56465034 C8.5113938,6.39751025 7.63731479,5.42423411 6.62876208,4.76747053 C5.62020938,4.11070696 4.46136255,3.69924062 3.36579745,3.1849077 C2.7859298,2.94969811 2.26279586,2.59363445 1.8312153,2.14041623 C1.43570444,1.66564738 0.510209015,1.71708067 0.755425751,1.15527087 C0.937360748,0.791281416 1.15093661,0.439161186 1.34869205,0.0909973628 C0.893406001,0.733356265 0.484972675,1.40769083 0.126563477,2.10876497 C-0.114698151,2.67057478 0.802887054,2.61914149 1.20235303,3.09391034 C1.63539682,3.54722056 2.15983572,3.90325481 2.74089029,4.1384018 C3.86348945,4.59055651 4.95371085,5.11932224 6.00385492,5.72096464 C7.01240762,6.38168462 7.88253152,7.35496076 8.05260119,8.52210085 C8.08356212,9.18793836 8.07695979,9.85499267 8.03282565,10.5200864 C8.07633185,11.8771341 8.75661053,13.1234023 9.41711368,14.3182372 C9.57273728,14.6820246 9.85331227,14.9781284 10.2081354,15.1530391 C10.8567732,15.3825107 11.4777253,14.7930061 11.904877,14.2668039 C12.3320287,13.7406018 12.9688012,13.1550535 13.6095288,13.4003508 C13.9405888,13.5678843 14.1921675,13.8593564 14.3095831,14.2114142 C14.7050939,15.1490827 14.8237472,16.1896178 15.2588091,17.1193734 C15.6938711,18.0491291 16.6272767,18.8878874 17.6714254,18.7494131 C18.3044614,18.6360846 18.8492786,18.2357389 19.1466809,17.6653576 C19.2100422,17.5464776 19.2655331,17.4235646 19.3127955,17.2974117 C19.0369766,17.5552871 18.6919958,17.7271467 18.3200632,17.7919626 Z" id="Shape"></path>
                    </g>
                    <path d="M280.763312,74.2348909 C280.763312,74.2348909 285.315642,74.0093757 288.345255,74.1122422 C291.374869,74.2151088 295.859962,71.7700492 295.859962,71.7700492" id="Shape" fill="#000000" fill-rule="nonzero" opacity="0.1"></path>
                    <path d="M92.5199163,105.933624 C92.0611237,103.599344 87.7461002,103.975203 84.6096991,104.576577 C84.3447068,104.62801 84.0876247,104.679443 83.842408,104.734833 L84.0678492,103.797165 L82.5925937,103.187878 C79.6936217,101.991124 76.6603563,101.150193 73.5591255,100.683472 C69.0186608,100.00297 61.8203631,98.543056 57.3945965,95.7142249 C53.372251,93.1425603 51.7585667,92.3987558 50.6353158,91.7063845 C50.6353158,91.5006514 50.6353158,91.3107438 50.6353158,91.1010542 C50.6353158,89.9536962 50.568079,88.9012919 50.4810666,87.9636234 C50.3986291,87.1013555 50.231713,86.2492738 49.9827229,85.4196537 C49.041407,82.2980485 46.9214688,81.2970775 44.7975755,79.3426124 C43.4065766,78.0318138 41.8299959,76.9333108 40.118682,76.082533 C40.2926717,75.0490808 40.5956271,74.0415563 41.0204467,73.0835764 C41.0797734,72.9371893 41.1430551,72.7947587 41.2023817,72.6483716 C41.2023817,72.6285896 41.2023817,72.612764 41.2300675,72.5929819 C41.2933492,72.4465949 41.356631,72.3002078 41.4199127,72.1617335 C44.5462811,70.4613293 46.4975469,67.191469 46.5101375,63.6317199 C46.5097378,61.0553227 45.4785655,58.5862506 43.6466389,56.7752664 C43.493708,56.6249229 43.3355036,56.4785359 43.1720258,56.3361052 L43.6308184,56.1857618 C44.6077303,55.8375979 45.6716545,54.8801474 45.3868867,54.0651276 L45.2445028,54.0651276 C45.2374192,54.0071709 45.2241602,53.9501381 45.2049517,53.8950021 C44.7711082,53.8802871 44.3541576,53.7231842 44.0184191,53.4479281 C43.5635816,52.8861183 43.4251528,52.0434036 42.5906249,51.2560785 C42.4031771,51.0553304 42.1950361,50.8749708 41.9696728,50.7180072 C41.3612368,50.3077686 40.6766612,50.0238926 39.9565225,49.8832053 C40.0158491,49.9227694 40.0791309,49.9544206 40.1384575,49.9979411 L40.2610659,50.0928949 C38.6038753,49.6972542 36.733109,49.7566003 35.1589757,49.0800547 C34.7803271,48.9117601 34.416494,48.711917 34.0713208,48.4826372 L34.2769865,48.5380269 C33.4266381,48.0474324 32.6633022,47.4183637 31.7813129,46.955464 C31.2924583,46.7089959 30.775966,46.5217225 30.2427757,46.3976107 L30.6382865,46.6310387 C28.2988816,46.0892969 25.840447,46.4840251 23.7880384,47.7309198 C21.3556466,49.1631392 19.6312192,51.4618117 18.349764,53.8791764 C16.1957634,57.9370848 15.1455501,62.4899579 15.3043303,67.0817069 C15.3834325,69.2972948 15.7393923,71.5959673 14.9088195,73.6770375 C14.2206306,75.4178566 12.7770159,76.8025991 11.9148022,78.4722028 C8.58855586,84.9290592 14.7150192,93.3166422 10.961621,99.5598526 C9.60501879,101.818961 7.17658208,103.314483 5.52334667,105.391597 C3.87011126,107.46871 3.27288985,110.8277 5.47588536,112.386524 C7.05792882,113.510144 9.30838564,113.146154 11.1949725,113.715877 C10.8729189,115.661585 9.92766538,117.449964 8.50154347,118.811729 L8.193045,118.752383 C8.12185305,118.819642 8.0546162,118.890858 7.97946913,118.95416 L8.27214717,119.029332 L8.16140413,119.136155 C10.2250421,119.733912 12.3463483,120.110568 14.489578,120.259774 C16.3919852,120.394292 18.4051355,120.323077 20.0583709,119.421016 C20.8958396,118.946269 21.6343278,118.31499 22.2336807,117.561505 C22.2336807,117.957145 22.2613664,118.305309 22.2850971,118.665342 C22.3436407,120.121387 22.5503744,121.567672 22.902094,122.981782 C24.7333093,129.62459 18.9469854,134.831222 18.9469854,134.831222 C17.529593,137.718046 16.8630311,140.915873 17.0089822,144.128778 C17.1160405,146.074138 17.5160582,147.992186 18.1955148,149.818092 C18.2508863,149.964479 18.3023027,150.106909 18.3576742,150.245384 C18.4644621,150.522332 18.5791603,150.791368 18.6899033,151.036665 C18.859973,151.432306 19.0300427,151.776513 19.2001123,152.100939 C19.3108554,152.322497 19.4215984,152.528231 19.5283864,152.718138 C19.8993076,153.401788 20.3252281,154.05411 20.8019313,154.668647 C21.3872874,154.270368 21.9726435,153.89451 22.5579996,153.541071 C22.5579996,153.766586 22.5579996,154.00397 22.5579996,154.249268 C22.5896405,156.698284 22.3444237,159.788238 22.3444237,159.788238 C22.3444237,159.788238 20.5092533,166.344004 20.3273183,168.23121 C20.1453833,170.118416 19.4374189,181.789817 19.4374189,181.789817 C19.4374189,181.789817 16.9615209,189.334686 12.3815051,193.912249 C7.80148925,198.489812 8.82190727,211.601345 8.82190727,211.601345 C8.82190727,211.601345 5.61431417,222.643677 6.71383437,223.181748 C6.89159342,223.237931 7.08056557,223.24881 7.26359447,223.213399 L7.26359447,223.660473 C5.28604015,225.033347 3.78309887,226.145097 3.78309887,226.145097 C3.78309887,226.145097 3.23333876,235.213182 2.49768856,236.96587 C1.76203835,238.718559 3.41527376,240.783803 3.41527376,240.783803 C3.41527376,240.783803 19.7300969,240.332773 21.1499809,240.241775 C21.8025738,240.202211 23.9778836,239.494015 26.2283404,238.493044 C28.1623885,238.061795 34.0001289,235.786861 36.116112,233.670183 C36.4296652,233.38924 36.6826704,233.047302 36.8596724,232.665256 C37.8682251,230.148981 28.7477446,232.036187 26.2718466,232.036187 C23.7959486,232.036187 23.5230461,230.148981 22.3760646,228.712805 C21.2290831,227.276629 22.0557008,224.898829 22.0557008,224.898829 L21.8183943,218.172937 L22.9060491,217.733776 C22.9060491,217.733776 24.3733945,211.985116 26.7543699,209.203762 C29.1353453,206.422408 33.3554462,195.823193 33.4464137,195.285122 C33.5373812,194.74705 33.6283487,193.757949 35.3685965,191.328715 C37.1088443,188.899481 38.8174512,183.708675 38.8174512,183.708675 C38.8174512,183.708675 42.7725599,171.317208 45.7823975,164.943436 C47.6294333,161.046375 48.6577615,154.142445 49.1758807,149.355192 C49.7450331,149.510612 50.30492,149.698183 50.8528468,149.917002 C50.8528468,149.917002 51.6992401,144.492768 52.0393794,138.300991 C52.2412879,135.138138 52.2161744,131.964872 51.9642323,128.805614 C51.4817091,123.662284 48.4797816,113.704008 48.6577615,104.438103 C49.3815464,104.904959 50.0855557,105.348076 50.7183731,105.743717 C50.7183731,105.510289 50.7460589,105.280817 50.7618793,105.047389 C52.3834739,106.056273 53.554186,106.748644 53.554186,106.748644 C53.554186,106.748644 63.2679328,112.133314 71.791192,112.224312 C80.3144511,112.315309 81.7817964,113.300454 81.7817964,113.300454 L82.3196912,111.076954 L83.0830271,110.934523 C86.6742658,110.246108 93.0459458,108.612112 92.5199163,105.933624 Z" id="Shape" fill="url(#linearGradient-2)" fill-rule="nonzero"></path>
                    <path d="M46.3921722,54.445449 L45.9485121,54.1165609 C46.028821,54.2082067 46.0906918,54.3144967 46.1307296,54.429599 L46.3921722,54.445449 Z" id="Shape" fill="url(#linearGradient-3)" fill-rule="nonzero"></path>
                    <path d="M45.3947969,54.0647868 L45.6597892,54.0647868 L45.4106173,53.8789598 L45.4778542,53.8789598 L45.034882,53.5547511 C45.1132203,53.6453467 45.1736188,53.7500019 45.2128619,53.8631448 L45.3117396,53.8631448 C45.3477773,53.9266097 45.3756823,53.9943559 45.3947969,54.0647868 Z" id="Shape" fill="url(#linearGradient-4)" fill-rule="nonzero"></path>
                    <rect id="Rectangle-path" fill="#965D7B" fill-rule="nonzero" x="26.1650587" y="70.3022222" width="7.05195871" height="11.0106809"></rect>
                    <rect id="Rectangle-path" fill="#000000" fill-rule="nonzero" opacity="0.1" x="26.1650587" y="70.3022222" width="7.05195871" height="11.0106809"></rect>
                    <rect id="Rectangle-path" fill="#E8F4FF" fill-rule="nonzero" transform="translate(11.576640, 222.279687) rotate(-180.000000) translate(-11.576640, -222.279687) " x="8.37102489" y="217.959291" width="6.41123111" height="8.64079306"></rect>
                    <path d="M26.9521253,70.4683913 C28.6725975,71.1251549 30.6106008,74.6028367 30.7055234,77.5068395 C30.7450745,78.8164103 29.2065372,81.039911 29.2065372,81.039911 L30.7885807,80.8539599 C31.5993779,80.7471369 32.6514368,80.6047063 33.7667775,80.4385372 C34.7001831,80.2961065 35.677095,80.1378502 36.5946802,79.9677247 C39.1140844,79.5008687 41.174696,78.9430153 40.6091154,78.4286824 C40.3362129,78.1794287 40.265021,77.7007035 40.3362129,77.0914168 C40.5075599,76.0678129 40.802391,75.0687779 41.214247,74.1161986 C41.3368554,73.8036425 41.4713291,73.4950427 41.6097579,73.2022686 C42.1911589,71.8729158 42.7527843,70.8284244 42.7527843,70.8284244 C42.7527843,70.8284244 37.3698814,70.4327837 32.8650127,70.2468325 C31.3264754,70.1795736 29.8868159,70.1360531 28.7872957,70.1320967 L28.3561889,70.1320967 C26.9916764,70.1241839 26.3351283,70.2349633 26.9521253,70.4683913 Z" id="Shape" fill="#FFC1C7" fill-rule="nonzero"></path>
                    <path d="M49.5674365,144.587722 C49.5674365,144.587722 48.7764148,158.929697 45.8298588,165.252036 C42.8833029,171.574374 39.0626679,183.870887 39.0626679,183.870887 C39.0626679,183.870887 37.3698814,189.037955 35.677095,191.443451 C33.9843085,193.848946 33.8972961,194.830135 33.8063286,195.36425 C33.7153611,195.898365 29.6218236,206.410539 27.30413,209.172111 C24.9864363,211.933683 23.5665523,217.634865 23.5665523,217.634865 C23.5665523,217.634865 13.4137884,221.907785 12.3459091,221.37367 C11.2780297,220.839555 14.3946554,209.90009 14.3946554,209.90009 C14.3946554,209.90009 13.4137884,196.891423 17.8672407,192.349468 C22.3206931,187.807512 24.7253991,180.325947 24.7253991,180.325947 C24.7253991,180.325947 25.4373187,168.741587 25.6152986,166.874163 C25.7932785,165.006738 27.5730773,158.498449 27.5730773,158.498449 C27.5730773,158.498449 28.107017,151.638039 27.486065,150.30473 C26.8651129,148.971421 49.5674365,144.587722 49.5674365,144.587722 Z" id="Shape" fill="#575A89" fill-rule="nonzero"></path>
                    <path d="M49.5674365,144.587722 C49.5674365,144.587722 48.7764148,158.929697 45.8298588,165.252036 C42.8833029,171.574374 39.0626679,183.870887 39.0626679,183.870887 C39.0626679,183.870887 37.3698814,189.037955 35.677095,191.443451 C33.9843085,193.848946 33.8972961,194.830135 33.8063286,195.36425 C33.7153611,195.898365 29.6218236,206.410539 27.30413,209.172111 C24.9864363,211.933683 23.5665523,217.634865 23.5665523,217.634865 C23.5665523,217.634865 13.4137884,221.907785 12.3459091,221.37367 C11.2780297,220.839555 14.3946554,209.90009 14.3946554,209.90009 C14.3946554,209.90009 13.4137884,196.891423 17.8672407,192.349468 C22.3206931,187.807512 24.7253991,180.325947 24.7253991,180.325947 C24.7253991,180.325947 25.4373187,168.741587 25.6152986,166.874163 C25.7932785,165.006738 27.5730773,158.498449 27.5730773,158.498449 C27.5730773,158.498449 28.107017,151.638039 27.486065,150.30473 C26.8651129,148.971421 49.5674365,144.587722 49.5674365,144.587722 Z" id="Shape" fill="#000000" fill-rule="nonzero" opacity="0.05"></path>
                    <path d="M22.4077055,217.10075 L22.6766528,224.803875 C22.6766528,224.803875 21.8856311,227.177719 22.9851513,228.590157 C24.0846715,230.002594 24.3654842,231.885844 26.7701903,231.885844 C29.1748963,231.885844 38.0382948,230.014463 37.0534728,232.510956 C36.0686507,235.007449 27.7471021,238.212139 26.3746794,238.29918 C25.0022567,238.386221 9.1541364,238.833295 9.1541364,238.833295 C9.1541364,238.833295 7.5523174,236.787832 8.26423696,235.050969 C8.97615651,233.314107 9.51009618,224.313281 9.51009618,224.313281 C9.51009618,224.313281 21.8737658,214.928683 22.4077055,217.10075 Z" id="Shape" fill="#444053" fill-rule="nonzero"></path>
                    <path d="M22.4749423,217.033492 L22.7399346,224.740573 C22.7399346,224.740573 21.9489129,227.114417 23.0523882,228.522898 C24.1558635,229.931379 24.4327211,231.822541 26.8374271,231.822541 C29.2421332,231.822541 38.1015765,229.951161 37.1207096,232.443697 C36.1398427,234.936234 27.814339,238.14488 26.4419163,238.235877 C25.0694936,238.326874 9.20950792,238.769992 9.20950792,238.769992 C9.20950792,238.769992 7.62746447,236.720573 8.31960848,234.98371 C9.01175249,233.246848 9.54964726,224.249978 9.54964726,224.249978 C9.54964726,224.249978 21.9410026,214.849555 22.4749423,217.033492 Z" id="Shape" fill="#000000" fill-rule="nonzero" opacity="0.05"></path>
                    <path d="M7.83313011,223.039318 C8.90100945,223.573432 19.041908,219.280731 19.041908,219.280731 C19.041908,219.280731 20.4657471,213.579548 22.7834408,210.817976 C25.1011344,208.056404 29.1946719,197.54423 29.2816843,197.010115 C29.3686967,196.476 29.4596642,195.494811 31.1524507,193.089316 C32.8452372,190.68382 34.5380237,185.516753 34.5380237,185.516753 C34.5380237,185.516753 38.3665688,173.224196 41.3052145,166.901857 C43.3460506,162.510246 44.3546033,154.241355 44.7857102,149.616315 C44.9716003,147.574809 45.0467473,146.233587 45.0467473,146.233587 C45.0467473,146.233587 22.3365135,150.585635 22.9614207,151.934769 C23.1670863,152.377887 23.2461885,153.426335 23.2580538,154.636996 C23.2896947,157.066229 23.0484331,160.128489 23.0484331,160.128489 C23.0484331,160.128489 21.2686342,166.632822 21.0906543,168.504202 C20.9126744,170.375583 20.2007548,181.955986 20.2007548,181.955986 C20.2007548,181.955986 17.7960488,189.437552 13.3425965,193.979508 C8.88914412,198.521463 9.87001106,211.530129 9.87001106,211.530129 C9.87001106,211.530129 6.78107122,222.505203 7.83313011,223.039318 Z" id="Shape" fill="#575A89" fill-rule="nonzero"></path>
                    <path d="M31.6982557,161.48158 C31.6982557,161.48158 27.0668234,160.235312 25.4650044,161.659618 C23.8631854,163.083925 31.6982557,161.48158 31.6982557,161.48158 Z" id="Shape" fill="#000000" fill-rule="nonzero" opacity="0.1"></path>
                    <path d="M31.6112433,167.360801 C31.6112433,167.360801 24.3061576,165.778238 24.2191452,168.072954 C24.1321328,170.36767 31.6112433,167.360801 31.6112433,167.360801 Z" id="Shape" fill="#000000" fill-rule="nonzero" opacity="0.1"></path>
                    <path d="M28.6725975,173.782049 C28.6725975,173.782049 26.1611036,175.914553 24.5790601,175.2024 C22.9970166,174.490246 28.6725975,173.782049 28.6725975,173.782049 Z" id="Shape" fill="#000000" fill-rule="nonzero" opacity="0.1"></path>
                    <path d="M21.9054067,185.35454 C21.9054067,185.35454 26.979811,187.225921 25.8209642,189.188299 C24.6621174,191.150676 23.7722179,191.415756 23.3292458,190.877684 C22.8862736,190.339613 21.9054067,185.35454 21.9054067,185.35454 Z" id="Shape" fill="#000000" fill-rule="nonzero" opacity="0.1"></path>
                    <path d="M17.8949265,218.762441 L18.1638739,226.469522 C18.1638739,226.469522 17.3728522,228.843367 18.4763275,230.251848 C19.5798028,231.660329 19.8566604,233.551491 22.2613664,233.551491 C24.6660725,233.551491 33.5255158,231.680111 32.5446489,234.172647 C31.563782,236.665183 23.2382783,239.87383 21.8658556,239.964827 C20.4934329,240.055824 4.63344722,240.498942 4.63344722,240.498942 C4.63344722,240.498942 3.03162822,238.449523 3.74354778,236.71266 C4.45546733,234.975798 4.989407,225.978928 4.989407,225.978928 C4.989407,225.978928 17.3609868,216.578505 17.8949265,218.762441 Z" id="Shape" fill="#444053" fill-rule="nonzero"></path>
                    <path d="M15.3122406,229.096577 C15.3122406,229.096577 15.0907545,230.611881 10.3248486,229.140097 C5.55894265,227.668314 15.3122406,229.096577 15.3122406,229.096577 Z" id="Shape" fill="#000000" fill-rule="nonzero" opacity="0.1"></path>
                    <path d="M6.63077709,230.208327 C6.63077709,230.208327 5.56289775,231.680111 9.34793672,232.348743 C13.1329757,233.017376 6.63077709,230.208327 6.63077709,230.208327 Z" id="Shape" fill="#000000" fill-rule="nonzero" opacity="0.1"></path>
                    <path d="M7.65515023,229.0491 C7.65515023,229.0491 11.396683,232.301266 12.5515747,232.301266" id="Shape" fill="#000000" fill-rule="nonzero" opacity="0.1"></path>
                    <path d="M28.324548,70.1241839 C29.9777834,73.1231405 33.0073966,72.6048511 36.8359418,75.1567337 C38.1411276,76.0310997 39.8971959,74.7848314 41.2102919,74.1122422 C41.902436,72.3872488 42.740919,70.8205115 42.740919,70.8205115 C42.740919,70.8205115 32.3864446,70.0885762 28.324548,70.1241839 Z" id="Shape" fill="#000000" fill-rule="nonzero" opacity="0.1"></path>
                    <path d="M27.1301052,64.7395139 C27.1301056,70.1011441 31.4747534,74.447808 36.8346239,74.4485359 C42.1944945,74.4492639 46.5403221,70.1037804 46.541778,64.7421504 C46.543234,59.3805204 42.199767,55.0326758 36.8398969,55.0304909 C34.2615165,55.0177953 31.7850134,56.0365025 29.9614297,57.8599418 C28.137846,59.6833812 27.1184642,62.1602821 27.1301052,64.7395139 Z" id="Shape" fill="#FFC1C7" fill-rule="nonzero"></path>
                    <path d="M22.973286,151.950595 C23.1789516,152.393713 23.2580538,153.442161 23.2699191,154.652821 C31.7971334,149.359148 39.6796649,148.999115 44.7975755,149.632141 C44.9834656,147.590635 45.0586126,146.249413 45.0586126,146.249413 C45.0586126,146.249413 22.3483788,150.61333 22.973286,151.950595 Z" id="Shape" fill="#000000" fill-rule="nonzero" opacity="0.1"></path>
                    <path d="M17.8830612,144.603547 C18.0675483,148.372473 19.3396356,152.00722 21.5454918,155.068244 C36.9704155,144.385945 50.7579242,150.34825 50.7579242,150.34825 C50.7579242,150.34825 51.5766317,144.967537 51.8969955,138.823236 C52.0897066,135.687902 52.0659194,132.543002 51.8258035,129.410944 C51.3235047,123.98671 48.056585,113.154067 48.6814922,103.488565 C48.9583498,99.2354272 50.6076301,95.2711073 50.5483034,91.9912458 C50.5483034,90.855757 50.4850217,89.8112655 50.4019644,88.8815099 C50.3219256,88.026337 50.1590004,87.1809682 49.9154861,86.3573221 C49.0058111,83.255499 46.9412444,82.2663972 44.8806328,80.3277578 C43.5334583,79.0291689 42.000532,77.9384337 40.3322578,77.0914168 C36.9862359,75.4574206 33.6085731,75.4574206 30.7055234,77.5068395 C30.1623466,77.8927322 29.6541362,78.3256472 29.1867617,78.8005846 C28.589945,79.4106708 28.048596,80.0726839 27.5691222,80.7787882 C27.486065,80.893524 27.4109179,81.0122162 27.3357708,81.126952 C26.9086191,81.7955848 26.5131082,83.0062454 26.1492382,84.5057236 C24.8084564,90.1436037 24.0293,99.8328447 24.0293,99.8328447 C24.0293,99.8328447 22.5144934,111.539853 22.9851513,119.333975 C23.0420455,120.778484 23.2420995,122.213779 23.5823727,123.618764 C25.3661267,130.210138 19.7538276,135.377206 19.7538276,135.377206 C18.3776631,138.250764 17.734913,141.420711 17.8830612,144.603547 Z" id="Shape" fill="#FF6584" fill-rule="nonzero"></path>
                    <path d="M79.7884216,112.081881 C79.7884216,112.081881 80.7257824,111.947363 82.058654,111.68624 C85.5431047,110.989913 91.7526253,109.367786 91.2384611,106.713037 C90.795489,104.398538 86.6030738,104.770441 83.5536851,105.367858 C81.7541106,105.716022 80.3540022,106.15914 80.3540022,106.15914 L79.7884216,112.081881 Z" id="Shape" fill="#FFC1C7" fill-rule="nonzero"></path>
                    <path d="M33.67581,93.7201957 C35.5465764,95.1445023 40.1780086,99.0653017 43.7376064,101.826874 C45.7428464,103.381742 48.5391083,105.217515 50.5997199,106.531042 C50.8765775,102.273948 51.0703778,98.222587 51.0150063,94.9585511 C49.6148978,93.8270187 49.148195,92.3552353 47.036167,89.8903937 C43.2946342,85.5383459 36.6144557,84.0111728 36.6144557,84.0111728 C32.1728687,83.0299838 31.8169089,92.2800635 33.67581,93.7201957 Z" id="Shape" fill="#000000" fill-rule="nonzero" opacity="0.1"></path>
                    <path d="M79.7884216,112.081881 C79.7884216,112.081881 80.7257824,111.947363 82.058654,111.68624 L83.5536851,105.355989 C81.7541106,105.704153 80.3540022,106.14727 80.3540022,106.14727 L79.7884216,112.081881 Z" id="Shape" fill="#000000" fill-rule="nonzero" opacity="0.1"></path>
                    <path d="M36.626321,83.2990195 C36.626321,83.2990195 43.3064995,84.810367 47.0480323,89.1782404 C50.7895651,93.5461138 49.4210975,91.5520846 57.1098287,96.5727652 C61.4090318,99.3778578 68.4016638,100.825903 72.8155651,101.498492 C75.8317999,101.965668 78.7793027,102.801444 81.5919512,103.987072 L83.0237005,104.588446 L80.7969743,114.040302 C80.7969743,114.040302 79.3731352,113.059114 71.0911377,112.972073 C62.8091402,112.885032 53.3682959,107.535969 53.3682959,107.535969 C53.3682959,107.535969 47.3130246,103.884206 43.7494717,101.122633 C40.1859188,98.3610612 35.5584417,94.432349 33.67581,93.0080424 C31.7931783,91.5837359 32.1728687,82.3178305 36.626321,83.2990195 Z" id="Shape" fill="#E8F4FF" fill-rule="nonzero"></path>
                    <path d="M26.1611036,85.2218333 C27.4583792,86.0131147 29.0285573,85.6886894 30.9072339,83.3583656 C35.9618628,77.0518527 44.3546033,83.3346271 49.9233963,87.0694754 C49.0137213,83.9716087 46.9491546,82.9785505 44.888543,81.039911 C38.9163289,75.4257694 32.2321953,74.7333982 27.5770325,81.4948978 C27.4939752,81.6096337 27.4188281,81.7283259 27.343681,81.8430617 C26.9086191,82.5116945 26.5131082,83.722355 26.1611036,85.2218333 Z" id="Shape" fill="#000000" fill-rule="nonzero" opacity="0.1"></path>
                    <path d="M26.1611036,84.50968 C27.4583792,85.3009615 29.0285573,84.9765361 30.9072339,82.6462123 C30.9528583,82.5843398 31.0017055,82.5249116 31.0535729,82.468174 C31.7765734,81.5762294 32.71045,80.8786515 33.7707326,80.4385372 C34.668571,80.0800639 35.633127,79.9194767 36.5986353,79.9677247 C41.0560427,80.1101554 46.1462675,83.8212652 49.9233963,86.3573221 C49.0137213,83.255499 46.9491546,82.2663972 44.888543,80.3277578 C43.5413685,79.0291689 42.0084422,77.9384337 40.340168,77.0914168 C36.9941461,75.4574206 33.6164833,75.4574206 30.7134336,77.5068395 C30.1702568,77.8927322 29.6620464,78.3256472 29.1946719,78.8005846 C28.5978552,79.4106708 28.0565062,80.0726839 27.5770325,80.7787882 C27.4939752,80.893524 27.4188281,81.0122162 27.343681,81.126952 C26.9086191,81.7995412 26.5131082,83.0102018 26.1611036,84.50968 Z" id="Shape" fill="#FF6584" fill-rule="nonzero"></path>
                    <path d="M17.8830612,143.891394 C18.0675483,147.66032 19.3396356,151.295067 21.5454918,154.356091 C36.9704155,143.673792 50.7579242,149.636097 50.7579242,149.636097 C50.7579242,149.636097 51.5766317,144.255383 51.8969955,138.111083 C46.0236592,138.05965 29.2975047,138.198124 23.6852055,141.276209 C21.8293116,142.311981 19.888175,143.186904 17.8830612,143.891394 Z" id="Shape" fill="#000000" fill-rule="nonzero" opacity="0.1"></path>
                    <path d="M17.8830612,144.603547 C18.0675483,148.372473 19.3396356,152.00722 21.5454918,155.068244 C36.9704155,144.385945 50.7579242,150.34825 50.7579242,150.34825 C50.7579242,150.34825 51.5766317,144.967537 51.8969955,138.823236 C46.0236592,138.771803 29.2975047,138.910277 23.6852055,141.988362 C21.8293116,143.024134 19.888175,143.899057 17.8830612,144.603547 Z" id="Shape" fill="#E8F4FF" fill-rule="nonzero"></path>
                    <path d="M46.4237947,55.6244522 L45.9920183,55.2995266 C46.0704782,55.3903225 46.1309705,55.4952091 46.1702746,55.6086022 L46.4237947,55.6244522 Z" id="Shape" fill="#000000" fill-rule="nonzero" opacity="0.1"></path>
                    <path d="M22.9970166,119.337932 C23.5261638,118.798422 24.0016898,118.208788 24.4169006,117.57733 C28.142613,112.070012 28.905949,105.019694 27.4623343,98.5865764 C27.1419705,97.1583135 26.722729,95.646966 27.2368931,94.2701363 C27.9409024,92.3789737 30.1557633,91.3938284 31.164316,89.6371836 C32.3943548,87.4888546 31.5400513,84.8894951 31.0456627,82.4602612 C31.0456627,82.361351 31.0100668,82.2703536 30.9902912,82.1753999 C30.9032788,81.7362387 30.836042,81.2891647 30.7846256,80.8460471 C30.4773925,78.1734748 30.7581731,75.4660235 31.6072882,72.9134509 C31.6507944,72.7828895 31.6943005,72.652328 31.7417619,72.5178102 C32.0238044,71.7178304 32.3897133,70.9499652 32.8333718,70.2270505 C33.7430468,68.7592235 35.0165918,67.5406501 36.7014681,67.1094017 C37.1788064,67.0505601 37.6354982,66.8797528 38.0343397,66.6108944 C39.0349822,65.7365285 37.8959109,64.2370502 37.6704697,62.9472615 C37.3936121,61.435914 38.5722345,59.9957818 39.9644327,59.2440644 C41.1509653,58.6070829 42.4759267,58.3222216 43.761337,57.9226245 C40.2527606,54.3343872 34.5889931,54.0113133 30.6953926,57.1773137 C26.8017922,60.3433142 25.9609633,65.955466 28.7556548,70.1241839 L28.324548,70.1241839 C26.9916764,70.1241839 26.3469937,70.2310069 26.9521253,70.4644349 C28.6725975,71.1211985 29.0918391,75.8926254 29.1867617,78.7966282 C28.589945,79.4067144 28.048596,80.0687275 27.5691222,80.7748318 C27.486065,80.8895676 27.4109179,81.0082598 27.3357708,81.1229956 C26.9086191,81.7916284 26.5131082,83.0022889 26.1492382,84.5017672 C24.8084564,90.1396473 24.0293,99.8288883 24.0293,99.8288883 C24.0293,99.8288883 22.5263587,111.54381 22.9970166,119.337932 Z" id="Shape" fill="#000000" fill-rule="nonzero" opacity="0.1"></path>
                    <path d="M45.2800987,54.9434499 C46.0038836,55.8019903 44.8213061,56.9612176 43.7455166,57.3489454 C42.2544406,57.8909732 40.6447114,58.1402269 39.2525132,58.9038134 C37.8603149,59.6674 36.6856477,61.0956629 36.954595,62.6070105 C37.1879465,63.8928428 38.3230626,65.3764954 37.3224201,66.2706434 C36.9229922,66.5390641 36.4667262,66.7110665 35.9895485,66.7731071 C33.4740994,67.4140451 31.8801907,69.8076713 31.0298423,72.1775592 C29.9201665,75.2687948 29.6606399,78.6013899 30.2783717,81.827236 C30.7569398,84.3316417 31.7298965,87.0576062 30.4523964,89.2890198 C29.4438437,91.0496209 27.2289829,92.0308099 26.5249736,93.9219725 C26.0108094,95.2988021 26.4300509,96.8101497 26.7504147,98.2384126 C28.1940294,104.663618 27.4306934,111.713935 23.7049811,117.229167 C22.9865322,118.39883 22.0028521,119.382833 20.8335722,120.101518 C19.2277981,120.99171 17.2739744,121.062925 15.4229836,120.932364 C13.3372675,120.782013 11.2739036,120.406613 9.26883455,119.8127 C10.8447232,118.416013 11.8874979,116.51575 12.2193456,114.435943 C10.3841752,113.866221 8.20491033,114.23021 6.66241796,113.114503 C4.52270418,111.571504 5.10015004,108.236253 6.70592415,106.174965 C8.31169826,104.113677 10.6610328,102.614199 11.9939044,100.390698 C15.6365595,94.1949646 9.68412096,85.8706841 12.9154447,79.4692174 C13.7539278,77.8075265 15.1579913,76.4346532 15.8264047,74.7215289 C16.6174264,72.6562844 16.2812422,70.3694811 16.20214,68.1776316 C16.0479894,63.6289897 17.0682547,59.1173641 19.1645164,55.0779678 C20.4064205,52.6803851 22.0833865,50.4014946 24.4445864,48.9811445 C26.8057863,47.5607943 29.9461425,47.129546 32.3943548,48.403509 C33.4780545,48.9653188 34.3719091,49.8199028 35.4991151,50.3104973 C37.6586044,51.2560785 40.3955396,50.745702 42.2939917,52.1106625 C44.1924439,53.4756229 43.3262751,55.2283113 45.7112056,55.2757881" id="Shape" fill="#965D7B" fill-rule="nonzero"></path>
                    <path d="M35.5426213,122.348757 C34.6171258,122.811657 32.7740452,126.985666 28.5895403,130.000449 C24.4050353,133.015231 35.5426213,122.348757 35.5426213,122.348757 Z" id="Shape" fill="#000000" fill-rule="nonzero" opacity="0.1"></path>
                    <path d="M37.3975672,114.000738 C37.3975672,114.000738 32.0660808,125.130112 25.8090989,126.752238 C19.552117,128.374365 37.3975672,114.000738 37.3975672,114.000738 Z" id="Shape" fill="#000000" fill-rule="nonzero" opacity="0.1"></path>
                    <path d="M47.2536979,141.022999 C47.2536979,141.022999 45.4738991,146.605489 45.8298588,147.080258 C46.1858186,147.555027 47.2536979,141.022999 47.2536979,141.022999 Z" id="Shape" fill="#000000" fill-rule="nonzero" opacity="0.1"></path>
                    <path d="M43.8087983,141.260383 C43.8087983,141.260383 42.0289994,146.842874 42.3849592,147.317642 C42.740919,147.792411 43.8087983,141.260383 43.8087983,141.260383 Z" id="Shape" fill="#000000" fill-rule="nonzero" opacity="0.1"></path>
                    <path d="M39.8932408,141.141691 C39.8932408,141.141691 38.1094868,146.724181 38.4654465,147.19895 C38.8214063,147.673719 39.8932408,141.141691 39.8932408,141.141691 Z" id="Shape" fill="#000000" fill-rule="nonzero" opacity="0.1"></path>
                    <path d="M20.8731233,145.560998 C20.8731233,145.560998 22.0161497,151.305701 22.5579996,151.550998 C23.0998495,151.796295 20.8731233,145.560998 20.8731233,145.560998 Z" id="Shape" fill="#000000" fill-rule="nonzero" opacity="0.1"></path>
                    <path d="M27.5216609,143.064505 C27.5216609,143.064505 28.6646873,148.813164 29.2065372,149.054505 C29.7483871,149.295846 27.5216609,143.064505 27.5216609,143.064505 Z" id="Shape" fill="#000000" fill-rule="nonzero" opacity="0.1"></path>
                    <path d="M23.7247566,144.730152 C23.7247566,144.730152 24.867783,150.474855 25.4096329,150.720153 C25.9514828,150.96545 23.7247566,144.730152 23.7247566,144.730152 Z" id="Shape" fill="#000000" fill-rule="nonzero" opacity="0.1"></path>
                    <path d="M57.3471352,99.6310679 C57.050502,99.690414 58.2370346,102.539027 54.8514616,102.717065 C51.4658886,102.895104 57.3471352,99.6310679 57.3471352,99.6310679 Z" id="Shape" fill="#000000" fill-rule="nonzero" opacity="0.1"></path>
                    <path d="M80.0850548,106.815903 C80.0850548,106.815903 78.7798689,109.545824 76.6401551,110.079939 C74.5004414,110.614054 80.0850548,106.815903 80.0850548,106.815903 Z" id="Shape" fill="#000000" fill-rule="nonzero" opacity="0.1"></path>
                    <path d="M69.8136376,105.094866 C69.8136376,105.094866 72.665271,108.062171 68.6864317,108.714979 C64.7075924,109.367786 69.8136376,105.094866 69.8136376,105.094866 Z" id="Shape" fill="#000000" fill-rule="nonzero" opacity="0.1"></path>
                    <path d="M47.1943713,93.6925009 C47.1943713,93.6925009 41.3764065,91.9081613 40.4706866,93.2137756 C39.5649667,94.51939 47.1943713,93.6925009 47.1943713,93.6925009 Z" id="Shape" fill="#000000" fill-rule="nonzero" opacity="0.1"></path>
                    <path d="M37.0099666,100.984159 C36.080516,101.447059 34.2413905,105.621068 30.0529305,108.63585 C25.8644704,111.650633 37.0099666,100.984159 37.0099666,100.984159 Z" id="Shape" fill="#000000" fill-rule="nonzero" opacity="0.1"></path>
                    <g id="Group" opacity="0.1" transform="translate(6.235266, 47.584533)" fill="#000000" fill-rule="nonzero">
                        <path d="M27.3060701,1.81994726 C26.285652,1.37287326 25.4432139,0.633025133 24.4860776,0.0712153274 C25.0051439,0.194146852 25.5072197,0.380161886 25.9811087,0.625112318 C26.8354121,1.06822991 27.5829277,1.69334223 28.4055903,2.1799803 C28.0292836,2.09229278 27.6613727,1.97182196 27.3060701,1.81994726 Z" id="Shape"></path>
                        <path d="M39.3065392,7.50580449 L39.0490579,7.48599195 C39.0102443,7.37441605 38.9511539,7.27097508 38.8747628,7.18087885 L39.3065392,7.50580449 Z" id="Shape"></path>
                        <path d="M4.0263006,65.9572624 C4.00652505,66.079911 3.97488418,66.2025597 3.95115353,66.3291647 C2.63410236,66.1827776 1.30914096,66.1036495 0.268947388,65.3638014 C1.48712085,65.6090986 2.82790268,65.5853601 4.0263006,65.9572624 Z" id="Shape"></path>
                        <path d="M7.2299386,72.44577 C9.07697433,72.5802879 11.0347531,72.5090725 12.6405272,71.6149245 C13.8096334,70.8977139 14.7933501,69.9150297 15.5119361,68.7465294 C19.2376484,63.2352543 20.0009844,56.1849369 18.5573697,49.7557754 C18.2370059,48.3275125 17.8177644,46.8122086 18.3279734,45.4393353 C19.0359379,43.5481727 21.2507987,42.5630274 22.2593514,40.8063826 C23.5368515,38.574969 22.5638948,35.8490045 22.0813715,33.3445989 C21.4653927,30.118655 21.724883,26.7865256 22.8328422,23.694922 C23.6831905,21.3210777 25.2770993,18.9472335 27.7965035,18.2865135 C28.2732101,18.2251067 28.7293281,18.054514 29.1293751,17.7880062 C30.1260625,16.9096839 28.9909463,15.414162 28.76155,14.1243733 C28.4886475,12.6130258 29.6672699,11.1689372 31.0555131,10.4211762 C32.4437562,9.67341531 34.0574405,9.40833603 35.5485165,8.86630826 C36.5016977,8.52210085 37.5260708,7.57256315 37.2610785,6.76545611 L37.5142055,6.78523814 L37.0870537,6.46081276 C37.1635532,6.55061102 37.2225775,6.65393731 37.2610785,6.76545611 C35.204422,6.58741779 35.9361171,4.93363963 34.0969916,3.60033044 L33.9190117,3.48559464 C34.6270383,3.6255184 35.2996128,3.90674682 35.896566,4.31248372 C37.7317364,5.63392368 37.0000413,7.29165825 39.0606529,7.47760938 C39.3375105,8.2688908 38.3012721,9.23425412 37.352046,9.57846154 C35.8609701,10.1204893 34.2512408,10.369743 32.8590426,11.1333295 C31.4668444,11.8969161 30.2921771,13.325179 30.5611245,14.8365265 C30.7944759,16.1223588 31.9295921,17.6060115 30.9289496,18.5001595 C30.5295216,18.7685802 30.0732556,18.9405826 29.596078,19.0026232 C27.0806289,19.6435611 25.4867201,22.0371874 24.6363717,24.4070753 C23.5258523,27.5007956 23.2649844,30.8358089 23.880946,34.064665 C24.3634692,36.5690706 25.336426,39.2950351 24.0589259,41.5264487 C23.0503732,43.2870499 20.8355123,44.2682388 20.131503,46.1594014 C19.6173389,47.5362311 20.0365804,49.0475786 20.3569442,50.4758415 C21.8005588,56.9010466 21.0372229,63.951364 17.3115105,69.4665955 C16.5920114,70.6354296 15.6085522,71.6192117 14.4401016,72.338947 C12.8343275,73.2291386 10.8805039,73.300354 9.02951303,73.1697925 C6.94379689,73.0194423 4.88043304,72.6440415 2.87536398,72.0501293 C2.95051105,71.9868268 3.01379278,71.9156115 3.08498474,71.8483526 C4.45001308,72.1494949 5.83544733,72.3491792 7.2299386,72.44577 Z" id="Shape"></path>
                    </g>
                    <ellipse id="Oval" fill="rgb(53,114,241)" fill-rule="nonzero" opacity="0.1" cx="42.1674282" cy="262.17214" rx="10.6511076" ry="1.80016522"></ellipse>
                    <path d="M135.003803,115.649554 C136.271338,114.7253 137.10166,113.463373 137.494766,111.863775 C138.489432,92.9941346 154.104793,78 173.222222,78 C192.981743,78 209,94.0182567 209,113.777778 C209,132.608906 194.451604,148.042075 175.981349,149.450746 C173.931813,150.16358 172.259332,151.328868 170.963907,152.94661 C166.669186,162.97454 156.71059,170 145.111111,170 C129.585773,170 117,157.414227 117,141.888889 C117,129.926312 124.472179,119.708956 135.003803,115.649554 Z" id="Combined-Shape" stroke="#E285C4" stroke-width="20.4484966" style="mix-blend-mode: multiply;"></path>
                </g>
            </g>
        </g>
    </g>
</svg>