<?xml version="1.0" encoding="UTF-8"?>
<svg width="24px" height="24px" viewBox="0 0 24 24" version="1.1" xmlns="http://www.w3.org/2000/svg" xmlns:xlink="http://www.w3.org/1999/xlink">
    <!-- Generator: Sketch 51.2 (57519) - http://www.bohemiancoding.com/sketch -->
    <title>instagram - FontAwesome</title>
    <desc>Created with Sketch.</desc>
    <defs></defs>
    <g id="04_Landing" stroke="none" stroke-width="1" fill="none" fill-rule="evenodd">
        <g id="Landing-0001-Copy" transform="translate(-135.000000, -4437.000000)" fill="#FFFFFF">
            <g id="Footer" transform="translate(-18.000000, 3998.000000)">
                <g id="RRSS" transform="translate(113.000000, 388.000000)">
                    <g transform="translate(0.000000, 51.000000)" id="instagram---FontAwesome">
                        <path d="M55.9996745,12 C55.9996745,9.79705428 54.2029457,8.00032549 52,8.00032549 C49.7970543,8.00032549 48.0003255,9.79705428 48.0003255,12 C48.0003255,14.2029457 49.7970543,15.9996745 52,15.9996745 C54.2029457,15.9996745 55.9996745,14.2029457 55.9996745,12 Z M58.155749,12 C58.155749,15.4059728 55.4059728,18.155749 52,18.155749 C48.5940272,18.155749 45.844251,15.4059728 45.844251,12 C45.844251,8.59402718 48.5940272,5.84425096 52,5.84425096 C55.4059728,5.84425096 58.155749,8.59402718 58.155749,12 Z M59.8431117,5.5942713 C59.8431117,6.39108145 59.2025389,7.03165433 58.4057287,7.03165433 C57.6089185,7.03165433 56.9683457,6.39108145 56.9683457,5.5942713 C56.9683457,4.79746114 57.6089185,4.15688827 58.4057287,4.15688827 C59.2025389,4.15688827 59.8431117,4.79746114 59.8431117,5.5942713 Z M52,2.15705102 C50.2501424,2.15705102 46.5004476,2.01643746 44.922451,2.64138661 C44.3756205,2.86011881 43.9694035,3.12572219 43.5475629,3.54756286 C43.1257222,3.96940353 42.8601188,4.37562047 42.6413866,4.92245097 C42.0164375,6.50044755 42.157051,10.2501424 42.157051,12 C42.157051,13.7498576 42.0164375,17.4995524 42.6413866,19.077549 C42.8601188,19.6243795 43.1257222,20.0305965 43.5475629,20.4524371 C43.9694035,20.8742778 44.3756205,21.1398812 44.922451,21.3586134 C46.5004476,21.9835625 50.2501424,21.842949 52,21.842949 C53.7498576,21.842949 57.4995524,21.9835625 59.077549,21.3586134 C59.6243795,21.1398812 60.0305965,20.8742778 60.4524371,20.4524371 C60.8742778,20.0305965 61.1398812,19.6243795 61.3586134,19.077549 C61.9835625,17.4995524 61.842949,13.7498576 61.842949,12 C61.842949,10.2501424 61.9835625,6.50044755 61.3586134,4.92245097 C61.1398812,4.37562047 60.8742778,3.96940353 60.4524371,3.54756286 C60.0305965,3.12572219 59.6243795,2.86011881 59.077549,2.64138661 C57.4995524,2.01643746 53.7498576,2.15705102 52,2.15705102 Z M63.9990235,12 C63.9990235,13.6561152 64.0146472,15.2966067 63.9209049,16.9527219 C63.8271625,18.8744406 63.3896981,20.577427 61.9835625,21.9835625 C60.577427,23.3896981 58.8744406,23.8271625 56.9527219,23.9209049 C55.2966067,24.0146472 53.6561152,23.9990235 52,23.9990235 C50.3438848,23.9990235 48.7033933,24.0146472 47.0472781,23.9209049 C45.1255594,23.8271625 43.422573,23.3896981 42.0164375,21.9835625 C40.6103019,20.577427 40.1728375,18.8744406 40.0790951,16.9527219 C39.9853528,15.2966067 40.0009765,13.6561152 40.0009765,12 C40.0009765,10.3438848 39.9853528,8.70339328 40.0790951,7.04727805 C40.1728375,5.12555944 40.6103019,3.42257303 42.0164375,2.01643746 C43.422573,0.610301896 45.1255594,0.172837497 47.0472781,0.0790951257 C48.7033933,-0.0146472455 50.3438848,0.000976483034 52,0.000976483034 C53.6561152,0.000976483034 55.2966067,-0.0146472455 56.9527219,0.0790951257 C58.8744406,0.172837497 60.577427,0.610301896 61.9835625,2.01643746 C63.3896981,3.42257303 63.8271625,5.12555944 63.9209049,7.04727805 C64.0146472,8.70339328 63.9990235,10.3438848 63.9990235,12 Z"></path>
                    </g>
                </g>
            </g>
        </g>
    </g>
</svg>