<?xml version="1.0" encoding="UTF-8"?>
<svg width="350px" height="256px" viewBox="0 0 350 256" version="1.1" xmlns="http://www.w3.org/2000/svg" xmlns:xlink="http://www.w3.org/1999/xlink">
    <!-- Generator: Sketch 51.2 (57519) - http://www.bohemiancoding.com/sketch -->
    <title>ilustracion</title>
    <desc>Created with Sketch.</desc>
    <defs>
        <linearGradient x1="50.0005818%" y1="100%" x2="50.0005818%" y2="1.14327069e-15%" id="linearGradient-1">
            <stop stop-color="#808080" stop-opacity="0.25" offset="0%"></stop>
            <stop stop-color="#808080" stop-opacity="0.12" offset="54%"></stop>
            <stop stop-color="#808080" stop-opacity="0.1" offset="100%"></stop>
        </linearGradient>
        <linearGradient x1="50.0880863%" y1="99.9897113%" x2="50.0880863%" y2="-0.0330662392%" id="linearGradient-2">
            <stop stop-color="#808080" stop-opacity="0.25" offset="0%"></stop>
            <stop stop-color="#808080" stop-opacity="0.12" offset="54%"></stop>
            <stop stop-color="#808080" stop-opacity="0.1" offset="100%"></stop>
        </linearGradient>
        <linearGradient x1="49.9531835%" y1="100.017068%" x2="49.9531835%" y2="-0.034135518%" id="linearGradient-3">
            <stop stop-color="#808080" stop-opacity="0.25" offset="0%"></stop>
            <stop stop-color="#808080" stop-opacity="0.12" offset="54%"></stop>
            <stop stop-color="#808080" stop-opacity="0.1" offset="100%"></stop>
        </linearGradient>
        <linearGradient x1="50.0000117%" y1="99.9998312%" x2="50.0000117%" y2="-0.00256358421%" id="linearGradient-4">
            <stop stop-color="#808080" stop-opacity="0.25" offset="0%"></stop>
            <stop stop-color="#808080" stop-opacity="0.12" offset="54%"></stop>
            <stop stop-color="#808080" stop-opacity="0.1" offset="100%"></stop>
        </linearGradient>
    </defs>
    <g id="04_Landing" stroke="none" stroke-width="1" fill="none" fill-rule="evenodd">
        <g id="Landing-0001" transform="translate(-465.000000, -1655.000000)">
            <g id="Section-3-Empieza-a-recibir-flips" transform="translate(0.000000, 1599.000000)">
                <g id="ilustracion" transform="translate(465.000000, 56.000000)">
                    <g id="Group" opacity="0.1" transform="translate(0.000000, 20.000000)" fill="rgb(53	114	241)" fill-rule="nonzero">
                        <path d="M21.53379,18.3708548 C24.7940639,24.0547083 22.9881279,31.4325102 19.4465753,36.9434464 C15.9050228,42.4543826 10.8675799,46.8285482 6.94246575,52.0865129 C-0.859817352,62.576825 -2.87671233,79.1416554 6.96164384,87.7618996 C9.08082192,89.6191588 11.7018265,91.0889552 12.9931507,93.5930529 C14.7767123,97.0481954 13.456621,101.211018 12.1109589,104.871099 L11.9990868,105.172103 C6.91369863,118.983066 14.4059361,134.289444 28.4474886,138.621981 C36.2178082,141.020407 43.2305936,144.907843 48.4214612,151.193704 C52.9570776,156.68863 55.5780822,163.467626 58.569863,169.936011 C63.9780822,181.620733 70.9589041,192.793107 80.6054795,201.301275 C90.2520548,209.809444 102.839269,215.448467 115.688584,214.984152 C145.037443,213.924233 166.647945,182.962442 195.968037,181.332537 C198.080822,181.214057 200.33105,181.294111 202.09863,182.459701 C204.591781,184.105617 205.355708,187.336608 206.40411,190.144912 C211.956164,205.012592 228.673059,211.865237 243.641553,217.071967 L271.769406,226.864206 C287.047945,232.17981 303.093607,237.575468 319.075342,235.112999 C335.057078,232.650529 350.661644,219.502415 349.968037,203.312239 C349.399087,190.013623 338.39726,178.309688 339.838813,165.075115 C340.836073,155.929715 347.673059,148.247707 348.817352,139.118318 C350.009589,129.617476 344.825114,120.494491 338.857534,113.01422 C321.686758,91.4828223 297.215525,77.2908005 273.33242,63.6015197 C256.510046,53.9565807 239.60137,44.2732157 221.490868,37.3437178 C176.844292,20.3049661 127.773973,21.0382632 80.2123288,16.388711 C72.0328767,15.5881682 63.4826484,14.64673 55.9872146,11.0250746 C50.23379,8.24559023 45.7365297,1.81883311 39.4237443,0.457910448 C34.613242,-0.579592944 27.4981735,1.56265943 23.2981735,3.9034464 C15.6429224,8.20075984 17.7525114,11.7775848 21.53379,18.3708548 Z" id="Shape"></path>
                    </g>
                    <path d="M316.311071,2.27739522e-15 L59.2597048,2.27739522e-15 C56.8828837,0.0101737015 54.6075903,0.966787081 52.935027,2.65911704 C51.2624637,4.35144701 50.3298401,6.64066234 50.3425949,9.02249397 L50.3425949,190.177506 C50.3298401,192.559338 51.2624637,194.848553 52.935027,196.540883 C54.6075903,198.233213 56.8828837,199.189826 59.2597048,199.2 L316.311071,199.2 C318.687893,199.189826 320.963186,198.233213 322.635749,196.540883 C324.308313,194.848553 325.240936,192.559338 325.228181,190.177506 L325.228181,9.02249397 C325.240936,6.64066234 324.308313,4.35144701 322.635749,2.65911704 C320.963186,0.966787081 318.687893,0.0101737015 316.311071,2.27739522e-15 Z" id="Shape" fill="url(#linearGradient-1)" fill-rule="nonzero"></path>
                    <path d="M324.429224,19.2 L324.429224,187.945149 C324.429224,192.835548 320.470867,196.8 315.587987,196.8 L60.7818762,196.8 C55.8989959,196.8 51.9406393,192.835548 51.9406393,187.945149 L51.9406393,19.2 L324.429224,19.2 Z" id="Shape" fill="#F6F7F9" fill-rule="nonzero"></path>
                    <path d="M118.26484,106.4 L118.26484,196.8 L60.7502933,196.8 C55.8864973,196.8 51.9406393,192.766882 51.9406393,187.794195 L51.9406393,106.4 L118.26484,106.4 Z" id="Shape" fill="#DDE1EC" fill-rule="nonzero"></path>
                    <rect id="Rectangle-path" fill="#DDE1EC" fill-rule="nonzero" x="137.442922" y="40" width="111.073059" height="3.2"></rect>
                    <rect id="Rectangle-path" fill="#DDE1EC" fill-rule="nonzero" x="137.442922" y="62.4" width="67.1232877" height="3.2"></rect>
                    <rect id="Rectangle-path" fill="#DDE1EC" fill-rule="nonzero" x="219.748858" y="62.4" width="22.3744292" height="3.2"></rect>
                    <g id="Group" opacity="0.1" transform="translate(71.917808, 140.000000)" fill="rgb(53	114	241)" fill-rule="nonzero">
                        <rect id="Rectangle-path" x="0.0598752331" y="0.0128" width="22.2011062" height="3.12"></rect>
                    </g>
                    <rect id="Rectangle-path" fill="#DDE1EC" fill-rule="nonzero" x="219.748858" y="91.2" width="22.3744292" height="3.2"></rect>
                    <rect id="Rectangle-path" fill="#DDE1EC" fill-rule="nonzero" x="219.748858" y="120.8" width="22.3744292" height="3.2"></rect>
                    <rect id="Rectangle-path" fill="#DDE1EC" fill-rule="nonzero" x="219.748858" y="72" width="22.3744292" height="3.2"></rect>
                    <rect id="Rectangle-path" fill="#DDE1EC" fill-rule="nonzero" x="258.105023" y="72" width="22.3744292" height="3.2"></rect>
                    <rect id="Rectangle-path" fill="#DDE1EC" fill-rule="nonzero" x="219.748858" y="81.6" width="22.3744292" height="3.2"></rect>
                    <rect id="Rectangle-path" fill="#DDE1EC" fill-rule="nonzero" x="258.105023" y="81.6" width="22.3744292" height="3.2"></rect>
                    <rect id="Rectangle-path" fill="#DDE1EC" fill-rule="nonzero" x="258.105023" y="99.2" width="22.3744292" height="3.2"></rect>
                    <rect id="Rectangle-path" fill="#DDE1EC" fill-rule="nonzero" x="258.105023" y="109.6" width="22.3744292" height="3.2"></rect>
                    <rect id="Rectangle-path" fill="#DDE1EC" fill-rule="nonzero" x="258.105023" y="130.4" width="22.3744292" height="3.2"></rect>
                    <rect id="Rectangle-path" fill="#DDE1EC" fill-rule="nonzero" x="137.442922" y="72" width="67.1232877" height="3.2"></rect>
                    <rect id="Rectangle-path" fill="#DDE1EC" fill-rule="nonzero" x="137.442922" y="81.6" width="67.1232877" height="3.2"></rect>
                    <rect id="Rectangle-path" fill="#DDE1EC" fill-rule="nonzero" x="137.442922" y="91.2" width="67.1232877" height="3.2"></rect>
                    <rect id="Rectangle-path" fill="#DDE1EC" fill-rule="nonzero" x="137.442922" y="100.8" width="67.1232877" height="3.2"></rect>
                    <rect id="Rectangle-path" fill="#DDE1EC" fill-rule="nonzero" x="137.442922" y="110.4" width="67.1232877" height="3.2"></rect>
                    <rect id="Rectangle-path" fill="#DDE1EC" fill-rule="nonzero" x="137.442922" y="120.8" width="67.1232877" height="3.2"></rect>
                    <rect id="Rectangle-path" fill="#DDE1EC" fill-rule="nonzero" x="137.442922" y="130.4" width="67.1232877" height="3.2"></rect>
                    <rect id="Rectangle-path" fill="rgb(53	114	241)" fill-rule="nonzero" x="51.9406393" y="19.2" width="66.3242009" height="88.8"></rect>
                    <path d="M324.429224,10.5808024 C324.427458,5.62031647 320.469618,1.59999968 315.587987,1.6 L60.7818762,1.6 C55.8989959,1.6 51.9406393,5.62229746 51.9406393,10.5840528 L51.9406393,20.8 L324.429224,20.8 L324.429224,10.5808024 Z" id="Shape" fill="#E8EAF1" fill-rule="nonzero"></path>
                    <ellipse id="Oval" fill="#FF5252" fill-rule="nonzero" cx="62.7283105" cy="10.8" rx="3.59589041" ry="3.6"></ellipse>
                    <ellipse id="Oval" fill="#FFFF00" fill-rule="nonzero" cx="73.9155251" cy="10.8" rx="3.59589041" ry="3.6"></ellipse>
                    <ellipse id="Oval" fill="#69F0AE" fill-rule="nonzero" cx="85.1027397" cy="10.8" rx="3.59589041" ry="3.6"></ellipse>
                    <path d="M104.680347,63.6136307 C104.686428,68.103917 103.146078,72.4589388 100.319055,75.9442801 C100.212603,76.0767288 100.106152,76.205947 99.9964741,76.3351652 C99.9751018,76.3571276 99.955674,76.380907 99.9384095,76.4062352 C98.9368575,77.5670398 97.8033744,78.6067498 96.5609885,79.5042422 L96.3996981,79.6237691 C96.1771173,79.7820614 95.9513108,79.9468147 95.7222784,80.0824938 L95.5642138,80.1826379 L95.225504,80.3926175 C95.1754264,80.4243443 95.1237445,80.4534573 95.0706652,80.4798398 C95.0286545,80.5100295 94.9844448,80.5370255 94.9384071,80.5606012 C94.4416326,80.8513423 93.9287291,81.1194701 93.4029224,81.3649847 C93.3448579,81.3972893 93.2803417,81.4231329 93.2190514,81.452207 C93.157761,81.4812811 93.0867932,81.5168161 93.0158255,81.5426598 C92.9448577,81.5685034 92.8061479,81.636343 92.6932446,81.6783389 C91.5666433,82.1559376 90.3967245,82.5237543 89.1996945,82.7766938 C88.0587365,83.0212854 86.8981737,83.1629159 85.7319509,83.1998835 L85.5545314,83.1998835 L85.0932409,83.1998835 C83.5541965,83.2052005 82.0199114,83.0284547 80.5222709,82.6733193 L80.2416256,82.6054797 C79.5835607,82.4331887 78.9383991,82.2329005 78.3061407,82.0046149 C77.9222696,81.8624749 77.5416242,81.707413 77.1706563,81.5426598 C77.0771079,81.5006638 76.9867853,81.4618984 76.8932368,81.416672 L76.6125915,81.2906842 L76.3674301,81.1646965 L76.1093655,81.0322478 L75.8222686,80.8804164 L75.4996877,80.6962804 L75.4480748,80.6672063 C74.0730123,79.8857677 72.7971243,78.9410313 71.6480729,77.8534794 C71.5512987,77.7597962 71.4512986,77.6693434 71.3577502,77.5691993 C71.2642018,77.4690552 71.1545243,77.368911 71.0577501,77.2655364 C64.9091577,70.9244887 63.7576438,61.2474154 68.2460923,53.6369735 C72.7345407,46.0265315 81.7529835,42.3647403 90.2664736,44.6959578 C98.7799636,47.0271753 104.683163,54.7749045 104.680347,63.6136307 Z" id="Shape" fill="#FFFFFF" fill-rule="nonzero"></path>
                    <path d="M98.4763127,70.6985885 C98.436391,70.9878936 98.3739026,71.2735598 98.2894309,71.5529203 C98.2793324,71.5966886 98.2655567,71.639507 98.2482536,71.68091 C98.2482536,71.5593197 98.2260812,71.43133 98.2197462,71.293741 C98.1247216,69.8698547 98.0423669,67.6204345 98.3274408,66.2893408 C98.5966773,65.0382408 96.6360024,65.4190104 95.3278299,66.5389209 C94.9455015,66.853649 94.6344292,67.2475403 94.4155935,67.6940286 C94.3870861,67.6556316 94.3585787,67.6204345 94.3269038,67.5820375 C93.6910601,66.7863033 92.7415443,66.3125593 91.7295639,66.2861411 C89.6625771,66.1498221 87.7086044,65.2846255 86.2086329,63.8415364 C86.1452831,63.5823571 86.0977708,63.3263775 86.0597609,63.0671983 C86.0597609,62.9872046 86.034421,62.9040113 86.0249186,62.8240177 C86.7564505,62.16312 87.2685466,61.2905066 87.4914654,60.3250174 C87.4914654,60.3250174 87.4914654,60.2994194 87.4914654,60.2866204 C87.5703701,59.9381045 87.6107387,59.5818183 87.6118299,59.2243053 C87.6118299,59.0771171 87.6118299,58.9363283 87.5959925,58.7955396 C87.5959925,58.7443436 87.5959925,58.689948 87.580155,58.6387521 C87.5643176,58.5875562 87.580155,58.5171618 87.5548151,58.4595664 C87.634316,58.4239274 87.7115411,58.3833186 87.7860417,58.3379761 C88.2362125,58.0584576 88.5935528,57.6495706 88.8123078,57.1636699 L88.8123078,57.138072 C88.8910957,56.9655981 88.9588089,56.7881786 89.015027,56.6069144 C89.1692356,56.0869895 89.2575736,55.5494132 89.2779284,55.0070423 C89.2779284,54.9398476 89.2779284,54.872653 89.2779284,54.7990589 C89.2779284,54.3798924 89.1955738,53.8551343 88.7901353,53.7687412 C88.2548299,53.6535504 87.8652289,54.4694852 87.3235885,54.3830921 C87.1591049,54.3428096 87.0109014,54.2523116 86.8991452,54.1239128 C86.5317166,53.7559422 86.2846526,53.28238 85.917224,52.9112097 C85.3433422,52.3738161 84.6016708,52.0557919 83.8203471,52.0120815 C83.0454569,51.9690111 82.2685078,52.0412442 81.5144161,52.2264644 C81.0980259,52.2966854 80.6957562,52.4350229 80.3234407,52.6360317 C79.9516353,52.8415536 79.6902328,53.2042024 79.610756,53.6247527 C79.6020869,53.7152006 79.6020869,53.806283 79.610756,53.896731 C79.610756,54.0311202 79.610756,54.171909 79.610756,54.309498 C79.606728,54.3685425 79.5993248,54.4273025 79.5885836,54.4854839 C79.4745354,54.8685711 79.2101039,55.1877327 78.8568939,55.3686134 C78.5211402,55.5701973 78.1473767,55.710986 77.8274604,55.9413676 C77.3187357,56.338198 76.9671227,56.9056001 76.8360368,57.5412398 C76.7529089,57.8964646 76.7156453,58.2610645 76.7251747,58.6259531 C76.7207148,58.9553192 76.7387064,59.2846048 76.779022,59.6114744 C76.9145773,60.710918 77.220271,61.7820241 77.6849235,62.7856208 C77.8105361,63.0654885 77.9610839,63.3332366 78.1347067,63.5855568 C78.1347067,63.5855568 78.1347067,63.5855568 78.1347067,63.5855568 C78.1790515,63.6495517 78.2233964,63.7071471 78.2709087,63.7615428 C78.5696588,64.0997912 78.9140733,64.3938553 79.2940072,64.635073 L79.5125639,64.785461 C79.6617204,64.9147178 79.8618135,64.966728 80.0542043,64.9262497 C80.1139889,64.9036831 80.1696491,64.8712445 80.2189136,64.8302574 C80.4922224,64.5701516 80.6372421,64.2009804 80.6148496,63.8223379 L80.6148496,63.771142 C80.616378,63.789241 80.616378,63.8074387 80.6148496,63.8255377 C80.6165545,63.8500388 80.6165545,63.8746306 80.6148496,63.8991318 L80.6465245,63.8991318 C80.65488,64.0622096 80.65488,64.2256149 80.6465245,64.3886927 C80.6501575,64.4547698 80.6501575,64.5209997 80.6465245,64.5870768 C80.6465245,64.6254738 80.6465245,64.6638707 80.6465245,64.6990679 L80.5958447,64.7438643 C80.4913176,64.8334571 80.3012683,64.9902446 80.0383668,65.198228 C78.9438668,66.0578362 77.7479716,66.7768766 76.4781106,67.338857 C75.067025,67.9300551 73.9952089,69.1326978 73.5608545,70.6121954 C73.2479749,71.6849451 72.7816549,72.705774 72.1766624,73.6423533 C72.0246229,73.8663354 71.6065146,75.5621999 71.1187215,77.3028608 C71.2137461,77.4084524 71.3151057,77.5076445 71.4132978,77.6036368 C71.5114899,77.6996291 71.6033471,77.7924217 71.6983717,77.8852143 C72.8266491,78.9624271 74.0794699,79.8981821 75.4296722,80.6721916 L75.480352,80.7009893 L75.7971008,80.8833748 L76.0790072,81.0337628 C76.0790072,80.7937819 76.0473323,80.5729996 76.0314949,80.3650162 C76.0314949,80.2402262 76.01249,80.1218356 75.99982,80.0066448 C76.0726722,79.8850545 76.136022,79.7762632 76.1962042,79.6866704 C76.1962042,79.779463 76.2183767,79.8818548 76.2278791,80.0066448 C76.2627215,80.3266193 76.2975639,80.7201878 76.3355737,81.1713518 C76.3355737,81.3142737 76.346132,81.4635951 76.3672486,81.619316 C76.3672486,81.4625285 76.3514111,81.2993415 76.3387412,81.1713518 L76.5794703,81.2961418 L76.8550417,81.4209318 C76.9437313,81.4657282 77.032421,81.5041252 77.1274456,81.5457219 C77.4917067,81.7089088 77.8654703,81.8656963 78.2424013,82.0032853 C78.8568939,82.2315337 79.4903915,82.4299179 80.1428939,82.5984377 L80.4184653,82.6656324 C81.890581,83.0222019 83.3992898,83.2015678 84.9131304,83.1999897 L85.3660811,83.1999897 L85.540293,83.1999897 C86.6953647,83.1608874 87.8445667,83.0163097 88.9738496,82.7680242 C90.1492381,82.5174893 91.2980056,82.1531693 92.4042388,81.6801111 C92.5077101,81.6374479 92.613293,81.5926514 92.7209876,81.5457219 C92.7906723,81.5169242 92.8540221,81.4881265 92.9205393,81.456129 C92.9870565,81.4241316 93.0440713,81.4017334 93.1010861,81.3697359 C92.7843373,80.2466256 92.613293,79.5266832 92.613293,79.5266832 L93.0314014,78.4419698 L93.0820812,78.3107803 L93.2087807,77.9748072 C93.2087807,78.0164038 93.2277856,78.0580005 93.243623,78.0995972 C93.5060364,79.0243779 94.0221625,79.8552613 94.7323423,80.4962057 C94.784462,80.4700739 94.8352095,80.4412378 94.8843817,80.4098126 L95.2169679,80.2018292 L95.3721748,80.1026372 C95.6002339,79.9522492 95.8187905,79.8050609 96.0373472,79.6482735 L96.1957216,79.5298829 C97.415646,78.6409228 98.5286365,77.6110971 99.5120812,76.4613281 L99.569096,76.3909337 C99.6767906,76.2629439 99.7813177,76.1349542 99.8858447,76.0037646 L98.4763127,70.6985885 Z M95.7142634,72.1576719 C95.7250121,72.1728808 95.7345447,72.1889303 95.7427708,72.2056681 L95.7174309,72.1832699 L95.7142634,72.1576719 Z" id="Shape" fill="url(#linearGradient-2)" fill-rule="nonzero"></path>
                    <path d="M95.8677153,70.9326506 L95.8677153,70.9577744 L95.890411,70.9797576 C95.8839265,70.9609148 95.8741998,70.948353 95.8677153,70.9326506 Z M76.0381928,80.3540536 C76.0057705,79.9143881 75.9733481,79.5186892 75.944168,79.1795187 C75.9214723,78.9408431 75.8987766,78.7272913 75.8793232,78.5514252 C75.8773776,78.5431566 75.8773776,78.53457 75.8793232,78.5263014 C75.8793232,78.4823349 75.8793232,78.4415088 75.8793232,78.4006827 C75.5668406,78.8627324 75.3101066,79.3579759 75.1141553,79.8767025 L75.166031,79.9049667 L75.4902548,80.0839734 L75.7788139,80.2315754 L76.0381928,80.3603345 C76.0381928,80.5006088 76.0490003,80.6471639 76.0706152,80.8 C76.054404,80.6492576 76.0479196,80.504796 76.0381928,80.363475 L76.0381928,80.3540536 Z M80.3536105,62.4 L80.3698217,62.4282642 C80.3709797,62.435549 80.3709797,62.4429626 80.3698217,62.4502475 C80.3669909,62.4358068 80.3614996,62.4219776 80.3536105,62.4094214 L80.3536105,62.4 Z" id="Shape" fill="url(#linearGradient-3)" fill-rule="nonzero"></path>
                    <path d="M86.13583,59.2 C86.13583,59.2 84.9993717,64.2560023 88.1222709,66.927392 C91.2451701,69.5987816 80.7463105,71.690383 78.8952372,69.4553931 C77.0441639,67.2204032 80.1796554,66.0795297 80.1796554,66.0795297 C80.1796554,66.0795297 81.7536973,64.8139705 80.1796554,61.0235273 L86.13583,59.2 Z" id="Shape" fill="#E0A17E" fill-rule="nonzero"></path>
                    <path d="M88.6986301,81.9855876 C87.5602866,82.2250859 86.4023832,82.3637671 85.2388328,82.399965 L85.0618199,82.399965 L84.6015864,82.399965 C83.0668899,82.4028495 81.5372123,82.227662 80.0443091,81.8780393 L79.7643068,81.8116124 C79.1077499,81.6429092 78.4640667,81.4467917 77.8332571,81.2232599 L77.5114155,76.4784814 L78.9082081,69.9085448 L79.7289043,66.0368056 L79.9606302,64.9549961 L80.1955746,65.2713147 L80.2470693,65.3409047 L80.3114376,65.4231476 L82.8861705,68.7919403 L85.5220534,66.0020105 L85.6572269,65.856504 L86.3813705,65.0878499 L86.6549359,64.8 L86.7836725,65.7774244 L87.2471244,69.2917236 L88.1064416,75.773091 L88.6986301,81.9855876 Z" id="Shape" fill="#F0F1F5" fill-rule="nonzero"></path>
                    <path d="M95.890411,79.5961271 C95.6647241,79.7559368 95.4357664,79.9222694 95.2035378,80.0592492 L95.0432675,80.1603533 L94.6998309,80.3723458 C94.6490545,80.4043768 94.5966514,80.4337688 94.5428313,80.4604043 C94.5002344,80.4908834 94.4554077,80.5181381 94.4087275,80.5419399 C93.6880886,79.929084 93.1467937,79.1335603 92.8420027,78.2393749 C92.8035243,78.1258444 92.770775,78.0104628 92.743878,77.893664 C92.7422996,77.8752161 92.7422996,77.8566677 92.743878,77.8382198 L92.557441,78.3274333 L91.9850467,79.7396297 C91.9850467,79.7396297 92.1551296,80.4310515 92.4593162,81.5268898 C92.3524693,81.5768983 92.2434418,81.6225582 92.1322338,81.6638695 C90.9899107,82.1460466 89.8036656,82.5173892 88.589931,82.7727535 C87.4330509,83.0196898 86.2562924,83.162678 85.0737949,83.2 L84.8938996,83.2 C84.7285275,81.6839592 84.6705992,80.1581758 84.7205459,78.6340071 L85.1522947,70.4250042 L85.3714399,66.2829964 L85.4924604,64 C85.4924604,64 85.5349811,64.0456599 85.6167517,64.1206727 C85.6985223,64.1956854 85.7541264,64.2511296 85.8522511,64.339188 C87.3121075,65.61106 89.1511151,66.3686164 91.08557,66.494989 C92.1684926,66.5260619 93.1748677,67.0591621 93.8068959,67.9365381 C94.3980171,68.7746565 94.7783142,69.742242 94.9157053,70.7576694 L95.01383,71.6545609 C95.01383,71.6545609 95.01383,71.6545609 95.01383,71.6545609 L95.0399966,71.9089519 L95.0759757,72.2350943 L95.890411,79.5961271 Z" id="Shape" fill="#000000" fill-rule="nonzero" opacity="0.1"></path>
                    <path d="M96.6894977,79.5149891 L96.5261516,79.6339642 C96.3007341,79.7915257 96.0720496,79.9555183 95.8400981,80.0905711 L95.680019,80.1902529 L95.3369922,80.3992631 C94.5687957,79.7913593 93.9836922,78.988655 93.6447269,78.0776419 C93.6289861,78.0399829 93.6158877,78.0013056 93.6055238,77.9618824 C93.5695877,77.8493385 93.5369185,77.7303634 93.5107831,77.6146039 L93.3768393,77.9586669 L93.1938917,78.4249204 L92.7757258,79.4989114 C92.7757258,79.4989114 92.9684742,80.2706414 93.308234,81.4603919 C93.2396286,81.4925473 93.1742902,81.5247027 93.1024179,81.5504271 C93.0305457,81.5761514 92.890068,81.6436778 92.7757258,81.6854798 C91.6347657,82.1608736 90.4499361,82.5269922 89.2376498,82.778764 C88.0821501,83.0222264 86.9067957,83.163203 85.7257092,83.2 C85.5350924,81.608137 85.4662933,80.0044245 85.5198932,78.4024117 L85.9380591,70.5597052 L86.1602098,66.3795009 L86.2680182,64.4083738 L86.2876197,64 C86.3050019,64.0193011 86.3235479,64.0375555 86.3431574,64.0546642 C87.8481463,65.4766757 89.8151294,66.3296756 91.8969239,66.463105 C92.9629544,66.4932904 93.9556514,67.0043626 94.5888672,67.8490035 C95.1956858,68.6825591 95.5860046,69.6496334 95.7257559,70.6658181 L95.8989027,72.2510802 L95.8989027,72.273589 L95.9348389,72.5951432 L96.6894977,79.5149891 Z" id="Shape" fill="#293158" fill-rule="nonzero"></path>
                    <path d="M79.9086758,64.8 L79.9086758,64.995129 L79.8594324,65.7372592 L79.6870803,68.2771356 C79.6870803,68.2771356 79.5855157,69.0096692 79.5116506,70.660269 C79.4039305,72.835478 79.3392985,76.6037077 79.5885934,82.4 L79.3208322,82.3328244 C78.6929783,82.1622198 78.0774353,81.9638919 77.4742032,81.7378408 C77.1079551,81.597092 76.7447847,81.4435478 76.3908474,81.2804071 C76.3015937,81.2388222 76.2154177,81.2004362 76.1261639,81.1556525 C76.0369102,79.8761178 75.9291902,79.0924028 75.9291902,79.0924028 C75.9291902,79.0924028 75.8460919,79.2011632 75.7199055,79.4122864 C75.6675844,79.498655 75.6029524,79.6042166 75.5352426,79.7321701 L75.5198541,79.7609597 C75.4603516,79.8675875 75.3967455,79.9891433 75.3290357,80.125627 C75.2520928,80.2855689 75.17515,80.4455107 75.1012848,80.6470374 L74.7935133,80.4647037 L74.7442699,80.4359142 C73.4323348,79.6621242 72.2150213,78.7266346 71.1187215,77.6497274 C71.6142336,75.8359869 72.042036,74.0126499 72.1959217,73.7791349 C72.7698222,72.8629058 73.2105739,71.8637148 73.5039507,70.8138132 C73.9190514,69.3697803 74.9357888,68.195613 76.2738943,67.6149764 C77.6547295,66.9423615 78.8893469,65.9845833 79.9025204,64.8 L79.9086758,64.8 Z" id="Shape" fill="#000000" fill-rule="nonzero" opacity="0.1"></path>
                    <path d="M80.6657762,64.8510145 C79.4157219,65.8959687 78.0229862,66.7621359 76.5285038,67.424058 C75.1243105,68.0028013 74.0573573,69.1731397 73.6217551,70.6124638 C73.3138887,71.6589418 72.8513686,72.6548746 72.2491237,73.5681159 C72.0908674,73.8008696 71.6387065,75.6214493 71.1187215,77.4324638 C71.2123834,77.5281159 71.3125047,77.6205797 71.4093963,77.7130435 C72.5598415,78.786439 73.837277,79.7188781 75.2140075,80.4901449 L75.265683,80.5188406 C75.4541004,80.0449725 75.6922441,79.5918758 75.9762216,79.1669565 L75.9923702,79.1414493 C76.1054104,78.9756522 76.1764643,78.8863768 76.1764643,78.8863768 C76.1764643,78.8863768 76.2055317,79.0968116 76.2475181,79.4762319 C76.2895045,79.8556522 76.3444097,80.4327536 76.3960853,81.1023188 L76.677071,81.2266667 C76.7675032,81.2713043 76.8579353,81.3095652 76.954827,81.3510145 C77.3262449,81.5136232 77.7073519,81.6698551 78.0916887,81.8069565 C78.7182545,82.0343961 79.3641987,82.2320773 80.0295212,82.4 C79.7646841,76.68 79.8228191,72.9113043 79.9293998,70.6889855 C80.0133726,68.8971014 80.1264128,68.1031884 80.1264128,68.1031884 L80.5365874,65.7756522 L80.6528573,65.1188406 L80.7077626,64.8 L80.6657762,64.8510145 Z" id="Shape" fill="#293158" fill-rule="nonzero"></path>
                    <path d="M82.8009306,63.9999972 C82.0412442,64.0007766 81.2913439,63.8362969 80.6080879,63.5190291 C80.4900406,62.6825208 80.2547956,61.8649747 79.9086758,61.0883648 L86.3013699,59.2 C86.0683586,60.3702655 86.0239212,61.567679 86.1695966,62.7507713 C85.2485997,63.5532339 84.0474308,63.9986717 82.8009306,63.9999972 Z" id="Shape" fill="#000000" fill-rule="nonzero" opacity="0.1"></path>
                    <ellipse id="Oval" fill="#E0A17E" fill-rule="nonzero" cx="83.1050228" cy="59.2" rx="4.79452055" ry="4.8"></ellipse>
                    <g id="Group" opacity="0.1" transform="translate(91.894977, 77.600000)" fill="#000000" fill-rule="nonzero">
                        <path d="M0.743150685,4.46057143 C0.275684932,3.05142857 0.0159817352,2.12571429 0.0159817352,2.12571429 L0.914954338,0.116571429 C0.985325279,0.398961976 1.08838619,0.674615632 1.22260274,0.939428571 L1.24257991,0.984 L0.731164384,2.12914286 C0.731164384,2.12914286 0.966894977,2.952 1.38242009,4.22057143 C1.29851598,4.25485714 1.21860731,4.28914286 1.13070776,4.31657143 C1.04280822,4.344 0.871004566,4.416 0.743150685,4.46057143 Z" id="Shape"></path>
                    </g>
                    <path d="M97.4647464,72.4650069 C97.4647464,72.4650069 97.0415232,68.3443513 97.4647464,66.3549606 C97.8879697,64.3655699 92.5208718,66.6387089 93.6494671,69.3374703 C94.2533502,70.83355 95.0108984,72.262137 95.9097928,73.6 L97.4647464,72.4650069 Z" id="Shape" fill="#E0A17E" fill-rule="nonzero"></path>
                    <path d="M99.8351665,76.2237124 C98.8516491,77.4159963 97.738706,78.4839843 96.5189112,79.4060145 L96.3605418,79.5287936 C96.1419921,79.691393 95.9202749,79.8606291 95.6953904,80 C95.1848425,79.3655052 94.7290616,78.6847834 94.3334135,77.9658486 L94.2922374,77.8895264 L95.4356645,71.6078811 L95.5560253,71.7372969 C95.6067035,71.7870722 95.6732186,71.8534393 95.7524033,71.9198064 L95.7682403,71.9198064 C96.3605418,72.4507432 97.6116601,73.2471483 98.2134639,71.3955064 C98.3151543,71.0713523 98.3883094,70.7381266 98.4320136,70.4 L98.549207,70.8579329 L98.6188895,71.1267197 L99.8858447,76.1341168 L99.8351665,76.2237124 Z" id="Shape" fill="#000000" fill-rule="nonzero" opacity="0.1"></path>
                    <path d="M99.8858447,76.3675141 C98.8934398,77.484081 97.7703087,78.4841682 96.5392694,79.3474576 L96.3794521,79.4624294 C96.1589041,79.6146893 95.9351598,79.7731638 95.7082192,79.9036723 L95.5515982,80 C95.0830297,79.4350588 94.6618889,78.8344463 94.2922374,78.2039548 L94.33379,77.9957627 L95.4461187,72.3217514 C95.4461187,72.3217514 95.503653,72.3870056 95.6027397,72.4771186 L95.8009132,72.6480226 C95.8840183,72.7163842 95.9799087,72.7909605 96.0853881,72.859322 C96.747032,73.300565 97.7538813,73.6330508 98.2652968,72.0824859 C98.3594846,71.7945958 98.4279275,71.4993374 98.469863,71.2 L98.616895,71.7282486 L99.8858447,76.3675141 Z" id="Shape" fill="#293158" fill-rule="nonzero"></path>
                    <path d="M99.8858447,76.3675141 C98.8934398,77.484081 97.7703087,78.4841682 96.5392694,79.3474576 L96.3794521,79.4624294 C96.1589041,79.6146893 95.9351598,79.7731638 95.7082192,79.9036723 L95.5515982,80 C95.0830297,79.4350588 94.6618889,78.8344463 94.2922374,78.2039548 L94.33379,77.9957627 L95.4461187,72.3217514 C95.4461187,72.3217514 95.503653,72.3870056 95.6027397,72.4771186 L95.8009132,72.6480226 C95.8840183,72.7163842 95.9799087,72.7909605 96.0853881,72.859322 C96.747032,73.300565 97.7538813,73.6330508 98.2652968,72.0824859 C98.3594846,71.7945958 98.4279275,71.4993374 98.469863,71.2 L98.616895,71.7282486 L99.8858447,76.3675141 Z" id="Shape" fill="#000000" fill-rule="nonzero" opacity="0.02"></path>
                    <path d="M75.9266495,78.8028777 L75.913242,78.8258993 C75.913242,78.8115108 75.913242,78.7942446 75.913242,78.7827338 C76.0821765,78.152518 76.2350219,77.7266187 76.3717784,77.6 C76.3717784,77.6 76.5514388,78.8805755 76.7123288,80.8 C76.6345653,80.7625899 76.5594833,80.7280576 76.4817198,80.6877698 L76.2484294,80.5755396 C76.2082069,79.9568345 76.1653029,79.4532374 76.1250804,79.1079137 C76.084858,78.7625899 76.0660875,78.5755396 76.0660875,78.5755396 C76.0660875,78.5755396 76.020502,78.6532374 75.9266495,78.8028777 Z" id="Shape" fill="#000000" fill-rule="nonzero" opacity="0.1"></path>
                    <path d="M82.5229012,57.7556645 C82.7647749,57.6158847 83.0432751,57.5629422 83.3162503,57.6048499 C83.4341865,57.6573109 83.5402248,57.7355318 83.6273676,57.8343505 C83.9913748,58.1982728 84.3522709,58.6212096 84.8438362,58.7326814 C85.147421,58.7813178 85.4571055,58.7668382 85.7554099,58.6900598 C86.2788192,58.6263131 86.7869099,58.463018 87.2549953,58.2081086 C88.2972383,57.5523926 88.6301338,56.1327675 88.6954684,54.8573999 C88.7172466,54.427906 88.6332449,53.873826 88.2319036,53.7820257 C87.7216713,53.6672754 87.3483305,54.4836418 86.8318758,54.3951202 C86.6748798,54.3549515 86.5335706,54.2644584 86.4274233,54.1361124 C86.0758608,53.7656328 85.8363004,53.2902387 85.4940714,52.9164806 C84.9469243,52.3776209 84.2381032,52.0574945 83.490476,52.0115926 C82.7489347,51.9691982 82.0055327,52.0432293 81.2846543,52.2312574 C80.8871449,52.300406 80.5033572,52.4389123 80.1490762,52.6410799 C79.7938601,52.8458227 79.543152,53.206093 79.4646181,53.6246539 C79.4303952,53.9098903 79.5019522,54.2049625 79.4490623,54.4869204 C79.3433434,54.8718966 79.0910539,55.1935456 78.7521595,55.3754156 C78.4410422,55.5786875 78.0739238,55.7032735 77.7690289,55.9524456 C77.2844562,56.3491685 76.9483946,56.9134774 76.8201211,57.5458354 C76.6956932,58.1747708 76.6788357,58.8220671 76.7703423,59.4572475 C76.8980248,60.5607852 77.1899057,61.6362316 77.6352484,62.6440272 C77.7824473,62.995816 77.9716862,63.326349 78.1983707,63.6276011 C78.5310694,64.0101609 78.9133706,64.3412887 79.3339489,64.6111751 C79.4882164,64.758683 79.6974184,64.8249411 79.9032935,64.791497 C79.9615575,64.7694619 80.0153791,64.7360985 80.0619634,64.6931396 C80.4601935,64.3423315 80.4975276,63.7095656 80.3730807,63.1751571 C80.2486337,62.6407486 80.037074,62.1325687 80.0121846,61.5883244 C79.9962901,61.4355728 80.0244811,61.2813204 80.0930751,61.1457162 C80.1760491,61.0360298 80.2699182,60.9360107 80.3730807,60.8473654 C80.5078223,60.6840892 80.6132453,60.4963376 80.684198,60.2932854 C80.9222112,59.79165 81.0848918,59.2541209 81.1664298,58.6998956 C81.2114766,58.2435045 81.1166185,57.7839077 80.8957577,57.3884636 C81.3312525,57.8199782 81.9579085,57.961397 82.5229012,57.7556645 Z" id="Shape" fill="#000000" fill-rule="nonzero" opacity="0.1"></path>
                    <path d="M82.5229012,57.7556645 C82.7647749,57.6158847 83.0432751,57.5629422 83.3162503,57.6048499 C83.4341865,57.6573109 83.5402248,57.7355318 83.6273676,57.8343505 C83.9913748,58.1982728 84.3522709,58.6212096 84.8438362,58.7326814 C85.147421,58.7813178 85.4571055,58.7668382 85.7554099,58.6900598 C86.2788192,58.6263131 86.7869099,58.463018 87.2549953,58.2081086 C88.2972383,57.5523926 88.6301338,56.1327675 88.6954684,54.8573999 C88.7172466,54.427906 88.6332449,53.873826 88.2319036,53.7820257 C87.7216713,53.6672754 87.3483305,54.4836418 86.8318758,54.3951202 C86.6748798,54.3549515 86.5335706,54.2644584 86.4274233,54.1361124 C86.0758608,53.7656328 85.8363004,53.2902387 85.4940714,52.9164806 C84.9469243,52.3776209 84.2381032,52.0574945 83.490476,52.0115926 C82.7489347,51.9691982 82.0055327,52.0432293 81.2846543,52.2312574 C80.8871449,52.300406 80.5033572,52.4389123 80.1490762,52.6410799 C79.7938601,52.8458227 79.543152,53.206093 79.4646181,53.6246539 C79.4303952,53.9098903 79.5019522,54.2049625 79.4490623,54.4869204 C79.3433434,54.8718966 79.0910539,55.1935456 78.7521595,55.3754156 C78.4410422,55.5786875 78.0739238,55.7032735 77.7690289,55.9524456 C77.2844562,56.3491685 76.9483946,56.9134774 76.8201211,57.5458354 C76.6956932,58.1747708 76.6788357,58.8220671 76.7703423,59.4572475 C76.8980248,60.5607852 77.1899057,61.6362316 77.6352484,62.6440272 C77.7824473,62.995816 77.9716862,63.326349 78.1983707,63.6276011 C78.5310694,64.0101609 78.9133706,64.3412887 79.3339489,64.6111751 C79.4882164,64.758683 79.6974184,64.8249411 79.9032935,64.791497 C79.9615575,64.7694619 80.0153791,64.7360985 80.0619634,64.6931396 C80.4601935,64.3423315 80.4975276,63.7095656 80.3730807,63.1751571 C80.2486337,62.6407486 80.037074,62.1325687 80.0121846,61.5883244 C79.9962901,61.4355728 80.0244811,61.2813204 80.0930751,61.1457162 C80.1760491,61.0360298 80.2699182,60.9360107 80.3730807,60.8473654 C80.5078223,60.6840892 80.6132453,60.4963376 80.684198,60.2932854 C80.9222112,59.79165 81.0848918,59.2541209 81.1664298,58.6998956 C81.2114766,58.2435045 81.1166185,57.7839077 80.8957577,57.3884636 C81.3312525,57.8199782 81.9579085,57.961397 82.5229012,57.7556645 Z" id="Shape" fill="#463E3B" fill-rule="nonzero"></path>
                    <ellipse id="Oval" fill="#CD9494" fill-rule="nonzero" cx="56.7351598" cy="178" rx="7.99086758" ry="2.8"></ellipse>
                    <ellipse id="Oval" fill="#000000" fill-rule="nonzero" opacity="0.05" cx="56.7351598" cy="178.4" rx="3.99543379" ry="1.6"></ellipse>
                    <path d="M48.3720963,177.6 C48.3720963,177.6 57.3833136,182.479908 64.7260274,178.25192 C64.7260274,178.25192 63.7262238,195.173364 58.7174672,196.8 L52.0466993,196.8 C52.0466993,196.8 46.372489,185.397725 48.3720963,177.6 Z" id="Shape" fill="#FF7361" fill-rule="nonzero"></path>
                    <path d="M63.5794069,146.614928 C65.8665464,154.873739 56.11628,178.4 56.11628,178.4 C56.11628,178.4 35.6096645,163.052616 33.322525,154.797002 C31.0365232,146.538959 35.9565863,138.012873 44.3117935,135.753456 C52.6670007,133.494039 61.2934051,138.356885 63.5794069,146.614928 Z" id="Shape" fill="rgb(53	114	241)" fill-rule="nonzero"></path>
                    <path d="M63.5794069,146.614928 C65.8665464,154.873739 56.11628,178.4 56.11628,178.4 C56.11628,178.4 35.6096645,163.052616 33.322525,154.797002 C31.0365232,146.538959 35.9565863,138.012873 44.3117935,135.753456 C52.6670007,133.494039 61.2934051,138.356885 63.5794069,146.614928 Z" id="Shape" fill="#000000" fill-rule="nonzero" opacity="0.1"></path>
                    <path d="M44.7488584,136 C44.7488584,136 57.6542974,154.938052 56.6829555,178.4" id="Shape" stroke="#535461" stroke-width="0.5"></path>
                    <path d="M66.8256815,161.572417 C66.8256815,161.572417 55.4067258,155.318684 56.8635831,178.4 C56.8635831,178.4 66.3793795,178.056318 69.7553355,170.235137 C71.1205735,167.087282 69.934856,163.408035 66.9946387,161.668776 L66.8256815,161.572417 Z" id="Shape" fill="rgb(53	114	241)" fill-rule="nonzero"></path>
                    <path d="M67.1232877,161.6 C67.1232877,161.6 65.6159651,173.588521 56.7351598,178.4" id="Shape" stroke="#535461" stroke-width="0.5"></path>
                    <path d="M63.6493968,178.955389 C63.3299218,182.81487 61.9529847,194.801228 57.8285629,196.153615 L51.9406393,196.153615 C52.1291295,196.564666 52.2441405,196.8 52.2441405,196.8 L58.8157405,196.8 C63.7388498,195.184038 64.7260274,178.4 64.7260274,178.4 C64.3769708,178.60294 64.0176296,178.788309 63.6493968,178.955389 Z" id="Shape" fill="#000000" fill-rule="nonzero" opacity="0.05"></path>
                    <rect id="Rectangle-path" fill="#DDE1EC" fill-rule="nonzero" x="137.442922" y="151.2" width="67.1232877" height="39.2"></rect>
                    <path d="M314.833816,75.0883496 C314.842305,74.9625922 314.842305,74.8364054 314.833816,74.710648 C314.718599,73.1486281 313.233578,72.0187243 311.761358,71.4169626 C310.289139,70.8152008 308.644093,70.5207216 307.341499,69.6084764 C305.13957,68.0656616 304.461069,65.1816863 304.26264,62.5441772 C304.20183,61.7247569 304.176227,60.9053366 304.173026,60.0827155 C304.169826,59.2600943 304.224234,58.3510499 304.301045,57.4868176 C304.429064,56.0528321 304.640296,54.5676328 304.621093,53.1304464 C304.695806,51.7591835 304.432014,50.3905992 303.852978,49.1453751 C302.547184,46.5654815 299.615546,45.246727 296.901541,44.1232249 C295.858186,43.6911088 294.789226,43.2525909 293.656257,43.204578 C292.459279,43.1533642 291.294305,43.5406683 290.161336,43.9247716 C288.362668,44.5329351 286.538396,45.3235476 284.678918,45.7364586 C283.635563,45.9669206 282.492992,45.7940741 281.478441,46.1621731 C279.487744,46.8919693 279.06208,48.6812503 279.094085,50.6433778 C279.094085,50.7682114 279.094085,50.8898441 279.094085,51.0146776 C278.895655,50.8322286 278.690825,50.6593821 278.482794,50.4929374 L278.361176,50.3969115 C278.147811,50.2240651 277.920577,50.0608212 277.679474,49.9071799 L277.564257,49.8335601 C277.07521,49.5165401 276.562716,49.2372565 276.031228,48.9981355 L275.951216,48.962926 C275.68451,48.8455611 275.413536,48.7388658 275.138295,48.64284 L275.087087,48.6236348 C274.51739,48.4250453 273.933152,48.270942 273.339627,48.1627109 C269.542524,47.4589374 265.64362,48.6843853 262.931674,51.4339903 L260.732946,53.6745927 C250.737855,51.4339903 250.289788,60.1179249 250.289788,60.1179249 L250.363399,60.1019206 L250.337795,60.162737 C250.565453,61.2616068 250.852855,62.3472433 251.198724,63.4148113 L174.01281,142.261608 L166.210046,166.44731 L170.591499,164.885291 L190.607285,157.734568 L262.278777,84.5116829 C267.642777,88.3239078 273.218008,93.4324812 273.218008,93.4324812 C273.218008,93.4324812 269.761493,95.2601726 271.041684,103.633624 C272.606717,113.876377 270.254366,128.456297 270.254366,128.456297 L270.254366,137.886032 L270.696032,137.764399 C270.641624,138.084485 270.584016,138.404571 270.529607,138.77267 C269.800644,143.510516 269.708077,148.324546 270.254366,153.086919 C271.438543,163.092809 276.168849,176.754081 276.168849,176.754081 C276.168849,176.754081 277.941913,181.555372 278.338772,185.412409 C278.401184,186.174144 278.571443,186.923154 278.844448,187.637007 C279.734364,189.752918 280.203965,192.021841 280.227054,194.317203 C280.227054,198.503929 280.774336,204.787218 283.267508,211.198541 C285.267806,216.345525 286.007116,219.360736 286.227949,221.121209 C284.810138,222.996913 282.957061,225.042263 281.494443,225.247118 C278.735632,225.631221 273.410037,226.015325 276.959367,230.634166 C277.083196,230.792738 277.221404,230.939534 277.372228,231.072684 C274.677426,231.508001 271.713784,232.46826 274.594214,236.213266 C278.143543,240.832108 299.042661,238.716339 299.042661,238.716339 C299.042661,238.716339 299.177081,236.155651 299.042661,233.332492 C300.50848,233.230064 301.414215,233.137239 301.414215,233.137239 C301.414215,233.137239 302.006303,221.975839 299.442721,220.628276 C298.968918,220.679956 298.504023,220.794041 298.060114,220.967568 C297.784873,219.424753 297.573642,217.507437 297.442422,216.086255 L298.456973,216.009435 L298.456973,199.268934 C298.456973,199.268934 297.272797,188.878941 292.93615,184.260099 C292.383272,183.683284 291.906769,183.03783 291.518338,182.339583 C291.550343,181.004824 291.553544,179.138722 291.537541,176.984543 C291.70994,176.693276 291.915033,176.42265 292.148832,176.177926 C292.148832,176.177926 294.513985,173.297152 302.598391,155.010636 C307.367103,144.226937 306.304544,138.001263 304.630694,134.704377 C304.310647,133.532862 303.478523,130.187963 302.39036,124.029507 C301.010954,116.139386 302.58879,108.441316 302.58879,108.441316 C302.58879,108.441316 307.709554,95.1641467 310.081107,89.7770985 C310.630273,88.4794865 310.858622,87.068609 310.746807,85.6639927 C311.364499,85.2126714 311.662143,84.4604692 311.927783,83.7434764 L314.356945,77.2617339 C314.619384,76.5607454 314.888225,75.8309492 314.830616,75.0851487 L314.833816,75.0883496 Z M281.843295,63.4180121 C282.107208,63.8298125 282.401397,64.2213989 282.723426,64.5895271 C282.723426,64.5895271 282.361772,64.2118255 281.763283,63.603662 C281.792088,63.5428457 281.817691,63.4788285 281.843295,63.4180121 Z M269.899113,76.7239893 L276.584911,69.893353 C278.895655,72.0059209 281.369624,74.1633009 283.437133,75.9397785 C283.240174,76.8500808 282.97922,77.7453452 282.656216,78.6188987 C281.760083,79.0638183 280.575906,79.2078571 279.135691,78.4236462 C276.853751,77.1913149 272.641923,76.8264168 269.899113,76.7239893 Z" id="Shape" fill="url(#linearGradient-4)" fill-rule="nonzero"></path>
                    <path d="M264.213953,51.2 C264.213953,51.2 259.271317,54.0451134 260.793355,58.042275 C260.793355,58.042275 265.927443,59.5603053 268.017453,63.3537899 C270.107464,67.1472745 286.272339,80.8 286.272339,80.8 L298.059361,74.9092786 C298.059361,74.9092786 293.959111,69.4481884 280.988282,65.6356091 C280.988282,65.6356091 273.330228,57.459886 270.678627,55.9450382 C268.027026,54.4301903 264.213953,51.2 264.213953,51.2 Z" id="Shape" fill="#FEBDD5" fill-rule="nonzero"></path>
                    <path d="M264.213953,51.2 C264.213953,51.2 259.271317,54.0451134 260.793355,58.042275 C260.793355,58.042275 265.927443,59.5603053 268.017453,63.3537899 C270.107464,67.1472745 286.272339,80.8 286.272339,80.8 L298.059361,74.9092786 C298.059361,74.9092786 293.959111,69.4481884 280.988282,65.6356091 C280.988282,65.6356091 273.330228,57.459886 270.678627,55.9450382 C268.027026,54.4301903 264.213953,51.2 264.213953,51.2 Z" id="Shape" fill="#000000" fill-rule="nonzero" opacity="0.05"></path>
                    <path d="M176.153542,142.392803 L262.170386,52.2312307 C266.403437,47.8002671 273.420884,47.6396624 277.851707,51.8723404 C282.27699,56.1108254 282.437389,63.1372796 278.210137,67.5737906 L192.206094,157.74818 L168.607306,166.4 L176.153542,142.392803 Z" id="Shape" fill="rgb(53	114	241)" fill-rule="nonzero"></path>
                    <path d="M273.155326,50.9790771 C277.57973,55.2212373 277.740097,62.2537841 273.513685,66.694142 L187.517139,156.933893 L169.803969,163.428384 L168.607306,167.2 L192.201402,158.540679 L278.210747,68.3329988 C282.437158,63.8926408 282.276792,56.860094 277.852388,52.6179339 C276.080789,50.9163828 273.794379,49.8545559 271.353933,49.6 C271.999611,49.9971106 272.603198,50.4591939 273.155326,50.9790771 Z" id="Shape" fill="#FFFFFF" fill-rule="nonzero" opacity="0.1"></path>
                    <polygon id="Shape" fill="#EFC8C4" fill-rule="nonzero" points="176.017551 142.4 191.780822 157.753719 172.768105 164.848925 168.607306 166.4 171.243945 157.865883"></polygon>
                    <path d="M171.493692,158.4 C172.122215,158.517819 172.721782,158.749869 173.260449,159.083784 C173.883607,159.516517 174.335568,160.266366 174.16437,160.986486 C173.995874,161.434949 173.755565,161.855163 173.452189,162.231832 C172.825326,163.252307 172.715633,164.493045 173.154306,165.601201 L168.607306,167.2 L171.493692,158.4 Z" id="Shape" fill="#727A9C" fill-rule="nonzero"></path>
                    <path d="M294.841867,213.609882 C294.841867,213.609882 295.423973,222.247059 296.393065,223.228706 C297.362158,224.210353 287.671233,224.8 287.671233,224.8 L289.027312,213.6 L294.841867,213.609882 Z" id="Shape" fill="#FFB9B9" fill-rule="nonzero"></path>
                    <path d="M294.841867,213.609882 C294.841867,213.609882 295.423973,222.247059 296.393065,223.228706 C297.362158,224.210353 287.671233,224.8 287.671233,224.8 L289.027312,213.6 L294.841867,213.609882 Z" id="Shape" fill="#000000" fill-rule="nonzero" opacity="0.05"></path>
                    <path d="M296.902192,220.209426 C296.902192,220.209426 295.571663,220.209426 290.817495,222.634253 C290.817495,222.634253 287.585299,222.074196 286.254771,217.6 C286.254771,217.6 282.263184,224.311295 279.598936,224.683623 C276.934688,225.055951 271.804016,225.428279 275.224464,229.905605 C278.644912,234.38293 298.800668,232.330432 298.800668,232.330432 C298.800668,232.330432 299.374997,221.51414 296.902192,220.209426 Z" id="Shape" fill="#CBCDDA" fill-rule="nonzero"></path>
                    <path d="M296.902192,220.209426 C296.902192,220.209426 295.571663,220.209426 290.817495,222.634253 C290.817495,222.634253 287.585299,222.074196 286.254771,217.6 C286.254771,217.6 282.263184,224.311295 279.598936,224.683623 C276.934688,225.055951 271.804016,225.428279 275.224464,229.905605 C278.644912,234.38293 298.800668,232.330432 298.800668,232.330432 C298.800668,232.330432 299.374997,221.51414 296.902192,220.209426 Z" id="Shape" fill="#000000" fill-rule="nonzero" opacity="0.05"></path>
                    <path d="M294.863014,226.836804 L293.491307,230.4 L284.474886,227.960533 L284.988042,224.422518 L285.113042,223.569492 L285.441988,221.208717 C285.441988,221.208717 293.086703,219.320097 293.086703,220.264407 C293.190212,221.037823 293.358517,221.802026 293.589991,222.549637 C293.918937,223.701695 294.297226,225.017433 294.57683,225.883051 C294.747882,226.462228 294.863014,226.836804 294.863014,226.836804 Z" id="Shape" fill="#FFB9B9" fill-rule="nonzero"></path>
                    <path d="M289.791274,176.888028 C289.196879,177.902267 288.526604,179.803167 289.775465,182.176102 C290.145004,182.86298 290.599725,183.499605 291.128662,184.070623 C295.273617,188.631507 296.405496,198.895091 296.405496,198.895091 L296.405496,215.429092 L293.578959,215.649163 L289.057765,216 L282.260166,187.875612 C282.260166,187.875612 278.304912,167.348445 280.18927,163.738011 C282.073627,160.127577 283.768285,137.511334 283.768285,137.511334 L285.333313,135.878346 L289.045119,132 L299.794811,132 C300.654112,132.621816 301.367542,133.426434 301.884677,134.356988 C303.686831,137.36781 305.305608,143.628659 300.36075,155.187151 C292.63678,173.242511 290.376184,176.09386 290.376184,176.09386 C290.1521,176.335443 289.955878,176.601866 289.791274,176.888028 Z" id="Shape" fill="#4C4C78" fill-rule="nonzero"></path>
                    <path d="M289.791274,176.888028 C289.196879,177.902267 288.526604,179.803167 289.775465,182.176102 C290.145004,182.86298 290.599725,183.499605 291.128662,184.070623 C295.273617,188.631507 296.405496,198.895091 296.405496,198.895091 L296.405496,215.429092 L293.578959,215.649163 L289.057765,216 L282.260166,187.875612 C282.260166,187.875612 278.304912,167.348445 280.18927,163.738011 C282.073627,160.127577 283.768285,137.511334 283.768285,137.511334 L285.333313,135.878346 L289.045119,132 L299.794811,132 C300.654112,132.621816 301.367542,133.426434 301.884677,134.356988 C303.686831,137.36781 305.305608,143.628659 300.36075,155.187151 C292.63678,173.242511 290.376184,176.09386 290.376184,176.09386 C290.1521,176.335443 289.955878,176.601866 289.791274,176.888028 Z" id="Shape" fill="#000000" fill-rule="nonzero" opacity="0.05"></path>
                    <path d="M292.465753,222.864198 L284.474886,224 L284.784489,221.354497 C284.784489,221.354497 291.979676,219.238095 291.979676,220.296296 C292.080824,221.165763 292.243377,222.024516 292.465753,222.864198 Z" id="Shape" fill="#000000" fill-rule="nonzero" opacity="0.1"></path>
                    <path d="M288.71487,153.155033 C288.71487,153.155033 289.185582,168.228225 289.265094,177.700783 C289.280996,179.843998 289.265094,181.701236 289.249191,183.028294 C289.260405,183.731972 289.209314,184.435253 289.096528,185.129737 C288.527221,186.85202 289.665835,190.682172 289.665835,190.682172 C294.404761,203.319748 293.078498,214.424619 293.078498,214.424619 L293.078498,222.849669 L283.975944,224 C283.975944,224 285.493036,222.849669 281.323418,211.744798 C278.928511,205.363352 278.410092,199.113649 278.40055,194.946109 C278.3786,192.66599 277.927429,190.410913 277.071107,188.30118 C276.813331,187.58773 276.654912,186.841558 276.600394,186.084062 C276.221916,182.253909 274.517175,177.466219 274.517175,177.466219 C274.517175,177.466219 269.969079,163.871106 268.830465,153.913352 C268.305027,149.173893 268.39377,144.385435 269.094445,139.669169 C269.262165,138.470361 269.490398,137.280993 269.77825,136.105714 C269.77825,136.105714 288.304587,124.326067 295.301658,132.468354 C295.978807,133.263705 296.516611,134.169993 296.891902,135.148176 C297.276023,136.113644 297.575088,137.111467 297.785619,138.130039 C299.935628,148.945721 288.71487,153.155033 288.71487,153.155033 Z" id="Shape" fill="#4C4C78" fill-rule="nonzero"></path>
                    <ellipse id="Oval" fill="#FFB9B9" fill-rule="nonzero" cx="288.47032" cy="59.2" rx="9.5890411" ry="9.6"></ellipse>
                    <path d="M282.698091,65.0908729 C282.698091,65.0908729 286.721892,76.2638998 282.698091,82.1332344 C278.674289,88.0025691 295.538231,86.1086203 295.538231,86.1086203 L302.054795,78.3453368 C302.054795,78.3453368 294.386735,78.3453368 294.013625,65.0908729 C293.640514,51.8364089 282.698091,65.0908729 282.698091,65.0908729 Z" id="Shape" fill="#FFB9B9" fill-rule="nonzero"></path>
                    <path d="M302.054795,137.308463 C300.686665,137.804993 299.279622,138.174795 297.849839,138.413619 C295.500383,138.791961 292.729799,138.808555 291.108611,137.308463 C290.158696,136.419028 287.780743,136.312827 284.937332,136.594924 C278.949703,137.195624 270.843765,139.538688 269.292237,140 C269.459214,138.761804 269.686434,137.533358 269.97301,136.319464 C269.97301,136.319464 288.417186,124.152788 295.383227,132.562596 L299.407699,132.562596 C300.26828,133.209632 300.982773,134.046885 301.500678,135.015181 C301.852146,136.588286 302.054795,137.308463 302.054795,137.308463 Z" id="Shape" fill="#000000" fill-rule="nonzero" opacity="0.1"></path>
                    <path d="M294.863014,227.384939 L293.491307,231.2 L284.474886,228.588099 L284.988042,224.8 C286.53738,228.311743 289.17882,228.78694 289.17882,228.78694 C292.027496,227.270353 293.685386,226.633386 294.573541,226.367141 C294.747882,226.983886 294.863014,227.384939 294.863014,227.384939 Z" id="Shape" fill="#000000" fill-rule="nonzero" opacity="0.1"></path>
                    <path d="M294.502577,225.809042 C294.502577,225.809042 293.172103,225.809042 288.418129,228.233511 C288.418129,228.233511 285.186065,227.673537 283.855591,223.2 C283.855591,223.2 279.864167,229.910305 277.200028,230.282578 C274.535888,230.654852 269.405425,231.020868 272.828924,235.50379 C276.252423,239.986712 296.404167,237.928259 296.404167,237.928259 C296.404167,237.928259 296.975282,227.113563 294.502577,225.809042 Z" id="Shape" fill="#CBCDDA" fill-rule="nonzero"></path>
                    <path d="M249.315068,60.8 C249.315068,60.8 249.759428,52.6416581 259.703196,54.7472324 L257.152246,59.1555889 L249.315068,60.8 Z" id="Shape" fill="#FFB9B9" fill-rule="nonzero"></path>
                    <path d="M295.025441,81.0589817 C295.025441,81.0589817 285.700193,79.5289042 283.22517,77.6171092 C283.22517,77.6171092 281.309024,81.2482366 277.895089,79.3364416 C274.481154,77.4246467 266.478048,77.6171092 266.478048,77.6171092 C266.478048,77.6171092 259.816245,73.9859819 258.494104,65.764622 C258.494104,65.764622 257.162382,60.7958797 257.53603,59.4582647 C257.53603,59.4582647 252.589178,54.2970599 250.114155,61.1775971 C251.072229,65.9570845 251.825913,65.5753671 251.637492,69.3957493 L254.680972,77.8063641 C254.680972,77.8063641 254.872586,80.6740566 260.391089,84.4976465 C265.909591,88.3212364 272.191359,94.2458762 272.191359,94.2458762 C272.191359,94.2458762 268.860457,96.0614399 270.099565,104.375823 C271.610128,114.537848 269.339494,129.033488 269.339494,129.033488 L269.339494,138.4 C269.339494,138.4 288.370024,132.857078 291.605119,135.72477 C294.840213,138.592463 302.642124,135.72477 302.642124,135.72477 C302.642124,135.72477 301.68405,132.47536 300.358716,124.638925 C299.033381,116.802491 300.55033,109.155311 300.55033,109.155311 C300.55033,109.155311 305.497182,95.9652086 307.780591,90.6147489 C310.063999,85.2642891 306.068833,77.9988267 302.070473,75.3235968 C298.072114,72.6483669 296.5871,74.2554295 296.5871,74.2554295 C296.5871,74.2554295 303.577842,79.3396493 295.025441,81.0589817 Z" id="Shape" fill="#FEBDD5" fill-rule="nonzero"></path>
                    <path d="M278.040363,56.8847832 C278.037423,57.2802346 278.105025,57.6730955 278.24006,58.0452844 C278.463794,58.4685682 278.76908,58.8444032 279.138694,59.1515865 C280.575221,60.5416374 281.837818,62.19312 282.343501,64.118787 C282.684917,65.4227568 282.665592,66.7873022 282.646267,68.1359067 C282.562523,73.5909003 282.324175,79.4794878 278.929335,83.7580392 C277.679621,85.3361934 276.069166,86.5891522 274.558558,87.9250039 C274.346426,88.0820098 274.187035,88.2986674 274.101189,88.546701 C274.059265,88.806179 274.109338,89.0720228 274.242909,89.2991139 C274.945068,90.7433641 276.423466,91.629681 277.824562,92.433105 C278.468745,92.7997469 279.138694,93.1791415 279.879504,93.2014589 C281.625238,93.2588463 282.778324,91.4320132 284.366233,90.7146704 C286.678848,89.668944 289.271681,91.1227588 291.568191,92.2067435 C293.23015,92.9899048 294.973256,93.591763 296.766742,94.0016946 C299.224297,94.5628161 302.000723,94.6999083 304.068548,93.2747872 C305.263947,92.4410892 306.080596,91.1758921 306.342511,89.751837 C306.509999,88.8240736 306.484231,87.7464653 307.192832,87.1183918 C307.560016,86.7995727 308.059257,86.6592924 308.452208,86.3723552 C309.067402,85.9260086 309.357284,85.1767839 309.618178,84.4594411 L311.982327,78.0607431 C312.287008,77.3845572 312.443964,76.6522951 312.442917,75.9119029 C312.330185,74.372007 310.893659,73.2529522 309.453911,72.6599488 C308.014164,72.0669454 306.419813,71.7768201 305.150774,70.8745622 C303.008868,69.3506072 302.34536,66.5035533 302.152106,63.8988018 C302.020044,62.109953 302.032969,60.3135068 302.190756,58.5267012 C302.425883,55.877315 302.947671,53.0525784 301.755933,50.6678121 C300.483673,48.1172599 297.629946,46.8196664 294.99202,45.7101762 C293.977433,45.2829587 292.933857,44.852553 291.832306,44.8047301 C290.666336,44.7537191 289.532575,45.1235492 288.431023,45.5156966 C286.678848,46.1182645 284.888021,46.896183 283.093973,47.3042713 C282.079386,47.533821 280.964951,47.3616588 279.985794,47.7251125 C276.388036,49.0641524 278.040363,54.0186001 278.040363,56.8847832 Z" id="Shape" fill="#000000" fill-rule="nonzero" opacity="0.1"></path>
                    <path d="M278.043584,56.8975359 C278.040644,57.2929873 278.108246,57.6858483 278.243281,58.0580372 C278.467015,58.4813209 278.772301,58.8571559 279.141915,59.1643392 C280.578441,60.5543902 281.841039,62.2058728 282.346722,64.1315397 C282.688138,65.4355096 282.668813,66.800055 282.649487,68.1486595 C282.565744,73.6036531 282.327396,79.4922406 278.932556,83.770792 C277.682842,85.3489462 276.072387,86.6019049 274.561779,87.9377567 C274.350517,88.0909135 274.190162,88.3029181 274.101189,88.546701 C274.059265,88.806179 274.109338,89.0720228 274.242909,89.2991139 C274.945068,90.7433641 276.423466,91.629681 277.824562,92.433105 C278.468745,92.7997469 279.138694,93.1791415 279.879504,93.2014589 C281.625238,93.2588463 282.778324,91.4320132 284.366233,90.7146704 C286.678848,89.668944 289.271681,91.1227588 291.568191,92.2067435 C293.23015,92.9899048 294.973256,93.591763 296.766742,94.0016946 C299.224297,94.5628161 302.000723,94.6999083 304.068548,93.2747872 C305.263947,92.4410892 306.080596,91.1758921 306.342511,89.751837 C306.509999,88.8240736 306.484231,87.7464653 307.192832,87.1183918 C307.560016,86.7995727 308.059257,86.6592924 308.452208,86.3723552 C309.067402,85.9260086 309.357284,85.1767839 309.618178,84.4594411 L311.982327,78.0607431 C312.287008,77.3845572 312.443964,76.6522951 312.442917,75.9119029 C312.330185,74.372007 310.893659,73.2529522 309.453911,72.6599488 C308.014164,72.0669454 306.419813,71.7768201 305.150774,70.8745622 C303.008868,69.3506072 302.34536,66.5035533 302.152106,63.8988018 C302.020044,62.109953 302.032969,60.3135068 302.190756,58.5267012 C302.425883,55.877315 302.947671,53.0525784 301.755933,50.6678121 C300.483673,48.1172599 297.629946,46.8196664 294.99202,45.7101762 C293.977433,45.2829587 292.933857,44.852553 291.832306,44.8047301 C290.666336,44.7537191 289.532575,45.1235492 288.431023,45.5156966 C286.678848,46.1182645 284.888021,46.896183 283.093973,47.3042713 C282.079386,47.533821 280.964951,47.3616588 279.985794,47.7251125 C276.391257,49.0864697 278.043584,54.0313529 278.043584,56.8975359 Z" id="Shape" fill="#B96B6B" fill-rule="nonzero"></path>
                    <path d="M270.091324,108.788711 C270.091324,108.788711 271.623459,108.469804 279.313162,107.453818 C287.002866,106.437831 300.456621,108.8 300.456621,108.8" id="Shape" fill="#000000" fill-rule="nonzero" opacity="0.05"></path>
                </g>
            </g>
        </g>
    </g>
</svg>