<?xml version="1.0" encoding="UTF-8"?>
<svg width="29px" height="24px" viewBox="0 0 29 24" version="1.1" xmlns="http://www.w3.org/2000/svg" xmlns:xlink="http://www.w3.org/1999/xlink">
    <!-- Generator: Sketch 51.2 (57519) - http://www.bohemiancoding.com/sketch -->
    <title>twitter - FontAwesome</title>
    <desc>Created with Sketch.</desc>
    <defs></defs>
    <g id="04_Landing" stroke="none" stroke-width="1" fill="none" fill-rule="evenodd">
        <g id="Landing-0001-Copy" transform="translate(-175.000000, -4437.000000)" fill="#FFFFFF">
            <g id="Footer" transform="translate(-18.000000, 3998.000000)">
                <g id="RRSS" transform="translate(113.000000, 388.000000)">
                    <g transform="translate(0.000000, 51.000000)" id="twitter---FontAwesome">
                        <path d="M109,2.85 C108.190355,4.05 107.178299,5.11875 106.019036,5.98125 C106.037437,6.24375 106.037437,6.50625 106.037437,6.76875 C106.037437,14.775 100.057107,24 89.1269036,24 C85.7595178,24 82.6313452,23.00625 80,21.28125 C80.4784264,21.3375 80.9384518,21.35625 81.4352792,21.35625 C84.2138325,21.35625 86.7715736,20.4 88.8140863,18.76875 C86.2011421,18.7125 84.0114213,16.96875 83.2569797,14.56875 C83.625,14.625 83.9930203,14.6625 84.3794416,14.6625 C84.9130711,14.6625 85.4467005,14.5875 85.9435279,14.45625 C83.2201777,13.89375 81.177665,11.45625 81.177665,8.5125 C81.177665,8.49375 81.177665,8.45625 81.177665,8.4375 C81.9689086,8.8875 82.8889594,9.16875 83.8642132,9.20625 C82.2633249,8.11875 81.214467,6.2625 81.214467,4.1625 C81.214467,3.0375 81.5088832,2.00625 82.0241117,1.10625 C84.9498731,4.78125 89.3477157,7.18125 94.2791878,7.44375 C94.1871827,6.99375 94.1319797,6.525 94.1319797,6.05625 C94.1319797,2.71875 96.7817259,0 100.075508,0 C101.786802,0 103.332487,0.73125 104.418147,1.9125 C105.761421,1.65 107.049492,1.14375 108.190355,0.45 C107.748731,1.85625 106.810279,3.0375 105.577411,3.7875 C106.773477,3.65625 107.932741,3.31875 109,2.85 Z"></path>
                    </g>
                </g>
            </g>
        </g>
    </g>
</svg>